STARTFONT 2.1
COMMENT
COMMENT Converted from OpenType font "truongsa_regular.ttf" by "otf2bdf 3.0".
COMMENT
FONT -FreeType-VPS Truong Sa Light Hoa-Medium-R-Normal--55-400-100-100-P-280-ISO10646-1
SIZE 40 100 100
FONTBOUNDINGBOX 52 76 -1 -13
STARTPROPERTIES 19
FOUNDRY "FreeType"
FAMILY_NAME "VPS Truong Sa Light Hoa"
WEIGHT_NAME "Medium"
SLANT "R"
SETWIDTH_NAME "Normal"
ADD_STYLE_NAME ""
PIXEL_SIZE 55
POINT_SIZE 400
RESOLUTION_X 100
RESOLUTION_Y 100
SPACING "P"
AVERAGE_WIDTH 280
CHARSET_REGISTRY "ISO10646"
CHARSET_ENCODING "1"
FONT_ASCENT 54
FONT_DESCENT 13
COPYRIGHT "VPS Font"
_OTF_FONTFILE "truongsa_regular.ttf"
_OTF_PSNAME "VPS Truong Sa Light Hoa"
ENDPROPERTIES
CHARS 270
STARTCHAR 0002
ENCODING 2
SWIDTH 648 0
DWIDTH 36 0
BBX 38 50 -1 -9
BITMAP
0000300000
0000780000
0000780000
0000FC0000
0000FE0000
0001FE0000
0001FF0000
0003DF0000
0003DF8000
00078F8000
00078FC000
000F07C000
000F07E000
001E03E000
001E03E000
001C01F000
003C01F000
003801F800
007800F800
007800FC00
0070007C00
00F0007C00
00F0007E00
01E0003E00
01FFFFFE00
01FFFFFF00
03FFFFFF00
03C0001F00
0380000F80
0780000F80
0780000F80
0F000007C0
0F000007C0
0F000007C0
1F000003E0
1F000003E0
1F000003E0
3F000003F0
3F80000FF8
FFC0001FFC
7FC0000FFC
0000000000
0000000000
0000000000
0001F00000
0001F00000
0001F00000
0001F00000
0001F00000
0000400000
ENDCHAR
STARTCHAR 0003
ENCODING 3
SWIDTH 648 0
DWIDTH 36 0
BBX 38 63 -1 -9
BITMAP
0000380000
00007C0000
0000FC0000
0000FE0000
0001EF0000
0003C70000
0003838000
000701C000
000E00C000
000C006000
0000000000
0000000000
0000000000
0000300000
0000780000
0000780000
0000FC0000
0000FE0000
0001FE0000
0001FF0000
0003DF0000
0003DF8000
00078F8000
00078FC000
000F07C000
000F07E000
001E03E000
001E03E000
001C01F000
003C01F000
003801F800
007800F800
007800FC00
0070007C00
00F0007C00
00F0007E00
01E0003E00
01FFFFFE00
01FFFFFF00
03FFFFFF00
03C0001F00
0380000F80
0780000F80
0780000F80
0F000007C0
0F000007C0
0F000007C0
1F000003E0
1F000003E0
1F000003E0
3F000003F0
3F80000FF8
FFC0001FFC
7FC0000FFC
0000000000
0000000000
0000000000
0001F00000
0001F00000
0001F00000
0001F00000
0001F00000
0000400000
ENDCHAR
STARTCHAR 0004
ENCODING 4
SWIDTH 648 0
DWIDTH 36 0
BBX 38 60 -1 -9
BITMAP
001800C000
0008008000
000C018000
000F078000
0007FF0000
0003FE0000
0000F80000
0000000000
0000000000
0000000000
0000300000
0000780000
0000780000
0000FC0000
0000FE0000
0001FE0000
0001FF0000
0003DF0000
0003DF8000
00078F8000
00078FC000
000F07C000
000F07E000
001E03E000
001E03E000
001C01F000
003C01F000
003801F800
007800F800
007800FC00
0070007C00
00F0007C00
00F0007E00
01E0003E00
01FFFFFE00
01FFFFFF00
03FFFFFF00
03C0001F00
0380000F80
0780000F80
0780000F80
0F000007C0
0F000007C0
0F000007C0
1F000003E0
1F000003E0
1F000003E0
3F000003F0
3F80000FF8
FFC0001FFC
7FC0000FFC
0000000000
0000000000
0000000000
0001F00000
0001F00000
0001F00000
0001F00000
0001F00000
0000400000
ENDCHAR
STARTCHAR 0005
ENCODING 5
SWIDTH 612 0
DWIDTH 34 0
BBX 31 49 2 -9
BITMAP
FFFFFFF8
FFFFFFF8
7FFFFFF8
3F8001FC
1F00003C
1F00001C
1F00000C
1F000000
1F000000
1F000000
1F000000
1F000000
1F000000
1F000000
1F000000
1F000180
1F0007C0
1FFFFFC0
1FFFFFC0
1FFFFFC0
1F0001C0
1F000000
1F000000
1F000000
1F000000
1F000000
1F000000
1F000000
1F000000
1F000000
1F000000
1F000000
1F000002
1F000006
1F00000E
1F00003E
3FC001FE
7FFFFFFE
FFFFFFFE
FFFFFFFC
00000000
00000000
00000000
000F8000
000F8000
000F8000
000F8000
000F8000
00020000
ENDCHAR
STARTCHAR 0006
ENCODING 6
SWIDTH 612 0
DWIDTH 34 0
BBX 31 63 2 -9
BITMAP
0003C000
0003C000
0007E000
000FF000
000FF000
001E7800
003C1C00
00300C00
00600600
00C00300
00000000
00000000
00000000
00000000
FFFFFFF8
FFFFFFF8
7FFFFFF8
3F8001FC
1F00003C
1F00001C
1F00000C
1F000000
1F000000
1F000000
1F000000
1F000000
1F000000
1F000000
1F000000
1F000180
1F0007C0
1FFFFFC0
1FFFFFC0
1FFFFFC0
1F0001C0
1F000000
1F000000
1F000000
1F000000
1F000000
1F000000
1F000000
1F000000
1F000000
1F000000
1F000000
1F000002
1F000006
1F00000E
1F00003E
3FC001FE
7FFFFFFE
FFFFFFFE
FFFFFFFC
00000000
00000000
00000000
00008000
0003E000
0007E000
0007E000
0007E000
0003C000
ENDCHAR
STARTCHAR 0015
ENCODING 21
SWIDTH 702 0
DWIDTH 39 0
BBX 40 60 1 -10
BITMAP
000000007C
0000000063
0000000041
0000000001
0000000001
0000000003
0000000003
000000000E
000000007C
0000000040
7FF0003FF0
FFF0003FF8
7FE0001FF0
1FC00007C0
1F800007C0
1F800003C0
1F000003C0
1F000003C0
1F000003C0
1F000003C0
1F000003C0
1F000003C0
1F000003C0
1F000003C0
1F000003C0
1F000003C0
1F000003C0
1E000003C0
1E000003C0
1E000001C0
1E000001C0
1E000001E0
1E000001E0
1E000001E0
1E000003E0
1E000003C0
1F000003C0
1F000003C0
1F000003C0
1F000003C0
1F000003C0
0F80000780
0F80000780
0FC0000F80
07C0001F00
07F0003E00
03F8007E00
01FF03FC00
00FFFFF000
003FFFE000
000FFF0000
0000000000
0000000000
0000000000
0000780000
0000F80000
0000FC0000
0000FC0000
0000F80000
0000700000
ENDCHAR
STARTCHAR 0019
ENCODING 25
SWIDTH 648 0
DWIDTH 36 0
BBX 37 49 -1 -9
BITMAP
FFE0001FF8
FFE0000FF8
7FC00007F0
1F800003E0
0F800003E0
0FC00003C0
07C0000780
07E0000780
03E0000F00
01F0000E00
01F8001E00
00F8001C00
007C003800
007E007800
003F007000
001F00E000
001F81E000
000FC3C000
0007E38000
0003E78000
0003FF0000
0001FE0000
0000FC0000
0000FC0000
00007C0000
00007C0000
00007C0000
00007C0000
00007C0000
00007C0000
00007C0000
00007C0000
00007C0000
00007C0000
00007C0000
00007C0000
0000FC0000
0001FF0000
0003FF8000
0003FF8000
0000000000
0000000000
0000000000
0000380000
00007C0000
00007E0000
00007E0000
00007C0000
0000380000
ENDCHAR
STARTCHAR 001C
ENCODING 28
SWIDTH 648 0
DWIDTH 36 0
BBX 38 61 -1 0
BITMAP
0000002000
0000C06000
0003FCC000
0007FFC000
000FFF8000
000C1F0000
0008000000
0000380000
00007C0000
0000FC0000
0000FE0000
0001EF0000
0003C70000
0003838000
000701C000
000E00C000
000C006000
0000000000
0000000000
0000000000
0000300000
0000780000
0000780000
0000FC0000
0000FE0000
0001FE0000
0001FF0000
0003DF0000
0003DF8000
00078F8000
00078FC000
000F07C000
000F07E000
001E03E000
001E03E000
001C01F000
003C01F000
003801F800
007800F800
007800FC00
0070007C00
00F0007C00
00F0007E00
01E0003E00
01FFFFFE00
01FFFFFF00
03FFFFFF00
03C0001F00
0380000F80
0780000F80
0780000F80
0F000007C0
0F000007C0
0F000007C0
1F000003E0
1F000003E0
1F000003E0
3F000003F0
3F80000FF8
FFC0001FFC
7FC0000FFC
ENDCHAR
STARTCHAR 001D
ENCODING 29
SWIDTH 702 0
DWIDTH 39 0
BBX 40 62 1 -1
BITMAP
0000001000
0000FC3000
0003FFE000
0003FFE000
00061FC000
0006000000
0004000000
0000000000
0000000000
0000000000
0000000000
000000007C
0000000063
0000000041
0000000001
0000000001
0000000003
0000000003
000000000E
000000007C
0000000040
7FF0003FF0
FFF0003FF8
7FE0001FF0
1FC00007C0
1F800007C0
1F800003C0
1F000003C0
1F000003C0
1F000003C0
1F000003C0
1F000003C0
1F000003C0
1F000003C0
1F000003C0
1F000003C0
1F000003C0
1F000003C0
1E000003C0
1E000003C0
1E000001C0
1E000001C0
1E000001E0
1E000001E0
1E000001E0
1E000003E0
1E000003C0
1F000003C0
1F000003C0
1F000003C0
1F000003C0
1F000003C0
0F80000780
0F80000780
0FC0000F80
07C0001F00
07F0003E00
03F8007E00
01FF03FC00
00FFFFF000
003FFFE000
000FFF0000
ENDCHAR
STARTCHAR 0020
ENCODING 32
SWIDTH 270 0
DWIDTH 15 0
BBX 0 0 0 0
BITMAP
ENDCHAR
STARTCHAR 0021
ENCODING 33
SWIDTH 270 0
DWIDTH 15 0
BBX 6 42 4 -1
BITMAP
38
7C
7C
7C
7C
7C
7C
7C
7C
7C
7C
7C
7C
78
78
78
78
78
78
78
38
38
38
38
38
38
38
30
30
30
00
00
00
00
00
00
78
7C
FC
FC
7C
38
ENDCHAR
STARTCHAR 0022
ENCODING 34
SWIDTH 324 0
DWIDTH 18 0
BBX 14 17 2 23
BITMAP
3018
783C
F87C
F87C
787C
783C
783C
7038
7038
7038
7038
3038
3018
3018
2010
2010
2010
ENDCHAR
STARTCHAR 0023
ENCODING 35
SWIDTH 756 0
DWIDTH 42 0
BBX 37 40 3 0
BITMAP
00003C0780
0000380780
0000780700
0000780F00
0000700F00
0000F00E00
0000F01E00
0000E01E00
0001E01C00
0001E03C00
0001C03C00
0003C03800
0003807800
0FFFFFFFF8
0FFFFFFFF0
1FFFFFFFF0
000F00E000
000F00E000
000E01E000
001E01C000
001E03C000
001C03C000
003C038000
003C078000
7FFFFFFFC0
FFFFFFFF80
FFFFFFFF80
00700F0000
00F00E0000
00E01E0000
01E01C0000
01E03C0000
01C03C0000
03C0380000
03C0780000
0380780000
0780700000
0780F00000
0700F00000
0F00E00000
ENDCHAR
STARTCHAR 0024
ENCODING 36
SWIDTH 540 0
DWIDTH 30 0
BBX 25 51 3 -6
BITMAP
00080000
001C0000
001C0000
001C0000
001C0000
01FFC000
07FFF000
0F9CF800
1E1C3800
3C1C3C00
381C1C00
781C1C00
781C1C00
701C0C00
781C0000
781C0000
781C0000
3C1C0000
3F1C0000
3F9C0000
1FFC0000
0FFC0000
07FF0000
01FFC000
007FF000
001FF800
001FFC00
001DFE00
001C7F00
001C1F00
001C0F80
001C0F80
001C0780
001C0780
401C0780
E01C0780
E01C0780
F01C0700
F01C0F00
781C0E00
3C1C1E00
1E1C7C00
0FFFF000
07FFE000
01FF0000
001C0000
001C0000
001C0000
001C0000
001C0000
001C0000
ENDCHAR
STARTCHAR 0025
ENCODING 37
SWIDTH 864 0
DWIDTH 48 0
BBX 42 43 4 -1
BITMAP
000000008000
01F80001C000
0FFF00078000
1F0FC01F8000
3C07FFFF0000
7803FFF60000
7801E00E0000
F801E00C0000
F001E01C0000
F001E0180000
F001F0380000
F001F0300000
F001E0600000
F001E0E00000
F801E0C00000
7803E1C00000
7803C1800000
3C0783800000
1F0F03000000
0FFE07000000
01F80E000000
00000C000000
00001C000000
00001807E000
0000381FF800
0000307C3E00
000070F00F00
0000E0F00F00
0000E1E00780
0001C1E00780
000183E00780
000383C007C0
000303C007C0
000703C007C0
000603C007C0
000E03E00780
001C01E00780
001801E00780
003800F00F00
003000F01F00
0070007C3E00
0060001FF800
00E00007E000
ENDCHAR
STARTCHAR 0026
ENCODING 38
SWIDTH 756 0
DWIDTH 42 0
BBX 41 42 1 -1
BITMAP
0007F0000000
003FFC000000
007FFE000000
00F81F000000
01E007800000
01E007800000
03C003800000
03C003800000
03C003800000
03C003800000
03C007800000
03C007800000
03E00F000000
03E01E000000
01F07C000000
01F8F8000000
00FBF0000000
00FFC0000000
007F801FFC00
007F003FFC00
01FF000FFC00
03FF8003F000
078FC003C000
0F07E003C000
1E07E0038000
3C03F0070000
3C01F8070000
7800FC0E0000
78007E1E0000
78007E1C0000
F8003F380000
F8001FF80000
F8000FF00000
780007E00000
7C0003F00000
7E0007FC0000
3F000FFE0000
3F803EFF8100
1FFFFC7FFF80
0FFFF81FFF00
03FFE007FE00
00FF80006000
ENDCHAR
STARTCHAR 0027
ENCODING 39
SWIDTH 162 0
DWIDTH 9 0
BBX 5 17 2 23
BITMAP
30
78
F8
F8
78
78
78
70
70
70
70
30
30
30
20
20
20
ENDCHAR
STARTCHAR 0028
ENCODING 40
SWIDTH 324 0
DWIDTH 18 0
BBX 9 50 5 -9
BITMAP
0180
0380
0780
0700
0F00
0F00
0E00
1E00
1C00
3C00
3C00
3C00
7800
7800
7800
7800
F000
F000
F000
F000
F000
F000
F000
F000
F000
F000
F000
F000
F000
F000
F000
F000
F000
7000
7800
7800
7800
7800
3800
3C00
3C00
1C00
1E00
0E00
0E00
0F00
0700
0780
0380
0180
ENDCHAR
STARTCHAR 0029
ENCODING 41
SWIDTH 324 0
DWIDTH 18 0
BBX 10 50 4 -9
BITMAP
C000
E000
F000
7000
7800
3800
3C00
3C00
1C00
1E00
1E00
0E00
0F00
0F00
0F00
0700
0780
0780
0780
0780
0780
0780
0780
0380
03C0
03C0
03C0
0780
0780
0780
0780
0780
0780
0780
0780
0F00
0F00
0F00
0F00
1E00
1E00
1C00
3C00
3C00
3800
7800
7000
F000
E000
C000
ENDCHAR
STARTCHAR 002A
ENCODING 42
SWIDTH 486 0
DWIDTH 27 0
BBX 21 23 3 18
BITMAP
007000
00F800
00F800
00F800
307820
7870F0
FC31F8
7E21F8
7F23F0
1FA780
00F800
007000
01AC00
3F27F0
7E23F8
FC31F8
7C70F8
787070
007800
00F800
00F800
00F800
002000
ENDCHAR
STARTCHAR 002B
ENCODING 43
SWIDTH 828 0
DWIDTH 46 0
BBX 32 33 7 0
BITMAP
0001C000
0001C000
0001C000
0001C000
0001C000
0001C000
0001C000
0001C000
0001C000
0001C000
0001C000
0001C000
0001C000
0001C000
0001C000
FFFFFFFF
FFFFFFFF
FFFFFFFF
0001C000
0001C000
0001C000
0001C000
0001C000
0001C000
0001C000
0001C000
0001C000
0001C000
0001C000
0001C000
0001C000
0001C000
0001C000
ENDCHAR
STARTCHAR 002C
ENCODING 44
SWIDTH 270 0
DWIDTH 15 0
BBX 7 15 4 -10
BITMAP
78
FC
FE
FE
FE
7E
0E
0C
0C
0C
18
18
30
60
40
ENDCHAR
STARTCHAR 002D
ENCODING 45
SWIDTH 324 0
DWIDTH 18 0
BBX 14 4 2 11
BITMAP
FFFC
FFFC
FFFC
FFFC
ENDCHAR
STARTCHAR 002E
ENCODING 46
SWIDTH 270 0
DWIDTH 15 0
BBX 6 6 5 -1
BITMAP
78
F8
FC
FC
F8
70
ENDCHAR
STARTCHAR 002F
ENCODING 47
SWIDTH 252 0
DWIDTH 14 0
BBX 16 46 -1 -5
BITMAP
0003
0007
0006
0006
000E
000E
000C
001C
001C
0018
0018
0038
0030
0030
0070
0060
0060
00E0
00C0
00C0
01C0
01C0
0180
0380
0380
0300
0300
0700
0600
0600
0E00
0C00
0C00
1C00
1800
1800
3800
3000
3000
7000
7000
6000
6000
E000
C000
C000
ENDCHAR
STARTCHAR 0030
ENCODING 48
SWIDTH 540 0
DWIDTH 30 0
BBX 27 42 2 -1
BITMAP
003F8000
01FFE000
03FFF800
07C0FC00
0F803E00
1F001E00
1E001F00
3E000F00
3C000F80
7C000780
7C0007C0
7C0007C0
F80007C0
F80007C0
F80007C0
F80007E0
F80007E0
F80003E0
F80003E0
F80003E0
F80003E0
F80003E0
F80003E0
F80003E0
F80003E0
F80007E0
F80007E0
F80007C0
F80007C0
F80007C0
7C0007C0
7C0007C0
7C000F80
3C000F80
3E000F00
1E001F00
1F001E00
0F803C00
07C0FC00
03FFF000
00FFE000
001F0000
ENDCHAR
STARTCHAR 0031
ENCODING 49
SWIDTH 540 0
DWIDTH 30 0
BBX 20 41 5 0
BITMAP
000800
003800
007800
03F800
7FF800
FFF800
FFF800
00F800
00F800
007800
007800
007800
007800
007800
007800
007800
007800
007800
007800
007800
007800
007800
007800
007800
007800
007800
007800
007800
007800
007800
007800
007800
007800
007800
007800
00FC00
00FC00
01FE00
3FFFF0
7FFFF0
7FFFF0
ENDCHAR
STARTCHAR 0032
ENCODING 50
SWIDTH 540 0
DWIDTH 30 0
BBX 26 41 1 0
BITMAP
003FE000
00FFF800
03FFFE00
07C07F00
1F001F80
1E000F80
3E0007C0
3C0007C0
7C0007C0
7C0007C0
7C0007C0
7E0007C0
7E0007C0
3E000FC0
1C000FC0
00001F80
00001F80
00003F00
00007E00
0000FC00
0001F800
0003F000
0007E000
000FC000
001F8000
003E0000
007C0000
00F80000
01F00000
03E00000
07C00000
0F800000
0F000000
1E0000C0
3E0001C0
3C0003C0
7C001FC0
FFFFFFC0
FFFFFF80
FFFFFF80
FFFFFF00
ENDCHAR
STARTCHAR 0033
ENCODING 51
SWIDTH 540 0
DWIDTH 30 0
BBX 27 42 1 -1
BITMAP
003F8000
01FFF000
07FFFC00
0F80FE00
1F003F00
1E001F00
3E001F80
3E000F80
3E000F80
3E000F80
1C000F80
00000F80
00000F80
00001F00
00001F00
00003E00
00007C00
0003F000
007FC000
00FFC000
00FFF800
0000FC00
00003F00
00001F80
00000F80
00000FC0
000007C0
000007E0
000007E0
000007E0
600007E0
F00007E0
F00007C0
F00007C0
F0000FC0
F8000F80
F8001F00
7C003F00
3F00FE00
1FFFF800
07FFE000
01FF0000
ENDCHAR
STARTCHAR 0034
ENCODING 52
SWIDTH 540 0
DWIDTH 30 0
BBX 30 41 0 0
BITMAP
00001C00
00003E00
0000FE00
0001FE00
0003FE00
0007FE00
0007BE00
000F3E00
001E3E00
003C3E00
00783E00
00783E00
00F03E00
01E03E00
01E03E00
03C03E00
07803E00
07803E00
0F003E00
0F003E00
1E003E00
1E003E00
3C003E00
3C003E00
38003E00
78003E00
78003E00
7FFFFFFC
FFFFFFFC
7FFFFFFC
00003E00
00003E00
00003E00
00003E00
00003E00
00003E00
00003E00
00003E00
0000FF80
0001FFC0
0001FFC0
ENDCHAR
STARTCHAR 0035
ENCODING 53
SWIDTH 540 0
DWIDTH 30 0
BBX 27 41 1 0
BITMAP
0FFFFF00
0FFFFF00
0FFFFE00
0FFFF000
0EF80000
0E000000
0E000000
0E000000
0E000000
0E000000
0E000000
0E000000
1E000000
1E000000
1E000000
1E1FE000
1CFFF800
1FFFFE00
1FC07F00
1F001F80
1C000FC0
000007C0
000007E0
000007E0
000003E0
000003E0
000003E0
000003E0
000003E0
000003E0
780003E0
F80007E0
F80007C0
F80007C0
F8000F80
7C001F80
7E003F00
3F80FE00
0FFFF800
07FFE000
007F0000
ENDCHAR
STARTCHAR 0036
ENCODING 54
SWIDTH 540 0
DWIDTH 30 0
BBX 27 42 2 -1
BITMAP
00003F00
0001FF00
0007FE00
001FC000
007E0000
00FC0000
01F00000
03E00000
07C00000
0F800000
0F800000
1F000000
3E000000
3E000000
3C000000
7C000000
7C07C000
7C7FF800
F8FFFE00
FBF1FF00
FF803F80
FE001F80
FC000FC0
F80007C0
F80007C0
F80007E0
F80003E0
F80003E0
F80003E0
F80003E0
F80003E0
780003E0
7C0007C0
7C0007C0
3E0007C0
3E000F80
1F000F00
0F801F00
0FE07E00
03FFF800
01FFF000
003F8000
ENDCHAR
STARTCHAR 0037
ENCODING 55
SWIDTH 540 0
DWIDTH 30 0
BBX 25 41 3 -1
BITMAP
7FFFFF80
7FFFFF80
7FFFFF80
7FFFFF80
78000700
F0000F00
F0000E00
60000E00
60001E00
00001C00
00003C00
00003C00
00007800
00007800
0000F000
0000F000
0000F000
0001E000
0001E000
0003C000
0003C000
0007C000
00078000
00078000
000F8000
000F0000
001F0000
001F0000
003E0000
003E0000
003E0000
007C0000
007C0000
00FC0000
00F80000
00F80000
01F80000
01F00000
01F00000
01F00000
00E00000
ENDCHAR
STARTCHAR 0038
ENCODING 56
SWIDTH 540 0
DWIDTH 30 0
BBX 28 42 1 -1
BITMAP
001FC000
00FFF800
03FFFE00
07C03F00
0F000F80
1E0007C0
1E0003C0
3C0003C0
3C0003C0
3C0003C0
3C0003C0
3C0003C0
3E000780
3E000780
1F800F00
1FC01E00
0FF87C00
07FFF000
03FFE000
01FFF000
007FFC00
00FFFF00
03E3FF80
07807FC0
0F001FC0
1E000FE0
3C0007E0
7C0003F0
780001F0
780001F0
F80001F0
F00001F0
F00001F0
780001E0
780001E0
780003E0
3C0003C0
3E000F80
1F801F00
07FFFE00
03FFF000
003F8000
ENDCHAR
STARTCHAR 0039
ENCODING 57
SWIDTH 540 0
DWIDTH 30 0
BBX 27 42 2 -1
BITMAP
007F8000
01FFE000
07FFF800
0F80FC00
1F003E00
3E001F00
7C001F00
7C000F80
F8000F80
F80007C0
F80007C0
F80007C0
F80007C0
F80007C0
F80007E0
F80003E0
F80003E0
F80007E0
FC0007E0
7C0007E0
7E001FC0
3F803FC0
1FFFF7C0
0FFFE7C0
03FF87C0
00780780
00000F80
00000F80
00000F00
00001F00
00003E00
00003E00
00007C00
0000F800
0001F000
0003E000
000FC000
001F8000
00FE0000
1FFC0000
3FE00000
1F000000
ENDCHAR
STARTCHAR 003A
ENCODING 58
SWIDTH 270 0
DWIDTH 15 0
BBX 6 26 5 -1
BITMAP
30
F8
FC
FC
F8
78
00
00
00
00
00
00
00
00
00
00
00
00
00
00
78
F8
FC
FC
F8
70
ENDCHAR
STARTCHAR 003B
ENCODING 59
SWIDTH 270 0
DWIDTH 15 0
BBX 7 35 4 -10
BITMAP
30
78
FC
FC
FC
78
00
00
00
00
00
00
00
00
00
00
00
00
00
00
78
FC
FE
FE
FE
7E
0E
0C
0C
0C
18
18
30
60
40
ENDCHAR
STARTCHAR 003C
ENCODING 60
SWIDTH 828 0
DWIDTH 46 0
BBX 32 29 7 2
BITMAP
00000001
0000000F
0000003F
000001FF
000007F8
00001FE0
0000FF00
0003FC00
001FF000
007F8000
03FE0000
0FF00000
7FC00000
FE000000
F8000000
FF000000
3FC00000
0FF80000
01FE0000
007FC000
001FF000
0003FC00
0000FF80
00001FE0
000007FC
000000FF
0000003F
00000007
00000001
ENDCHAR
STARTCHAR 003D
ENCODING 61
SWIDTH 828 0
DWIDTH 46 0
BBX 32 13 7 10
BITMAP
FFFFFFFF
FFFFFFFF
FFFFFFFF
00000000
00000000
00000000
00000000
00000000
00000000
00000000
FFFFFFFF
FFFFFFFF
FFFFFFFF
ENDCHAR
STARTCHAR 003E
ENCODING 62
SWIDTH 828 0
DWIDTH 46 0
BBX 32 29 7 2
BITMAP
C0000000
F0000000
FC000000
FF800000
1FE00000
07FC0000
00FF0000
003FE000
0007F800
0001FF00
00003FC0
00000FF0
000003FE
0000007F
0000001F
0000007F
000003FC
00000FF0
00007FC0
0001FE00
000FF800
003FC000
01FF0000
07F80000
3FE00000
FF800000
FC000000
F0000000
80000000
ENDCHAR
STARTCHAR 003F
ENCODING 63
SWIDTH 432 0
DWIDTH 24 0
BBX 21 42 1 -1
BITMAP
01FC00
0FFF80
1F0FC0
3C03E0
7801F0
7800F0
F80078
FC0078
780078
300078
000078
000078
000078
000078
0000F8
0000F8
0001F0
0003F0
0007E0
001FC0
007F80
00FF00
01FC00
01F000
01C000
018000
018000
018000
018000
018000
018000
000000
000000
000000
000000
000000
01C000
03E000
03E000
03E000
03E000
01C000
ENDCHAR
STARTCHAR 0040
ENCODING 64
SWIDTH 972 0
DWIDTH 54 0
BBX 47 47 4 -8
BITMAP
00001FFFC000
0000F800F000
0003C0001C00
000F00000700
003C00000180
0070000000C0
00E000000060
01C000000030
038000000010
070000000008
0F0000000008
0E000000000C
1C0003F87804
1C000E0C7804
38003C06F006
38007802F006
7000F802F002
7000F003E002
7001E003E002
F003E003E002
E003C003E006
E007C003C006
E007C003C004
E0078003C004
E00780078004
E00F8007800C
E00F800F8008
E00F000F8018
E007001F0010
E007001F0030
7007003F0060
7007806F00C0
700380C70180
3801C1870700
3800FF03FC00
1C003800E000
1C0000000000
0E0000000000
070000000000
038000000000
01C000000060
00F000000180
007800000700
001F00001C00
0007E000F000
0000FFFF8000
000001E00000
ENDCHAR
STARTCHAR 0041
ENCODING 65
SWIDTH 648 0
DWIDTH 36 0
BBX 38 41 -1 0
BITMAP
0000300000
0000780000
0000780000
0000FC0000
0000FE0000
0001FE0000
0001FF0000
0003DF0000
0003DF8000
00078F8000
00078FC000
000F07C000
000F07E000
001E03E000
001E03E000
001C01F000
003C01F000
003801F800
007800F800
007800FC00
0070007C00
00F0007C00
00F0007E00
01E0003E00
01FFFFFE00
01FFFFFF00
03FFFFFF00
03C0001F00
0380000F80
0780000F80
0780000F80
0F000007C0
0F000007C0
0F000007C0
1F000003E0
1F000003E0
1F000003E0
3F000003F0
3F80000FF8
FFC0001FFC
7FC0000FFC
ENDCHAR
STARTCHAR 0042
ENCODING 66
SWIDTH 648 0
DWIDTH 36 0
BBX 33 40 2 0
BITMAP
FFFFFF0000
FFFFFFE000
7FFFFFF000
3F8007F800
1F0001FC00
1F0000FC00
1F00007C00
1F00007E00
1F00007E00
1F00007E00
1F00007C00
1F00007C00
1F0000FC00
1F0001F800
1F0003F000
1F000FE000
1F003F8000
1F01FF0000
1F1FFF0000
1FFFFFE000
1FFF0FF800
1FF001FC00
1F0000FE00
1F00003F00
1F00003F00
1F00001F80
1F00001F80
1F00000F80
1F00000F80
1F00000F80
1F00000F80
1F00001F80
1F00001F80
1F00003F00
1F00007F00
1F0000FE00
3FC00FFC00
7FFFFFF800
FFFFFFF000
FFFFFF8000
ENDCHAR
STARTCHAR 0043
ENCODING 67
SWIDTH 684 0
DWIDTH 38 0
BBX 36 42 2 -1
BITMAP
0001FFC000
000FFFF800
003FFFFF00
00FF00FF80
01F8003F80
03F0001FC0
07E00007C0
0FC00007C0
0F800003C0
1F000001C0
3F000001C0
3E000000C0
7E00000000
7E00000000
7C00000000
FC00000000
FC00000000
FC00000000
FC00000000
FC00000000
FC00000000
FC00000000
FC00000000
FC00000000
FC00000000
FC00000000
FC00000000
7C00000000
7E00000000
7E00000000
7E00000000
3F00000020
3F80000070
1F800000E0
1FC00001E0
0FE00007C0
07F0000FC0
03FC003F80
01FFE3FE00
007FFFFC00
001FFFF000
0007FF8000
ENDCHAR
STARTCHAR 0044
ENCODING 68
SWIDTH 720 0
DWIDTH 40 0
BBX 36 40 2 0
BITMAP
FFFFF80000
FFFFFF8000
7FFFFFE000
3F800FF000
1F0001FC00
1F0000FE00
1F00003F00
1F00001F80
1F00001F80
1F00000FC0
1F000007C0
1F000007E0
1F000003E0
1F000003E0
1F000003F0
1F000003F0
1F000003F0
1F000003F0
1F000001F0
1F000001F0
1F000001F0
1F000001F0
1F000003F0
1F000003F0
1F000003F0
1F000003F0
1F000003E0
1F000007E0
1F000007E0
1F000007C0
1F00000FC0
1F00001F80
1F00003F00
1F00007F00
1F0000FE00
1F0003F800
3F801FF000
7FFFFFC000
FFFFFF0000
FFFFF00000
ENDCHAR
STARTCHAR 0045
ENCODING 69
SWIDTH 612 0
DWIDTH 34 0
BBX 31 40 2 0
BITMAP
FFFFFFF8
FFFFFFF8
7FFFFFF8
3F8001FC
1F00003C
1F00001C
1F00000C
1F000000
1F000000
1F000000
1F000000
1F000000
1F000000
1F000000
1F000000
1F000180
1F0007C0
1FFFFFC0
1FFFFFC0
1FFFFFC0
1F0001C0
1F000000
1F000000
1F000000
1F000000
1F000000
1F000000
1F000000
1F000000
1F000000
1F000000
1F000000
1F000002
1F000006
1F00000E
1F00003E
3FC001FE
7FFFFFFE
FFFFFFFE
FFFFFFFC
ENDCHAR
STARTCHAR 0046
ENCODING 70
SWIDTH 558 0
DWIDTH 31 0
BBX 30 40 1 0
BITMAP
7FFFFFF8
7FFFFFF8
3FFFFFFC
1FC001FC
0F80003C
0F80001C
0F80000C
0F800000
0F800000
0F800000
0F800000
0F800000
0F800000
0F800000
0F800000
0F800000
0F800080
0F8007C0
0FFFFFC0
0FFFFFC0
0FFFFFC0
0F8003C0
0F800080
0F800000
0F800000
0F800000
0F800000
0F800000
0F800000
0F800000
0F800000
0F800000
0F800000
0F800000
0F800000
0F800000
1FC00000
7FE00000
FFF00000
7FF00000
ENDCHAR
STARTCHAR 0047
ENCODING 71
SWIDTH 756 0
DWIDTH 42 0
BBX 38 42 2 -1
BITMAP
00007FE000
0007FFFE00
001FFFFF80
007F803FC0
00FE000FE0
01F80003E0
03F00001F0
07E00000F0
0FC00000F0
1F80000070
1F80000070
3F00000020
3F00000000
7E00000000
7E00000000
7E00000000
7C00000000
FC00000000
FC00000000
FC00000000
FC00000000
FC0000FFF8
FC0000FFF8
FC00001FF8
FC000000F8
FC000000F8
FC000000F8
7C000000F8
7E000000F8
7E000000F8
3F000000F8
3F000000F8
1F800000F8
1F800000F8
0FC00000F8
07E00001FC
03F80001F8
01FC0007F0
00FF801FE0
007FFFFF80
001FFFFC00
0001FFE000
ENDCHAR
STARTCHAR 0048
ENCODING 72
SWIDTH 756 0
DWIDTH 42 0
BBX 39 40 2 0
BITMAP
FFE0000FFE
FFE0000FFE
7FC00007FC
3F000003F0
1F000001F0
1F000001F0
1F000001F0
1F000001F0
1F000001F0
1F000001F0
1F000001F0
1F000001F0
1F000001F0
1F000001F0
1F000001F0
1F000001F0
1FFFFFFFF0
1FFFFFFFF0
1FFFFFFFF0
1FFFFFFFF0
1F000001F0
1F000001F0
1F000001F0
1F000001F0
1F000001F0
1F000001F0
1F000001F0
1F000001F0
1F000001F0
1F000001F0
1F000001F0
1F000001F0
1F000001F0
1F000001F0
1F000001F0
1F000001F0
3F800003F0
7FC00007FC
FFE0000FFE
FFE0000FFE
ENDCHAR
STARTCHAR 0049
ENCODING 73
SWIDTH 270 0
DWIDTH 15 0
BBX 11 40 2 0
BITMAP
FFE0
FFE0
7FC0
1F80
1F00
1F00
1F00
1F00
1F00
1F00
1F00
1F00
1F00
1F00
1F00
1F00
1F00
1F00
1F00
1F00
1F00
1F00
1F00
1F00
1F00
1F00
1F00
1F00
1F00
1F00
1F00
1F00
1F00
1F00
1F00
1F00
3F80
7FC0
FFE0
FFE0
ENDCHAR
STARTCHAR 004A
ENCODING 74
SWIDTH 450 0
DWIDTH 25 0
BBX 24 41 0 -1
BITMAP
000FFF
000FFF
0007FE
0001F8
0000F8
0000F8
0000F8
0000F8
0000F8
0000F8
0000F8
0000F8
0000F8
0000F8
0000F8
0000F8
0000F8
0000F8
0000F8
0000F8
0000F8
0000F8
0000F8
0000F8
0000F8
0000F8
1E00F8
3F00F8
7F00F8
FF00F8
F800F8
F000F8
E000F8
E001F0
E001F0
F001F0
F803E0
7C07E0
3FFFC0
1FFF80
07FE00
ENDCHAR
STARTCHAR 004B
ENCODING 75
SWIDTH 612 0
DWIDTH 34 0
BBX 34 40 2 0
BITMAP
FFE007FF00
FFE007FF00
7FC003FE00
3F0001F800
1F0001F000
1F0001E000
1F0003C000
1F0007C000
1F000F8000
1F000F0000
1F001E0000
1F003C0000
1F00780000
1F00F00000
1F01E00000
1F03C00000
1F07C00000
1F0FE00000
1F1FF00000
1F3DF80000
1F78FC0000
1FF07E0000
1FE07E0000
1FC03F0000
1F801F8000
1F000FC000
1F0007C000
1F0007E000
1F0003E000
1F0001F000
1F0001F800
1F0000F800
1F0000FC00
1F00007C00
1F00007E00
1F00007E00
3F80007F00
7FC000FF80
FFE001FFC0
FFE000FFC0
ENDCHAR
STARTCHAR 004C
ENCODING 76
SWIDTH 576 0
DWIDTH 32 0
BBX 31 40 2 0
BITMAP
FFE00000
FFE00000
7FC00000
3F000000
1F000000
1F000000
1F000000
1F000000
1F000000
1F000000
1F000000
1F000000
1F000000
1F000000
1F000000
1F000000
1F000000
1F000000
1F000000
1F000000
1F000000
1F000000
1F000000
1F000000
1F000000
1F000000
1F000000
1F000000
1F000000
1F000000
1F000000
1F000000
1F000000
1F000004
1F00001E
1F00007E
3FC003FE
7FFFFFFC
FFFFFFFC
FFFFFFF8
ENDCHAR
STARTCHAR 004D
ENCODING 77
SWIDTH 810 0
DWIDTH 45 0
BBX 43 40 1 0
BITMAP
FFC000003FE0
FFE000007FE0
3FE000007FE0
0FF00000FF00
0FF00000FF00
0FF00000FF00
0FF80001FF00
0FF80001DF00
0F7C0003DF00
0F7C0003DF00
0F3C00039F00
0F3E00079F00
0F3E00071F00
0F1F000F1F00
0F1F000F1F00
0F0F001E1F00
0F0F801E1F00
0F0F801C1F00
0F07C03C1F00
0F07C0381F00
0F03E0781F00
0F03E0701F00
0F01F0F01F00
0F01F0F01F00
0F01F1E01F00
0F00F9E01F00
0E00FBC01F00
0E007FC01F00
0E007F801F00
0E003F801F00
0E003F001F00
0E001F001F00
1E001E001F00
1E000E001F00
1E0004001F00
1E0000001F00
1F0000001F80
7FC000007FC0
FFE00000FFE0
FFE00000FFE0
ENDCHAR
STARTCHAR 004E
ENCODING 78
SWIDTH 720 0
DWIDTH 40 0
BBX 39 40 0 0
BITMAP
FFC00007FE
FFE00007FE
3FF00001FC
0FF80000F0
0FFC0000F0
07FE0000F0
077E0000F0
073F0000F0
071F8000F0
070FC000F0
0707E000F0
0707E000F0
0703F000F0
0701F800F0
0700FC00F0
07007C00F0
07007E00F0
07003F00F0
07001F80F0
07000F80F0
07000FC0F0
070007E0F0
070003F0F0
070001F0F0
070001F8F0
070000FCF0
0700007CF0
0700007EF0
0700003FF0
0700001FF0
0700001FF0
0700000FF0
07000007F0
07000007F0
0F000003F0
0F800001F0
0F800001F0
3FE00000F0
7FF8000070
7FF8000070
ENDCHAR
STARTCHAR 004F
ENCODING 79
SWIDTH 756 0
DWIDTH 42 0
BBX 39 42 2 -1
BITMAP
0001FF0000
000FFFE000
003FFFF800
00FF01FE00
01F8007F00
03F0001F80
07C0000FC0
0FC00007E0
1F800003E0
1F000003F0
3F000001F0
3E000001F8
7E000000F8
7E000000FC
7C000000FC
FC0000007C
FC0000007C
FC0000007C
FC0000007E
FC0000007E
FC0000007E
FC0000007E
FC0000007E
FC0000007E
FC0000007E
FC0000007C
FC0000007C
7C000000FC
7E000000FC
7E000000F8
3E000001F8
3F000001F8
1F000001F0
1F800003E0
0F800007E0
07C0000FC0
03E0001F80
01F8003F00
00FE01FE00
007FFFF800
001FFFE000
0003FF8000
ENDCHAR
STARTCHAR 0050
ENCODING 80
SWIDTH 594 0
DWIDTH 33 0
BBX 31 40 2 0
BITMAP
FFFFF800
FFFFFF80
7FFFFFE0
3FC01FF0
1F8003F8
1F0001FC
1F0000FC
1F00007C
1F00007E
1F00007E
1F00007E
1F00007E
1F00007E
1F00007C
1F0000FC
1F0000FC
1F0001F8
1F0003F0
1F0007E0
1F003FC0
1F01FF80
1FFFFE00
1FFFF000
1FFF8000
1F000000
1F000000
1F000000
1F000000
1F000000
1F000000
1F000000
1F000000
1F000000
1F000000
1F000000
1F000000
3F800000
7FE00000
FFF00000
FFF00000
ENDCHAR
STARTCHAR 0051
ENCODING 81
SWIDTH 756 0
DWIDTH 42 0
BBX 39 49 2 -8
BITMAP
0001FF0000
000FFFE000
003FFFF800
00FF01FE00
01F8007F00
03F0001F80
07C0000FC0
0FC00007E0
1F800003E0
1F000003F0
3F000001F0
3E000001F8
7E000000F8
7E000000FC
7C000000FC
FC0000007C
FC0000007C
FC0000007C
FC0000007E
FC0000007E
FC0000007E
FC0000007E
FC0000007E
FC0000007E
FC0000007E
FC0000007C
FC0000007C
7C000000FC
7E000000FC
7E000000F8
3E000001F8
3F001801F8
1F001803F0
1F801803E0
0FC01C07E0
07C01C0FC0
07E01C1F80
01F81C3F00
00FE0FFE00
007FFFF800
001FFFE000
0003FF8000
000003E000
000001F000
000000FFF8
0000007FFC
0000003FFC
0000000FFC
00000003F8
ENDCHAR
STARTCHAR 0052
ENCODING 82
SWIDTH 630 0
DWIDTH 35 0
BBX 34 40 2 0
BITMAP
FFFFFE0000
FFFFFFE000
7FFFFFF000
3F800FF800
1F0001FC00
1F0000FE00
1F00007E00
1F00007E00
1F00003E00
1F00003E00
1F00003E00
1F00007E00
1F00007E00
1F0000FC00
1F0001FC00
1F0003F800
1F000FF000
1F003FE000
1F03FF8000
1FFFFE0000
1FFFFE0000
1FFF7E0000
1FC03F0000
1F001F8000
1F000F8000
1F000FC000
1F0007C000
1F0003E000
1F0003E000
1F0001F000
1F0001F000
1F0000F800
1F0000F800
1F00007C00
1F00007C00
1F00007E00
3F80007F00
7FE001FF80
FFF003FFC0
FFE003FFC0
ENDCHAR
STARTCHAR 0053
ENCODING 83
SWIDTH 576 0
DWIDTH 32 0
BBX 30 42 1 -1
BITMAP
003FF000
00FFFE00
03FFFF80
07C03FC0
0F000FC0
1E0007C0
1E0003C0
3C0001C0
3C0000C0
3C000000
7C000000
7C000000
7C000000
3E000000
3F000000
3FC00000
1FF00000
1FFF0000
0FFFF800
07FFFF00
01FFFFC0
003FFFE0
0003FFF0
00001FF0
000007F8
000001F8
000000F8
00000078
0000007C
0000007C
C0000078
E0000078
F0000078
F0000078
F80000F0
7C0001F0
3E0003E0
3F0007C0
1FE03F80
07FFFF00
03FFFC00
007FF000
ENDCHAR
STARTCHAR 0054
ENCODING 84
SWIDTH 594 0
DWIDTH 33 0
BBX 33 40 0 0
BITMAP
7FFFFFFF00
7FFFFFFF00
7FFFFFFF00
FE03E03F80
F803E00F80
F003E00780
E003E00380
0003E00000
0003E00000
0003E00000
0003E00000
0003E00000
0003E00000
0003E00000
0003E00000
0003E00000
0003E00000
0003E00000
0003E00000
0003E00000
0003E00000
0003E00000
0003E00000
0003E00000
0003E00000
0003E00000
0003E00000
0003E00000
0003E00000
0003E00000
0003E00000
0003E00000
0003E00000
0003E00000
0003E00000
0003E00000
0003E00000
000FF80000
001FFC0000
001FFC0000
ENDCHAR
STARTCHAR 0055
ENCODING 85
SWIDTH 702 0
DWIDTH 39 0
BBX 37 41 1 -1
BITMAP
7FF0003FF0
FFF0003FF8
7FE0001FF0
1FC00007C0
1F800007C0
1F800003C0
1F000003C0
1F000003C0
1F000003C0
1F000003C0
1F000003C0
1F000003C0
1F000003C0
1F000003C0
1F000003C0
1F000003C0
1F000003C0
1E000003C0
1E000003C0
1E000001C0
1E000001C0
1E000001E0
1E000001E0
1E000001E0
1E000003E0
1E000003C0
1F000003C0
1F000003C0
1F000003C0
1F000003C0
1F000003C0
0F80000780
0F80000780
0FC0000F80
07C0001F00
07F0003E00
03F8007E00
01FF03FC00
00FFFFF000
003FFFE000
000FFF0000
ENDCHAR
STARTCHAR 0056
ENCODING 86
SWIDTH 648 0
DWIDTH 36 0
BBX 36 41 0 -1
BITMAP
FFC0003FF0
FFC0003FF0
7F80000FE0
7F000007E0
3F000003C0
3E000003C0
3F000003C0
1F00000780
1F00000780
1F00000780
1F00000780
0F80000F00
0F80000F00
0F80000F00
07C0001E00
07C0001E00
07C0001E00
03E0003C00
03E0003C00
03E0003C00
01F0007800
01F0007800
01F0007000
00F800F000
00F800F000
007C01E000
007C01E000
007E03C000
003E03C000
003F07C000
001F078000
001F8F8000
000F8F0000
000FDF0000
0007DE0000
0007FE0000
0003FC0000
0003F80000
0001F80000
0000F00000
0000600000
ENDCHAR
STARTCHAR 0057
ENCODING 87
SWIDTH 918 0
DWIDTH 51 0
BBX 51 41 0 -1
BITMAP
FFE007FE007FE0
FFE007FE007FE0
7F8003FC003FC0
3F0001F8000F80
3F0000F0000780
1E0000F0000700
1F0000F0000700
1F0001F0000700
1F0001F8000F00
1F0001F8000F00
0F0001F8000E00
0F0001F8000E00
0F8003F8000E00
0F8003FC001E00
0F8003FC001E00
078003FC001C00
07C007BE001C00
07C0073E003C00
07C0073E003C00
03C00F1E003800
03E00F1F003800
03E00E1F007800
03E01E0F807800
01F01E0F807000
01F01C0F80F000
01F03C07C0F000
00F03C07C0E000
00F87807E1E000
00F87803E1E000
00F87803E1C000
007CF001F3C000
007CF001F3C000
007FE001FB8000
003FE000FF8000
003FE000FF8000
003FC0007F0000
001FC0007F0000
001F80003F0000
000F80003E0000
000F00001E0000
000600000C0000
ENDCHAR
STARTCHAR 0058
ENCODING 88
SWIDTH 648 0
DWIDTH 36 0
BBX 36 40 1 0
BITMAP
FFE001FF80
FFE001FF80
7FC0007F00
1F80007E00
1F80007C00
0FC0007800
07C0007000
07E000F000
03E001E000
03F001C000
01F803C000
00F8078000
00FC070000
007E0E0000
003F1E0000
001FBC0000
001FF80000
000FF00000
0007F00000
0003F00000
0003F80000
0007FC0000
000F7E0000
000F7F0000
001E3F0000
003C1F8000
00380FC000
007807E000
00F003E000
00E001F000
01E001F800
03C000F800
03C0007C00
0780007E00
0F80003E00
1F00003F00
1F00003F80
7F80003FC0
FFC000FFF0
FFC0007FE0
ENDCHAR
STARTCHAR 0059
ENCODING 89
SWIDTH 648 0
DWIDTH 36 0
BBX 37 40 -1 0
BITMAP
FFE0001FF8
FFE0000FF8
7FC00007F0
1F800003E0
0F800003E0
0FC00003C0
07C0000780
07E0000780
03E0000F00
01F0000E00
01F8001E00
00F8001C00
007C003800
007E007800
003F007000
001F00E000
001F81E000
000FC3C000
0007E38000
0003E78000
0003FF0000
0001FE0000
0000FC0000
0000FC0000
00007C0000
00007C0000
00007C0000
00007C0000
00007C0000
00007C0000
00007C0000
00007C0000
00007C0000
00007C0000
00007C0000
00007C0000
0000FC0000
0001FF0000
0003FF8000
0003FF8000
ENDCHAR
STARTCHAR 005A
ENCODING 90
SWIDTH 540 0
DWIDTH 30 0
BBX 29 40 1 0
BITMAP
1FFFFFF0
3FFFFFF0
3FFFFFF0
3F0003F0
3C0003E0
380007E0
300007C0
00000FC0
00001F80
00001F00
00003F00
00007E00
00007C00
0000FC00
0001F800
0001F000
0003E000
0007E000
000FC000
000F8000
001F0000
003F0000
007E0000
007C0000
00F80000
01F80000
03F00000
03E00000
07E00000
0FC00000
1F800000
1F800000
3F000010
3E000038
7E000078
FC0001F8
FC000FF0
FFFFFFF0
FFFFFFF0
FFFFFFF0
ENDCHAR
STARTCHAR 005B
ENCODING 91
SWIDTH 324 0
DWIDTH 18 0
BBX 10 48 5 -8
BITMAP
FFC0
FFC0
FFC0
F000
F000
F000
F000
F000
F000
F000
F000
F000
F000
F000
F000
F000
F000
F000
F000
F000
F000
F000
F000
F000
F000
F000
F000
F000
F000
F000
F000
F000
F000
F000
F000
F000
F000
F000
F000
F000
F000
F000
F000
F000
F000
FFC0
FFC0
FFC0
ENDCHAR
STARTCHAR 005C
ENCODING 92
SWIDTH 252 0
DWIDTH 14 0
BBX 16 46 -1 -5
BITMAP
C000
C000
E000
E000
6000
7000
7000
3000
3000
3800
1800
1800
1C00
0C00
0C00
0E00
0600
0600
0700
0300
0300
0380
0380
0180
0180
01C0
00C0
00C0
00E0
0060
0060
0070
0030
0030
0038
0018
0018
001C
001C
000C
000C
000E
0006
0006
0007
0003
ENDCHAR
STARTCHAR 005D
ENCODING 93
SWIDTH 324 0
DWIDTH 18 0
BBX 10 48 3 -8
BITMAP
FFC0
FFC0
FFC0
03C0
03C0
03C0
03C0
03C0
03C0
03C0
03C0
03C0
03C0
03C0
03C0
03C0
03C0
03C0
03C0
03C0
03C0
03C0
03C0
03C0
03C0
03C0
03C0
03C0
03C0
03C0
03C0
03C0
03C0
03C0
03C0
03C0
03C0
03C0
03C0
03C0
03C0
03C0
03C0
03C0
03C0
7FC0
FFC0
FFC0
ENDCHAR
STARTCHAR 005E
ENCODING 94
SWIDTH 990 0
DWIDTH 55 0
BBX 33 16 11 24
BITMAP
0003E00000
0007F00000
000FF80000
001FFC0000
003F3E0000
003E1F0000
007C0F8000
00F007C000
01E003E000
03C001F000
0780007800
0F00003800
1C00001C00
3800000E00
7000000700
E000000180
ENDCHAR
STARTCHAR 005F
ENCODING 95
SWIDTH 486 0
DWIDTH 27 0
BBX 28 3 0 -13
BITMAP
FFFFFFF0
FFFFFFF0
FFFFFFF0
ENDCHAR
STARTCHAR 0060
ENCODING 96
SWIDTH 486 0
DWIDTH 27 0
BBX 13 10 6 29
BITMAP
7000
F800
FC00
7E00
1F00
0F80
03C0
01E0
0070
0018
ENDCHAR
STARTCHAR 0061
ENCODING 97
SWIDTH 648 0
DWIDTH 36 0
BBX 38 41 -1 0
BITMAP
0000300000
0000780000
0000780000
0000FC0000
0000FE0000
0001FE0000
0001FF0000
0003DF0000
0003DF8000
00078F8000
00078FC000
000F07C000
000F07E000
001E03E000
001E03E000
001C01F000
003C01F000
003801F800
007800F800
007800FC00
0070007C00
00F0007C00
00F0007E00
01E0003E00
01FFFFFE00
01FFFFFF00
03FFFFFF00
03C0001F00
0380000F80
0780000F80
0780000F80
0F000007C0
0F000007C0
0F000007C0
1F000003E0
1F000003E0
1F000003E0
3F000003F0
3F80000FF8
FFC0001FFC
7FC0000FFC
ENDCHAR
STARTCHAR 0062
ENCODING 98
SWIDTH 648 0
DWIDTH 36 0
BBX 33 40 2 0
BITMAP
FFFFFF0000
FFFFFFE000
7FFFFFF000
3F8007F800
1F0001FC00
1F0000FC00
1F00007C00
1F00007E00
1F00007E00
1F00007E00
1F00007C00
1F00007C00
1F0000FC00
1F0001F800
1F0003F000
1F000FE000
1F003F8000
1F01FF0000
1F1FFF0000
1FFFFFE000
1FFF0FF800
1FF001FC00
1F0000FE00
1F00003F00
1F00003F00
1F00001F80
1F00001F80
1F00000F80
1F00000F80
1F00000F80
1F00000F80
1F00001F80
1F00001F80
1F00003F00
1F00007F00
1F0000FE00
3FC00FFC00
7FFFFFF800
FFFFFFF000
FFFFFF8000
ENDCHAR
STARTCHAR 0063
ENCODING 99
SWIDTH 684 0
DWIDTH 38 0
BBX 36 42 2 -1
BITMAP
0001FFC000
000FFFF800
003FFFFF00
00FF00FF80
01F8003F80
03F0001FC0
07E00007C0
0FC00007C0
0F800003C0
1F000001C0
3F000001C0
3E000000C0
7E00000000
7E00000000
7C00000000
FC00000000
FC00000000
FC00000000
FC00000000
FC00000000
FC00000000
FC00000000
FC00000000
FC00000000
FC00000000
FC00000000
FC00000000
7C00000000
7E00000000
7E00000000
7E00000000
3F00000020
3F80000070
1F800000E0
1FC00001E0
0FE00007C0
07F0000FC0
03FC003F80
01FFE3FE00
007FFFFC00
001FFFF000
0007FF8000
ENDCHAR
STARTCHAR 0064
ENCODING 100
SWIDTH 720 0
DWIDTH 40 0
BBX 36 40 2 0
BITMAP
FFFFF80000
FFFFFF8000
7FFFFFE000
3F800FF000
1F0001FC00
1F0000FE00
1F00003F00
1F00001F80
1F00001F80
1F00000FC0
1F000007C0
1F000007E0
1F000003E0
1F000003E0
1F000003F0
1F000003F0
1F000003F0
1F000003F0
1F000001F0
1F000001F0
1F000001F0
1F000001F0
1F000003F0
1F000003F0
1F000003F0
1F000003F0
1F000003E0
1F000007E0
1F000007E0
1F000007C0
1F00000FC0
1F00001F80
1F00003F00
1F00007F00
1F0000FE00
1F0003F800
3F801FF000
7FFFFFC000
FFFFFF0000
FFFFF00000
ENDCHAR
STARTCHAR 0065
ENCODING 101
SWIDTH 612 0
DWIDTH 34 0
BBX 31 40 2 0
BITMAP
FFFFFFF8
FFFFFFF8
7FFFFFF8
3F8001FC
1F00003C
1F00001C
1F00000C
1F000000
1F000000
1F000000
1F000000
1F000000
1F000000
1F000000
1F000000
1F000180
1F0007C0
1FFFFFC0
1FFFFFC0
1FFFFFC0
1F0001C0
1F000000
1F000000
1F000000
1F000000
1F000000
1F000000
1F000000
1F000000
1F000000
1F000000
1F000000
1F000002
1F000006
1F00000E
1F00003E
3FC001FE
7FFFFFFE
FFFFFFFE
FFFFFFFC
ENDCHAR
STARTCHAR 0066
ENCODING 102
SWIDTH 558 0
DWIDTH 31 0
BBX 30 40 1 0
BITMAP
7FFFFFF8
7FFFFFF8
3FFFFFFC
1FC001FC
0F80003C
0F80001C
0F80000C
0F800000
0F800000
0F800000
0F800000
0F800000
0F800000
0F800000
0F800000
0F800000
0F800080
0F8007C0
0FFFFFC0
0FFFFFC0
0FFFFFC0
0F8003C0
0F800080
0F800000
0F800000
0F800000
0F800000
0F800000
0F800000
0F800000
0F800000
0F800000
0F800000
0F800000
0F800000
0F800000
1FC00000
7FE00000
FFF00000
7FF00000
ENDCHAR
STARTCHAR 0067
ENCODING 103
SWIDTH 756 0
DWIDTH 42 0
BBX 38 42 2 -1
BITMAP
00007FE000
0007FFFE00
001FFFFF80
007F803FC0
00FE000FE0
01F80003E0
03F00001F0
07E00000F0
0FC00000F0
1F80000070
1F80000070
3F00000020
3F00000000
7E00000000
7E00000000
7E00000000
7C00000000
FC00000000
FC00000000
FC00000000
FC00000000
FC0000FFF8
FC0000FFF8
FC00001FF8
FC000000F8
FC000000F8
FC000000F8
7C000000F8
7E000000F8
7E000000F8
3F000000F8
3F000000F8
1F800000F8
1F800000F8
0FC00000F8
07E00001FC
03F80001F8
01FC0007F0
00FF801FE0
007FFFFF80
001FFFFC00
0001FFE000
ENDCHAR
STARTCHAR 0068
ENCODING 104
SWIDTH 756 0
DWIDTH 42 0
BBX 39 40 2 0
BITMAP
FFE0000FFE
FFE0000FFE
7FC00007FC
3F000003F0
1F000001F0
1F000001F0
1F000001F0
1F000001F0
1F000001F0
1F000001F0
1F000001F0
1F000001F0
1F000001F0
1F000001F0
1F000001F0
1F000001F0
1FFFFFFFF0
1FFFFFFFF0
1FFFFFFFF0
1FFFFFFFF0
1F000001F0
1F000001F0
1F000001F0
1F000001F0
1F000001F0
1F000001F0
1F000001F0
1F000001F0
1F000001F0
1F000001F0
1F000001F0
1F000001F0
1F000001F0
1F000001F0
1F000001F0
1F000001F0
3F800003F0
7FC00007FC
FFE0000FFE
FFE0000FFE
ENDCHAR
STARTCHAR 0069
ENCODING 105
SWIDTH 270 0
DWIDTH 15 0
BBX 11 40 2 0
BITMAP
FFE0
FFE0
7FC0
1F80
1F00
1F00
1F00
1F00
1F00
1F00
1F00
1F00
1F00
1F00
1F00
1F00
1F00
1F00
1F00
1F00
1F00
1F00
1F00
1F00
1F00
1F00
1F00
1F00
1F00
1F00
1F00
1F00
1F00
1F00
1F00
1F00
3F80
7FC0
FFE0
FFE0
ENDCHAR
STARTCHAR 006A
ENCODING 106
SWIDTH 450 0
DWIDTH 25 0
BBX 24 41 0 -1
BITMAP
000FFF
000FFF
0007FE
0001F8
0000F8
0000F8
0000F8
0000F8
0000F8
0000F8
0000F8
0000F8
0000F8
0000F8
0000F8
0000F8
0000F8
0000F8
0000F8
0000F8
0000F8
0000F8
0000F8
0000F8
0000F8
0000F8
1E00F8
3F00F8
7F00F8
FF00F8
F800F8
F000F8
E000F8
E001F0
E001F0
F001F0
F803E0
7C07E0
3FFFC0
1FFF80
07FE00
ENDCHAR
STARTCHAR 006B
ENCODING 107
SWIDTH 612 0
DWIDTH 34 0
BBX 34 40 2 0
BITMAP
FFE007FF00
FFE007FF00
7FC003FE00
3F0001F800
1F0001F000
1F0001E000
1F0003C000
1F0007C000
1F000F8000
1F000F0000
1F001E0000
1F003C0000
1F00780000
1F00F00000
1F01E00000
1F03C00000
1F07C00000
1F0FE00000
1F1FF00000
1F3DF80000
1F78FC0000
1FF07E0000
1FE07E0000
1FC03F0000
1F801F8000
1F000FC000
1F0007C000
1F0007E000
1F0003E000
1F0001F000
1F0001F800
1F0000F800
1F0000FC00
1F00007C00
1F00007E00
1F00007E00
3F80007F00
7FC000FF80
FFE001FFC0
FFE000FFC0
ENDCHAR
STARTCHAR 006C
ENCODING 108
SWIDTH 576 0
DWIDTH 32 0
BBX 31 40 2 0
BITMAP
FFE00000
FFE00000
7FC00000
3F000000
1F000000
1F000000
1F000000
1F000000
1F000000
1F000000
1F000000
1F000000
1F000000
1F000000
1F000000
1F000000
1F000000
1F000000
1F000000
1F000000
1F000000
1F000000
1F000000
1F000000
1F000000
1F000000
1F000000
1F000000
1F000000
1F000000
1F000000
1F000000
1F000000
1F000004
1F00001E
1F00007E
3FC003FE
7FFFFFFC
FFFFFFFC
FFFFFFF8
ENDCHAR
STARTCHAR 006D
ENCODING 109
SWIDTH 810 0
DWIDTH 45 0
BBX 43 40 1 0
BITMAP
FFC000003FE0
FFE000007FE0
3FE000007FE0
0FF00000FF00
0FF00000FF00
0FF00000FF00
0FF80001FF00
0FF80001DF00
0F7C0003DF00
0F7C0003DF00
0F3C00039F00
0F3E00079F00
0F3E00071F00
0F1F000F1F00
0F1F000F1F00
0F0F001E1F00
0F0F801E1F00
0F0F801C1F00
0F07C03C1F00
0F07C0381F00
0F03E0781F00
0F03E0701F00
0F01F0F01F00
0F01F0F01F00
0F01F1E01F00
0F00F9E01F00
0E00FBC01F00
0E007FC01F00
0E007F801F00
0E003F801F00
0E003F001F00
0E001F001F00
1E001E001F00
1E000E001F00
1E0004001F00
1E0000001F00
1F0000001F80
7FC000007FC0
FFE00000FFE0
FFE00000FFE0
ENDCHAR
STARTCHAR 006E
ENCODING 110
SWIDTH 720 0
DWIDTH 40 0
BBX 39 40 0 0
BITMAP
FFC00007FE
FFE00007FE
3FF00001FC
0FF80000F0
0FFC0000F0
07FE0000F0
077E0000F0
073F0000F0
071F8000F0
070FC000F0
0707E000F0
0707E000F0
0703F000F0
0701F800F0
0700FC00F0
07007C00F0
07007E00F0
07003F00F0
07001F80F0
07000F80F0
07000FC0F0
070007E0F0
070003F0F0
070001F0F0
070001F8F0
070000FCF0
0700007CF0
0700007EF0
0700003FF0
0700001FF0
0700001FF0
0700000FF0
07000007F0
07000007F0
0F000003F0
0F800001F0
0F800001F0
3FE00000F0
7FF8000070
7FF8000070
ENDCHAR
STARTCHAR 006F
ENCODING 111
SWIDTH 756 0
DWIDTH 42 0
BBX 39 42 2 -1
BITMAP
0001FF0000
000FFFE000
003FFFF800
00FF01FE00
01F8007F00
03F0001F80
07C0000FC0
0FC00007E0
1F800003E0
1F000003F0
3F000001F0
3E000001F8
7E000000F8
7E000000FC
7C000000FC
FC0000007C
FC0000007C
FC0000007C
FC0000007E
FC0000007E
FC0000007E
FC0000007E
FC0000007E
FC0000007E
FC0000007E
FC0000007C
FC0000007C
7C000000FC
7E000000FC
7E000000F8
3E000001F8
3F000001F8
1F000001F0
1F800003E0
0F800007E0
07C0000FC0
03E0001F80
01F8003F00
00FE01FE00
007FFFF800
001FFFE000
0003FF8000
ENDCHAR
STARTCHAR 0070
ENCODING 112
SWIDTH 594 0
DWIDTH 33 0
BBX 31 40 2 0
BITMAP
FFFFF800
FFFFFF80
7FFFFFE0
3FC01FF0
1F8003F8
1F0001FC
1F0000FC
1F00007C
1F00007E
1F00007E
1F00007E
1F00007E
1F00007E
1F00007C
1F0000FC
1F0000FC
1F0001F8
1F0003F0
1F0007E0
1F003FC0
1F01FF80
1FFFFE00
1FFFF000
1FFF8000
1F000000
1F000000
1F000000
1F000000
1F000000
1F000000
1F000000
1F000000
1F000000
1F000000
1F000000
1F000000
3F800000
7FE00000
FFF00000
FFF00000
ENDCHAR
STARTCHAR 0071
ENCODING 113
SWIDTH 756 0
DWIDTH 42 0
BBX 39 49 2 -8
BITMAP
0001FF0000
000FFFE000
003FFFF800
00FF01FE00
01F8007F00
03F0001F80
07C0000FC0
0FC00007E0
1F800003E0
1F000003F0
3F000001F0
3E000001F8
7E000000F8
7E000000FC
7C000000FC
FC0000007C
FC0000007C
FC0000007C
FC0000007E
FC0000007E
FC0000007E
FC0000007E
FC0000007E
FC0000007E
FC0000007E
FC0000007C
FC0000007C
7C000000FC
7E000000FC
7E000000F8
3E000001F8
3F001801F8
1F001803F0
1F801803E0
0FC01C07E0
07C01C0FC0
07E01C1F80
01F81C3F00
00FE0FFE00
007FFFF800
001FFFE000
0003FF8000
000003E000
000001F000
000000FFF8
0000007FFC
0000003FFC
0000000FFC
00000003F8
ENDCHAR
STARTCHAR 0072
ENCODING 114
SWIDTH 630 0
DWIDTH 35 0
BBX 34 40 2 0
BITMAP
FFFFFE0000
FFFFFFE000
7FFFFFF000
3F800FF800
1F0001FC00
1F0000FE00
1F00007E00
1F00007E00
1F00003E00
1F00003E00
1F00003E00
1F00007E00
1F00007E00
1F0000FC00
1F0001FC00
1F0003F800
1F000FF000
1F003FE000
1F03FF8000
1FFFFE0000
1FFFFE0000
1FFF7E0000
1FC03F0000
1F001F8000
1F000F8000
1F000FC000
1F0007C000
1F0003E000
1F0003E000
1F0001F000
1F0001F000
1F0000F800
1F0000F800
1F00007C00
1F00007C00
1F00007E00
3F80007F00
7FE001FF80
FFF003FFC0
FFE003FFC0
ENDCHAR
STARTCHAR 0073
ENCODING 115
SWIDTH 576 0
DWIDTH 32 0
BBX 30 42 1 -1
BITMAP
003FF000
00FFFE00
03FFFF80
07C03FC0
0F000FC0
1E0007C0
1E0003C0
3C0001C0
3C0000C0
3C000000
7C000000
7C000000
7C000000
3E000000
3F000000
3FC00000
1FF00000
1FFF0000
0FFFF800
07FFFF00
01FFFFC0
003FFFE0
0003FFF0
00001FF0
000007F8
000001F8
000000F8
00000078
0000007C
0000007C
C0000078
E0000078
F0000078
F0000078
F80000F0
7C0001F0
3E0003E0
3F0007C0
1FE03F80
07FFFF00
03FFFC00
007FF000
ENDCHAR
STARTCHAR 0074
ENCODING 116
SWIDTH 594 0
DWIDTH 33 0
BBX 33 40 0 0
BITMAP
7FFFFFFF00
7FFFFFFF00
7FFFFFFF00
FE03E03F80
F803E00F80
F003E00780
E003E00380
0003E00000
0003E00000
0003E00000
0003E00000
0003E00000
0003E00000
0003E00000
0003E00000
0003E00000
0003E00000
0003E00000
0003E00000
0003E00000
0003E00000
0003E00000
0003E00000
0003E00000
0003E00000
0003E00000
0003E00000
0003E00000
0003E00000
0003E00000
0003E00000
0003E00000
0003E00000
0003E00000
0003E00000
0003E00000
0003E00000
000FF80000
001FFC0000
001FFC0000
ENDCHAR
STARTCHAR 0075
ENCODING 117
SWIDTH 702 0
DWIDTH 39 0
BBX 37 41 1 -1
BITMAP
7FF0003FF0
FFF0003FF8
7FE0001FF0
1FC00007C0
1F800007C0
1F800003C0
1F000003C0
1F000003C0
1F000003C0
1F000003C0
1F000003C0
1F000003C0
1F000003C0
1F000003C0
1F000003C0
1F000003C0
1F000003C0
1E000003C0
1E000003C0
1E000001C0
1E000001C0
1E000001E0
1E000001E0
1E000001E0
1E000003E0
1E000003C0
1F000003C0
1F000003C0
1F000003C0
1F000003C0
1F000003C0
0F80000780
0F80000780
0FC0000F80
07C0001F00
07F0003E00
03F8007E00
01FF03FC00
00FFFFF000
003FFFE000
000FFF0000
ENDCHAR
STARTCHAR 0076
ENCODING 118
SWIDTH 648 0
DWIDTH 36 0
BBX 36 41 0 -1
BITMAP
FFC0003FF0
FFC0003FF0
7F80000FE0
7F000007E0
3F000003C0
3E000003C0
3F000003C0
1F00000780
1F00000780
1F00000780
1F00000780
0F80000F00
0F80000F00
0F80000F00
07C0001E00
07C0001E00
07C0001E00
03E0003C00
03E0003C00
03E0003C00
01F0007800
01F0007800
01F0007000
00F800F000
00F800F000
007C01E000
007C01E000
007E03C000
003E03C000
003F07C000
001F078000
001F8F8000
000F8F0000
000FDF0000
0007DE0000
0007FE0000
0003FC0000
0003F80000
0001F80000
0000F00000
0000600000
ENDCHAR
STARTCHAR 0077
ENCODING 119
SWIDTH 918 0
DWIDTH 51 0
BBX 51 41 0 -1
BITMAP
FFE007FE007FE0
FFE007FE007FE0
7F8003FC003FC0
3F0001F8000F80
3F0000F0000780
1E0000F0000700
1F0000F0000700
1F0001F0000700
1F0001F8000F00
1F0001F8000F00
0F0001F8000E00
0F0001F8000E00
0F8003F8000E00
0F8003FC001E00
0F8003FC001E00
078003FC001C00
07C007BE001C00
07C0073E003C00
07C0073E003C00
03C00F1E003800
03E00F1F003800
03E00E1F007800
03E01E0F807800
01F01E0F807000
01F01C0F80F000
01F03C07C0F000
00F03C07C0E000
00F87807E1E000
00F87803E1E000
00F87803E1C000
007CF001F3C000
007CF001F3C000
007FE001FB8000
003FE000FF8000
003FE000FF8000
003FC0007F0000
001FC0007F0000
001F80003F0000
000F80003E0000
000F00001E0000
000600000C0000
ENDCHAR
STARTCHAR 0078
ENCODING 120
SWIDTH 648 0
DWIDTH 36 0
BBX 36 40 1 0
BITMAP
FFE001FF80
FFE001FF80
7FC0007F00
1F80007E00
1F80007C00
0FC0007800
07C0007000
07E000F000
03E001E000
03F001C000
01F803C000
00F8078000
00FC070000
007E0E0000
003F1E0000
001FBC0000
001FF80000
000FF00000
0007F00000
0003F00000
0003F80000
0007FC0000
000F7E0000
000F7F0000
001E3F0000
003C1F8000
00380FC000
007807E000
00F003E000
00E001F000
01E001F800
03C000F800
03C0007C00
0780007E00
0F80003E00
1F00003F00
1F00003F80
7F80003FC0
FFC000FFF0
FFC0007FE0
ENDCHAR
STARTCHAR 0079
ENCODING 121
SWIDTH 648 0
DWIDTH 36 0
BBX 37 40 -1 0
BITMAP
FFE0001FF8
FFE0000FF8
7FC00007F0
1F800003E0
0F800003E0
0FC00003C0
07C0000780
07E0000780
03E0000F00
01F0000E00
01F8001E00
00F8001C00
007C003800
007E007800
003F007000
001F00E000
001F81E000
000FC3C000
0007E38000
0003E78000
0003FF0000
0001FE0000
0000FC0000
0000FC0000
00007C0000
00007C0000
00007C0000
00007C0000
00007C0000
00007C0000
00007C0000
00007C0000
00007C0000
00007C0000
00007C0000
00007C0000
0000FC0000
0001FF0000
0003FF8000
0003FF8000
ENDCHAR
STARTCHAR 007A
ENCODING 122
SWIDTH 540 0
DWIDTH 30 0
BBX 29 40 1 0
BITMAP
1FFFFFF0
3FFFFFF0
3FFFFFF0
3F0003F0
3C0003E0
380007E0
300007C0
00000FC0
00001F80
00001F00
00003F00
00007E00
00007C00
0000FC00
0001F800
0001F000
0003E000
0007E000
000FC000
000F8000
001F0000
003F0000
007E0000
007C0000
00F80000
01F80000
03F00000
03E00000
07E00000
0FC00000
1F800000
1F800000
3F000010
3E000038
7E000078
FC0001F8
FC000FF0
FFFFFFF0
FFFFFFF0
FFFFFFF0
ENDCHAR
STARTCHAR 007B
ENCODING 123
SWIDTH 486 0
DWIDTH 27 0
BBX 18 48 5 -7
BITMAP
000FC0
003F00
007800
00F000
00F000
00F000
00E000
01E000
01E000
01E000
01E000
01E000
01E000
01E000
01E000
01E000
01E000
01E000
01E000
01C000
03C000
078000
3E0000
F80000
FC0000
0F0000
038000
03C000
01C000
01E000
01E000
01E000
01E000
01E000
01E000
01E000
01E000
01E000
01E000
01E000
00E000
00E000
00F000
00F000
007000
007C00
001FC0
0000C0
ENDCHAR
STARTCHAR 007C
ENCODING 124
SWIDTH 486 0
DWIDTH 27 0
BBX 4 55 12 -13
BITMAP
F0
F0
F0
F0
F0
F0
F0
F0
F0
F0
F0
F0
F0
F0
F0
F0
F0
F0
F0
F0
F0
F0
F0
F0
F0
F0
F0
F0
F0
F0
F0
F0
F0
F0
F0
F0
F0
F0
F0
F0
F0
F0
F0
F0
F0
F0
F0
F0
F0
F0
F0
F0
F0
F0
F0
ENDCHAR
STARTCHAR 007D
ENCODING 125
SWIDTH 486 0
DWIDTH 27 0
BBX 18 48 5 -7
BITMAP
F80000
3F0000
078000
038000
03C000
03C000
03C000
03C000
03C000
03C000
03C000
03C000
03C000
01C000
01C000
01C000
01C000
01E000
01E000
01E000
00F000
007800
003E00
0007C0
000FC0
003C00
00F000
00E000
01E000
01E000
01C000
01C000
01C000
01C000
03C000
03C000
03C000
03C000
03C000
03C000
03C000
03C000
03C000
03C000
078000
0F0000
FE0000
C00000
ENDCHAR
STARTCHAR 007E
ENCODING 126
SWIDTH 828 0
DWIDTH 46 0
BBX 37 8 5 12
BITMAP
0000000008
01FC000018
0FFFC00078
3FFFF001F8
FF07FF8FF0
F8007FFFC0
E0000FFF00
800001F800
ENDCHAR
STARTCHAR 0080
ENCODING 128
SWIDTH 648 0
DWIDTH 36 0
BBX 38 54 -1 0
BITMAP
0006000000
000F000000
000F800000
000FC00000
0003E00000
0001F00000
0000780000
00003C0000
00000E0000
0000030000
0000000000
0000000000
0000000000
0000300000
0000780000
0000780000
0000FC0000
0000FE0000
0001FE0000
0001FF0000
0003DF0000
0003DF8000
00078F8000
00078FC000
000F07C000
000F07E000
001E03E000
001E03E000
001C01F000
003C01F000
003801F800
007800F800
007800FC00
0070007C00
00F0007C00
00F0007E00
01E0003E00
01FFFFFE00
01FFFFFF00
03FFFFFF00
03C0001F00
0380000F80
0780000F80
0780000F80
0F000007C0
0F000007C0
0F000007C0
1F000003E0
1F000003E0
1F000003E0
3F000003F0
3F80000FF8
FFC0001FFC
7FC0000FFC
ENDCHAR
STARTCHAR 0081
ENCODING 129
SWIDTH 648 0
DWIDTH 36 0
BBX 38 56 -1 0
BITMAP
00007C0000
0000820000
0001C30000
0000030000
0000030000
0000030000
0000060000
00000C0000
0000380000
0000200000
0000200000
0000200000
0000000000
0000000000
0000000000
0000300000
0000780000
0000780000
0000FC0000
0000FE0000
0001FE0000
0001FF0000
0003DF0000
0003DF8000
00078F8000
00078FC000
000F07C000
000F07E000
001E03E000
001E03E000
001C01F000
003C01F000
003801F800
007800F800
007800FC00
0070007C00
00F0007C00
00F0007E00
01E0003E00
01FFFFFE00
01FFFFFF00
03FFFFFF00
03C0001F00
0380000F80
0780000F80
0780000F80
0F000007C0
0F000007C0
0F000007C0
1F000003E0
1F000003E0
1F000003E0
3F000003F0
3F80000FF8
FFC0001FFC
7FC0000FFC
ENDCHAR
STARTCHAR 008D
ENCODING 141
SWIDTH 648 0
DWIDTH 36 0
BBX 38 61 -1 0
BITMAP
0000003800
0000007800
000000F800
000001F800
000003E000
000007C000
00000F0000
00001C0000
0000380000
0000600000
001800C000
0008008000
000C018000
000F078000
0007FF0000
0003FE0000
0000F80000
0000000000
0000000000
0000000000
0000300000
0000780000
0000780000
0000FC0000
0000FE0000
0001FE0000
0001FF0000
0003DF0000
0003DF8000
00078F8000
00078FC000
000F07C000
000F07E000
001E03E000
001E03E000
001C01F000
003C01F000
003801F800
007800F800
007800FC00
0070007C00
00F0007C00
00F0007E00
01E0003E00
01FFFFFE00
01FFFFFF00
03FFFFFF00
03C0001F00
0380000F80
0780000F80
0780000F80
0F000007C0
0F000007C0
0F000007C0
1F000003E0
1F000003E0
1F000003E0
3F000003F0
3F80000FF8
FFC0001FFC
7FC0000FFC
ENDCHAR
STARTCHAR 008E
ENCODING 142
SWIDTH 648 0
DWIDTH 36 0
BBX 38 61 -1 0
BITMAP
00F0000000
00F8000000
00FC000000
007E000000
001F000000
000F800000
0003C00000
0000E00000
0000700000
0000000000
001800C000
0008008000
000C018000
000F078000
0007FF0000
0003FE0000
0000F80000
0000000000
0000000000
0000000000
0000300000
0000780000
0000780000
0000FC0000
0000FE0000
0001FE0000
0001FF0000
0003DF0000
0003DF8000
00078F8000
00078FC000
000F07C000
000F07E000
001E03E000
001E03E000
001C01F000
003C01F000
003801F800
007800F800
007800FC00
0070007C00
00F0007C00
00F0007E00
01E0003E00
01FFFFFE00
01FFFFFF00
03FFFFFF00
03C0001F00
0380000F80
0780000F80
0780000F80
0F000007C0
0F000007C0
0F000007C0
1F000003E0
1F000003E0
1F000003E0
3F000003F0
3F80000FF8
FFC0001FFC
7FC0000FFC
ENDCHAR
STARTCHAR 008F
ENCODING 143
SWIDTH 648 0
DWIDTH 36 0
BBX 38 63 -1 0
BITMAP
00007C0000
0000860000
0001830000
0000830000
0000030000
0000030000
0000060000
00000E0000
0000380000
0000200000
0000200000
0000200000
001800C000
0008008000
000C018000
000F078000
0007FF0000
0003FE0000
0000F80000
0000000000
0000000000
0000000000
0000300000
0000780000
0000780000
0000FC0000
0000FE0000
0001FE0000
0001FF0000
0003DF0000
0003DF8000
00078F8000
00078FC000
000F07C000
000F07E000
001E03E000
001E03E000
001C01F000
003C01F000
003801F800
007800F800
007800FC00
0070007C00
00F0007C00
00F0007E00
01E0003E00
01FFFFFE00
01FFFFFF00
03FFFFFF00
03C0001F00
0380000F80
0780000F80
0780000F80
0F000007C0
0F000007C0
0F000007C0
1F000003E0
1F000003E0
1F000003E0
3F000003F0
3F80000FF8
FFC0001FFC
7FC0000FFC
ENDCHAR
STARTCHAR 0090
ENCODING 144
SWIDTH 612 0
DWIDTH 34 0
BBX 34 60 2 0
BITMAP
0000000380
00000007C0
0000000F80
0000001F00
0000003E00
0000007800
0003C0F000
0003C1C000
0007E30000
000FF00000
000FF00000
001E780000
003C1C0000
00300C0000
0060060000
00C0030000
0000000000
0000000000
0000000000
0000000000
FFFFFFF800
FFFFFFF800
7FFFFFF800
3F8001FC00
1F00003C00
1F00001C00
1F00000C00
1F00000000
1F00000000
1F00000000
1F00000000
1F00000000
1F00000000
1F00000000
1F00000000
1F00018000
1F0007C000
1FFFFFC000
1FFFFFC000
1FFFFFC000
1F0001C000
1F00000000
1F00000000
1F00000000
1F00000000
1F00000000
1F00000000
1F00000000
1F00000000
1F00000000
1F00000000
1F00000000
1F00000200
1F00000600
1F00000E00
1F00003E00
3FC001FE00
7FFFFFFE00
FFFFFFFE00
FFFFFFFC00
ENDCHAR
STARTCHAR 009D
ENCODING 157
SWIDTH 756 0
DWIDTH 42 0
BBX 39 58 2 -1
BITMAP
0000003800
0000007800
000000F800
000001F000
000003E000
0000078000
00000E0000
00001C03E0
0000300630
0000600618
0000000018
0000000018
0000000018
0000000030
00000000E0
00000003C0
0001FF0600
000FFFE400
003FFFFC00
00FF01FE00
01F8007F00
03F0001F80
07C0000FC0
0FC00007E0
1F800003E0
1F000003F0
3F000001F0
3E000001F8
7E000000F8
7E000000FC
7C000000FC
FC0000007C
FC0000007C
FC0000007C
FC0000007E
FC0000007E
FC0000007E
FC0000007E
FC0000007E
FC0000007E
FC0000007E
FC0000007C
FC0000007C
7C000000FC
7E000000FC
7E000000F8
3E000001F8
3F000001F8
1F000001F0
1F800003E0
0F800007E0
07C0000FC0
03E0001F80
01F8003F00
00FE01FE00
007FFFF800
001FFFE000
0003FF8000
ENDCHAR
STARTCHAR 009E
ENCODING 158
SWIDTH 756 0
DWIDTH 42 0
BBX 39 58 2 -1
BITMAP
001E000000
001F000000
001F800000
000FC00000
0003E00000
0001F00000
0000780000
00001C03E0
00000E0630
0000000618
0000000018
0000000018
0000000018
0000000030
00000000E0
00000003C0
0001FF0600
000FFFE400
003FFFFC00
00FF01FE00
01F8007F00
03F0001F80
07C0000FC0
0FC00007E0
1F800003E0
1F000003F0
3F000001F0
3E000001F8
7E000000F8
7E000000FC
7C000000FC
FC0000007C
FC0000007C
FC0000007C
FC0000007E
FC0000007E
FC0000007E
FC0000007E
FC0000007E
FC0000007E
FC0000007E
FC0000007C
FC0000007C
7C000000FC
7E000000FC
7E000000F8
3E000001F8
3F000001F8
1F000001F0
1F800003E0
0F800007E0
07C0000FC0
03E0001F80
01F8003F00
00FE01FE00
007FFFF800
001FFFE000
0003FF8000
ENDCHAR
STARTCHAR 00A0
ENCODING 160
SWIDTH 540 0
DWIDTH 30 0
BBX 0 0 0 0
BITMAP
ENDCHAR
STARTCHAR 00A1
ENCODING 161
SWIDTH 648 0
DWIDTH 36 0
BBX 38 61 -1 0
BITMAP
0000003800
0000007800
000000F800
000001F800
000003E000
000007C000
00000F0000
00001C0000
0000380000
0000600000
001800C000
0008008000
000C018000
000F078000
0007FF0000
0003FE0000
0000F80000
0000000000
0000000000
0000000000
0000300000
0000780000
0000780000
0000FC0000
0000FE0000
0001FE0000
0001FF0000
0003DF0000
0003DF8000
00078F8000
00078FC000
000F07C000
000F07E000
001E03E000
001E03E000
001C01F000
003C01F000
003801F800
007800F800
007800FC00
0070007C00
00F0007C00
00F0007E00
01E0003E00
01FFFFFE00
01FFFFFF00
03FFFFFF00
03C0001F00
0380000F80
0780000F80
0780000F80
0F000007C0
0F000007C0
0F000007C0
1F000003E0
1F000003E0
1F000003E0
3F000003F0
3F80000FF8
FFC0001FFC
7FC0000FFC
ENDCHAR
STARTCHAR 00A2
ENCODING 162
SWIDTH 648 0
DWIDTH 36 0
BBX 38 61 -1 0
BITMAP
00F0000000
00F8000000
00FC000000
007E000000
001F000000
000F800000
0003C00000
0000E00000
0000700000
0000000000
001800C000
0008008000
000C018000
000F078000
0007FF0000
0003FE0000
0000F80000
0000000000
0000000000
0000000000
0000300000
0000780000
0000780000
0000FC0000
0000FE0000
0001FE0000
0001FF0000
0003DF0000
0003DF8000
00078F8000
00078FC000
000F07C000
000F07E000
001E03E000
001E03E000
001C01F000
003C01F000
003801F800
007800F800
007800FC00
0070007C00
00F0007C00
00F0007E00
01E0003E00
01FFFFFE00
01FFFFFF00
03FFFFFF00
03C0001F00
0380000F80
0780000F80
0780000F80
0F000007C0
0F000007C0
0F000007C0
1F000003E0
1F000003E0
1F000003E0
3F000003F0
3F80000FF8
FFC0001FFC
7FC0000FFC
ENDCHAR
STARTCHAR 00A3
ENCODING 163
SWIDTH 648 0
DWIDTH 36 0
BBX 38 63 -1 0
BITMAP
00007C0000
0000860000
0001830000
0000830000
0000030000
0000030000
0000060000
00000E0000
0000380000
0000200000
0000200000
0000200000
001800C000
0008008000
000C018000
000F078000
0007FF0000
0003FE0000
0000F80000
0000000000
0000000000
0000000000
0000300000
0000780000
0000780000
0000FC0000
0000FE0000
0001FE0000
0001FF0000
0003DF0000
0003DF8000
00078F8000
00078FC000
000F07C000
000F07E000
001E03E000
001E03E000
001C01F000
003C01F000
003801F800
007800F800
007800FC00
0070007C00
00F0007C00
00F0007E00
01E0003E00
01FFFFFE00
01FFFFFF00
03FFFFFF00
03C0001F00
0380000F80
0780000F80
0780000F80
0F000007C0
0F000007C0
0F000007C0
1F000003E0
1F000003E0
1F000003E0
3F000003F0
3F80000FF8
FFC0001FFC
7FC0000FFC
ENDCHAR
STARTCHAR 00A4
ENCODING 164
SWIDTH 648 0
DWIDTH 36 0
BBX 38 61 -1 0
BITMAP
0000002000
0000C06000
0003FCC000
0007FFC000
000FFF8000
000C1F0000
0008000000
0000000000
0000000000
0000000000
001800C000
0008008000
000C018000
000F078000
0007FF0000
0003FE0000
0000F80000
0000000000
0000000000
0000000000
0000300000
0000780000
0000780000
0000FC0000
0000FE0000
0001FE0000
0001FF0000
0003DF0000
0003DF8000
00078F8000
00078FC000
000F07C000
000F07E000
001E03E000
001E03E000
001C01F000
003C01F000
003801F800
007800F800
007800FC00
0070007C00
00F0007C00
00F0007E00
01E0003E00
01FFFFFE00
01FFFFFF00
03FFFFFF00
03C0001F00
0380000F80
0780000F80
0780000F80
0F000007C0
0F000007C0
0F000007C0
1F000003E0
1F000003E0
1F000003E0
3F000003F0
3F80000FF8
FFC0001FFC
7FC0000FFC
ENDCHAR
STARTCHAR 00A5
ENCODING 165
SWIDTH 648 0
DWIDTH 36 0
BBX 38 60 -1 -9
BITMAP
001800C000
0008008000
000C018000
000F078000
0007FF0000
0003FE0000
0000F80000
0000000000
0000000000
0000000000
0000300000
0000780000
0000780000
0000FC0000
0000FE0000
0001FE0000
0001FF0000
0003DF0000
0003DF8000
00078F8000
00078FC000
000F07C000
000F07E000
001E03E000
001E03E000
001C01F000
003C01F000
003801F800
007800F800
007800FC00
0070007C00
00F0007C00
00F0007E00
01E0003E00
01FFFFFE00
01FFFFFF00
03FFFFFF00
03C0001F00
0380000F80
0780000F80
0780000F80
0F000007C0
0F000007C0
0F000007C0
1F000003E0
1F000003E0
1F000003E0
3F000003F0
3F80000FF8
FFC0001FFC
7FC0000FFC
0000000000
0000000000
0000000000
0001F00000
0001F00000
0001F00000
0001F00000
0001F00000
0000400000
ENDCHAR
STARTCHAR 00A6
ENCODING 166
SWIDTH 756 0
DWIDTH 42 0
BBX 39 62 2 -1
BITMAP
0000002000
0000006000
0003FCE000
0007FFC000
000FFF8000
000C1F0000
0008000000
0000000000
0000000000
0000000000
0000000000
00000003E0
0000000630
0000000618
0000000018
0000000018
0000000018
0000000030
00000000E0
00000003C0
0001FF0600
000FFFE400
003FFFFC00
00FF01FE00
01F8007F00
03F0001F80
07C0000FC0
0FC00007E0
1F800003E0
1F000003F0
3F000001F0
3E000001F8
7E000000F8
7E000000FC
7C000000FC
FC0000007C
FC0000007C
FC0000007C
FC0000007E
FC0000007E
FC0000007E
FC0000007E
FC0000007E
FC0000007E
FC0000007E
FC0000007C
FC0000007C
7C000000FC
7E000000FC
7E000000F8
3E000001F8
3F000001F8
1F000001F0
1F800003E0
0F800007E0
07C0000FC0
03E0001F80
01F8003F00
00FE01FE00
007FFFF800
001FFFE000
0003FF8000
ENDCHAR
STARTCHAR 00A7
ENCODING 167
SWIDTH 756 0
DWIDTH 42 0
BBX 39 58 2 -1
BITMAP
0000003800
0000007800
000000F800
000001F000
000003E000
0000078000
00000E0000
00001C03E0
0000300630
0000600618
0000000018
0000000018
0000000018
0000000030
00000000E0
00000003C0
0001FF0600
000FFFE400
003FFFFC00
00FF01FE00
01F8007F00
03F0001F80
07C0000FC0
0FC00007E0
1F800003E0
1F000003F0
3F000001F0
3E000001F8
7E000000F8
7E000000FC
7C000000FC
FC0000007C
FC0000007C
FC0000007C
FC0000007E
FC0000007E
FC0000007E
FC0000007E
FC0000007E
FC0000007E
FC0000007E
FC0000007C
FC0000007C
7C000000FC
7E000000FC
7E000000F8
3E000001F8
3F000001F8
1F000001F0
1F800003E0
0F800007E0
07C0000FC0
03E0001F80
01F8003F00
00FE01FE00
007FFFF800
001FFFE000
0003FF8000
ENDCHAR
STARTCHAR 00A8
ENCODING 168
SWIDTH 702 0
DWIDTH 39 0
BBX 37 55 1 -1
BITMAP
0006000000
000F000000
000F800000
000FC00000
0003E00000
0001F00000
0000780000
00003C0000
00000E0000
0000030000
0000000000
0000000000
0000000000
0000000000
7FF0003FF0
FFF0003FF8
7FE0001FF0
1FC00007C0
1F800007C0
1F800003C0
1F000003C0
1F000003C0
1F000003C0
1F000003C0
1F000003C0
1F000003C0
1F000003C0
1F000003C0
1F000003C0
1F000003C0
1F000003C0
1E000003C0
1E000003C0
1E000001C0
1E000001C0
1E000001E0
1E000001E0
1E000001E0
1E000003E0
1E000003C0
1F000003C0
1F000003C0
1F000003C0
1F000003C0
1F000003C0
0F80000780
0F80000780
0FC0000F80
07C0001F00
07F0003E00
03F8007E00
01FF03FC00
00FFFFF000
003FFFE000
000FFF0000
ENDCHAR
STARTCHAR 00A9
ENCODING 169
SWIDTH 756 0
DWIDTH 42 0
BBX 39 58 2 -1
BITMAP
001E000000
001F000000
001F800000
000FC00000
0003E00000
0001F00000
0000780000
00001C03E0
00000E0630
0000000618
0000000018
0000000018
0000000018
0000000030
00000000E0
00000003C0
0001FF0600
000FFFE400
003FFFFC00
00FF01FE00
01F8007F00
03F0001F80
07C0000FC0
0FC00007E0
1F800003E0
1F000003F0
3F000001F0
3E000001F8
7E000000F8
7E000000FC
7C000000FC
FC0000007C
FC0000007C
FC0000007C
FC0000007E
FC0000007E
FC0000007E
FC0000007E
FC0000007E
FC0000007E
FC0000007E
FC0000007C
FC0000007C
7C000000FC
7E000000FC
7E000000F8
3E000001F8
3F000001F8
1F000001F0
1F800003E0
0F800007E0
07C0000FC0
03E0001F80
01F8003F00
00FE01FE00
007FFFF800
001FFFE000
0003FF8000
ENDCHAR
STARTCHAR 00AA
ENCODING 170
SWIDTH 756 0
DWIDTH 42 0
BBX 39 61 2 -1
BITMAP
00003C0000
0000630000
0000C10000
0000C18000
0000018000
0000018000
0000030000
0000070000
00000E0000
0000180000
00001003E0
0000100630
0000000618
0000000018
0000000018
0000000018
0000000030
00000000E0
00000003C0
0001FF0600
000FFFE400
003FFFFC00
00FF01FE00
01F8007F00
03F0001F80
07C0000FC0
0FC00007E0
1F800003E0
1F000003F0
3F000001F0
3E000001F8
7E000000F8
7E000000FC
7C000000FC
FC0000007C
FC0000007C
FC0000007C
FC0000007E
FC0000007E
FC0000007E
FC0000007E
FC0000007E
FC0000007E
FC0000007E
FC0000007C
FC0000007C
7C000000FC
7E000000FC
7E000000F8
3E000001F8
3F000001F8
1F000001F0
1F800003E0
0F800007E0
07C0000FC0
03E0001F80
01F8003F00
00FE01FE00
007FFFF800
001FFFE000
0003FF8000
ENDCHAR
STARTCHAR 00AB
ENCODING 171
SWIDTH 756 0
DWIDTH 42 0
BBX 39 62 2 -1
BITMAP
0000002000
0000006000
0003FCE000
0007FFC000
000FFF8000
000C1F0000
0008000000
0000000000
0000000000
0000000000
0000000000
00000003E0
0000000630
0000000618
0000000018
0000000018
0000000018
0000000030
00000000E0
00000003C0
0001FF0600
000FFFE400
003FFFFC00
00FF01FE00
01F8007F00
03F0001F80
07C0000FC0
0FC00007E0
1F800003E0
1F000003F0
3F000001F0
3E000001F8
7E000000F8
7E000000FC
7C000000FC
FC0000007C
FC0000007C
FC0000007C
FC0000007E
FC0000007E
FC0000007E
FC0000007E
FC0000007E
FC0000007E
FC0000007E
FC0000007C
FC0000007C
7C000000FC
7E000000FC
7E000000F8
3E000001F8
3F000001F8
1F000001F0
1F800003E0
0F800007E0
07C0000FC0
03E0001F80
01F8003F00
00FE01FE00
007FFFF800
001FFFE000
0003FF8000
ENDCHAR
STARTCHAR 00AC
ENCODING 172
SWIDTH 702 0
DWIDTH 39 0
BBX 37 53 1 -1
BITMAP
0000000800
0000101800
0000FF3800
0001FFF000
0003FFE000
000307C000
0002000000
0000000000
0000000000
0000000000
0000000000
0000000000
7FF0003FF0
FFF0003FF8
7FE0001FF0
1FC00007C0
1F800007C0
1F800003C0
1F000003C0
1F000003C0
1F000003C0
1F000003C0
1F000003C0
1F000003C0
1F000003C0
1F000003C0
1F000003C0
1F000003C0
1F000003C0
1E000003C0
1E000003C0
1E000001C0
1E000001C0
1E000001E0
1E000001E0
1E000001E0
1E000003E0
1E000003C0
1F000003C0
1F000003C0
1F000003C0
1F000003C0
1F000003C0
0F80000780
0F80000780
0FC0000F80
07C0001F00
07F0003E00
03F8007E00
01FF03FC00
00FFFFF000
003FFFE000
000FFF0000
ENDCHAR
STARTCHAR 00AD
ENCODING 173
SWIDTH 702 0
DWIDTH 39 0
BBX 40 59 1 -1
BITMAP
0000001000
0000007800
000000F800
000001F800
000003F000
000003C000
0000078000
00000E0000
00001C007C
0000300063
0000000041
0000000001
0000000001
0000000003
0000000003
000000000E
000000007C
0000000040
7FF0003FF0
FFF0003FF8
7FE0001FF0
1FC00007C0
1F800007C0
1F800003C0
1F000003C0
1F000003C0
1F000003C0
1F000003C0
1F000003C0
1F000003C0
1F000003C0
1F000003C0
1F000003C0
1F000003C0
1F000003C0
1E000003C0
1E000003C0
1E000001C0
1E000001C0
1E000001E0
1E000001E0
1E000001E0
1E000003E0
1E000003C0
1F000003C0
1F000003C0
1F000003C0
1F000003C0
1F000003C0
0F80000780
0F80000780
0FC0000F80
07C0001F00
07F0003E00
03F8007E00
01FF03FC00
00FFFFF000
003FFFE000
000FFF0000
ENDCHAR
STARTCHAR 00AE
ENCODING 174
SWIDTH 756 0
DWIDTH 42 0
BBX 39 60 2 -10
BITMAP
00000003E0
0000000630
0000000618
0000000018
0000000018
0000000018
0000000030
00000000E0
00000003C0
0001FF0600
000FFFE400
003FFFFC00
00FF01FE00
01F8007F00
03F0001F80
07C0000FC0
0FC00007E0
1F800003E0
1F000003F0
3F000001F0
3E000001F8
7E000000F8
7E000000FC
7C000000FC
FC0000007C
FC0000007C
FC0000007C
FC0000007E
FC0000007E
FC0000007E
FC0000007E
FC0000007E
FC0000007E
FC0000007E
FC0000007C
FC0000007C
7C000000FC
7E000000FC
7E000000F8
3E000001F8
3F000001F8
1F000001F0
1F800003E0
0F800007E0
07C0000FC0
03E0001F80
01F8003F00
00FE01FE00
007FFFF800
001FFFE000
0003FF8000
0000000000
0000000000
0000000000
00007C0000
00007C0000
00007E0000
00007C0000
00007C0000
0000100000
ENDCHAR
STARTCHAR 00AF
ENCODING 175
SWIDTH 702 0
DWIDTH 39 0
BBX 40 58 1 -1
BITMAP
000C000000
001E000000
001F000000
000F800000
0007C00000
0003E00000
0000F00000
000038007C
00001C0063
0000060041
0000000001
0000000001
0000000003
0000000003
000000000E
000000007C
0000000040
7FF0003FF0
FFF0003FF8
7FE0001FF0
1FC00007C0
1F800007C0
1F800003C0
1F000003C0
1F000003C0
1F000003C0
1F000003C0
1F000003C0
1F000003C0
1F000003C0
1F000003C0
1F000003C0
1F000003C0
1F000003C0
1E000003C0
1E000003C0
1E000001C0
1E000001C0
1E000001E0
1E000001E0
1E000001E0
1E000003E0
1E000003C0
1F000003C0
1F000003C0
1F000003C0
1F000003C0
1F000003C0
0F80000780
0F80000780
0FC0000F80
07C0001F00
07F0003E00
03F8007E00
01FF03FC00
00FFFFF000
003FFFE000
000FFF0000
ENDCHAR
STARTCHAR 00B0
ENCODING 176
SWIDTH 756 0
DWIDTH 42 0
BBX 39 63 2 -1
BITMAP
0000001F00
0000002180
0000006080
00000020C0
00000000C0
00000000C0
0000000180
0000000380
0000380E00
00007C0800
0000FC0800
0000FE0800
0001EF0000
0003C70000
0003838000
000701C000
000E00C000
000C006000
0000000000
0000000000
0000000000
0001FF0000
000FFFE000
003FFFF800
00FF01FE00
01F8007F00
03F0001F80
07C0000FC0
0FC00007E0
1F800003E0
1F000003F0
3F000001F0
3E000001F8
7E000000F8
7E000000FC
7C000000FC
FC0000007C
FC0000007C
FC0000007C
FC0000007E
FC0000007E
FC0000007E
FC0000007E
FC0000007E
FC0000007E
FC0000007E
FC0000007C
FC0000007C
7C000000FC
7E000000FC
7E000000F8
3E000001F8
3F000001F8
1F000001F0
1F800003E0
0F800007E0
07C0000FC0
03E0001F80
01F8003F00
00FE01FE00
007FFFF800
001FFFE000
0003FF8000
ENDCHAR
STARTCHAR 00B1
ENCODING 177
SWIDTH 702 0
DWIDTH 39 0
BBX 40 59 1 -1
BITMAP
00000C0000
0000330000
0000618000
0000608000
0000008000
0000008000
0000018000
0000038000
000007007C
00000C0063
0000080041
0000080001
0000000001
0000000003
0000000003
000000000E
000000007C
0000000040
7FF0003FF0
FFF0003FF8
7FE0001FF0
1FC00007C0
1F800007C0
1F800003C0
1F000003C0
1F000003C0
1F000003C0
1F000003C0
1F000003C0
1F000003C0
1F000003C0
1F000003C0
1F000003C0
1F000003C0
1F000003C0
1E000003C0
1E000003C0
1E000001C0
1E000001C0
1E000001E0
1E000001E0
1E000001E0
1E000003E0
1E000003C0
1F000003C0
1F000003C0
1F000003C0
1F000003C0
1F000003C0
0F80000780
0F80000780
0FC0000F80
07C0001F00
07F0003E00
03F8007E00
01FF03FC00
00FFFFF000
003FFFE000
000FFF0000
ENDCHAR
STARTCHAR 00B2
ENCODING 178
SWIDTH 648 0
DWIDTH 36 0
BBX 37 53 -1 0
BITMAP
003C000000
003E000000
003F000000
001F800000
0007C00000
0003E00000
0000F00000
0000380000
00001C0000
0000000000
0000000000
0000000000
0000000000
FFE0001FF8
FFE0000FF8
7FC00007F0
1F800003E0
0F800003E0
0FC00003C0
07C0000780
07E0000780
03E0000F00
01F0000E00
01F8001E00
00F8001C00
007C003800
007E007800
003F007000
001F00E000
001F81E000
000FC3C000
0007E38000
0003E78000
0003FF0000
0001FE0000
0000FC0000
0000FC0000
00007C0000
00007C0000
00007C0000
00007C0000
00007C0000
00007C0000
00007C0000
00007C0000
00007C0000
00007C0000
00007C0000
00007C0000
0000FC0000
0001FF0000
0003FF8000
0003FF8000
ENDCHAR
STARTCHAR 00B3
ENCODING 179
SWIDTH 648 0
DWIDTH 36 0
BBX 37 52 -1 0
BITMAP
0000001800
0000781800
0001FFF000
0001FFF000
00039FE000
0002018000
0002000000
0000000000
0000000000
0000000000
0000000000
0000000000
FFE0001FF8
FFE0000FF8
7FC00007F0
1F800003E0
0F800003E0
0FC00003C0
07C0000780
07E0000780
03E0000F00
01F0000E00
01F8001E00
00F8001C00
007C003800
007E007800
003F007000
001F00E000
001F81E000
000FC3C000
0007E38000
0003E78000
0003FF0000
0001FE0000
0000FC0000
0000FC0000
00007C0000
00007C0000
00007C0000
00007C0000
00007C0000
00007C0000
00007C0000
00007C0000
00007C0000
00007C0000
00007C0000
00007C0000
0000FC0000
0001FF0000
0003FF8000
0003FF8000
ENDCHAR
STARTCHAR 00B4
ENCODING 180
SWIDTH 270 0
DWIDTH 15 0
BBX 13 54 2 0
BITMAP
0030
0078
00F8
01F8
03E0
07C0
0F00
1E00
3800
6000
0000
0000
0000
0000
FFE0
FFE0
7FC0
1F80
1F00
1F00
1F00
1F00
1F00
1F00
1F00
1F00
1F00
1F00
1F00
1F00
1F00
1F00
1F00
1F00
1F00
1F00
1F00
1F00
1F00
1F00
1F00
1F00
1F00
1F00
1F00
1F00
1F00
1F00
1F00
1F00
3F80
7FC0
FFE0
FFE0
ENDCHAR
STARTCHAR 00B5
ENCODING 181
SWIDTH 270 0
DWIDTH 15 0
BBX 13 54 0 0
BITMAP
6000
F000
F800
7C00
3E00
1F00
0780
01C0
00E0
0030
0000
0000
0000
0000
3FF8
3FF8
1FF0
07E0
07C0
07C0
07C0
07C0
07C0
07C0
07C0
07C0
07C0
07C0
07C0
07C0
07C0
07C0
07C0
07C0
07C0
07C0
07C0
07C0
07C0
07C0
07C0
07C0
07C0
07C0
07C0
07C0
07C0
07C0
07C0
07C0
0FE0
1FF0
3FF8
3FF8
ENDCHAR
STARTCHAR 00B6
ENCODING 182
SWIDTH 756 0
DWIDTH 42 0
BBX 39 64 2 -10
BITMAP
0000380000
00007C0000
0000FC0000
0000FE0000
0001EF0000
0003C70000
0003838000
000701C000
000E00C000
000C006000
0000000000
0000000000
0000000000
0001FF0000
000FFFE000
003FFFF800
00FF01FE00
01F8007F00
03F0001F80
07C0000FC0
0FC00007E0
1F800003E0
1F000003F0
3F000001F0
3E000001F8
7E000000F8
7E000000FC
7C000000FC
FC0000007C
FC0000007C
FC0000007C
FC0000007E
FC0000007E
FC0000007E
FC0000007E
FC0000007E
FC0000007E
FC0000007E
FC0000007C
FC0000007C
7C000000FC
7E000000FC
7E000000F8
3E000001F8
3F000001F8
1F000001F0
1F800003E0
0F800007E0
07C0000FC0
03E0001F80
01F8003F00
00FE01FE00
007FFFF800
001FFFE000
0003FF8000
0000000000
0000000000
0000000000
00007C0000
00007C0000
00007E0000
00007C0000
00007C0000
0000100000
ENDCHAR
STARTCHAR 00B8
ENCODING 184
SWIDTH 270 0
DWIDTH 15 0
BBX 16 51 -1 0
BITMAP
0003
0F03
3FFE
7FFE
63FC
4020
C000
0000
0000
0000
0000
1FFC
1FFC
0FF8
03F0
03E0
03E0
03E0
03E0
03E0
03E0
03E0
03E0
03E0
03E0
03E0
03E0
03E0
03E0
03E0
03E0
03E0
03E0
03E0
03E0
03E0
03E0
03E0
03E0
03E0
03E0
03E0
03E0
03E0
03E0
03E0
03E0
07F0
0FF8
1FFC
1FFC
ENDCHAR
STARTCHAR 00B9
ENCODING 185
SWIDTH 756 0
DWIDTH 42 0
BBX 39 55 2 -1
BITMAP
000000C000
000001E000
000003E000
000007C000
00000F8000
00001F0000
00003C0000
0000700000
0000E00000
0001800000
0000000000
0000000000
0000000000
0001FF0000
000FFFE000
003FFFF800
00FF01FE00
01F8007F00
03F0001F80
07C0000FC0
0FC00007E0
1F800003E0
1F000003F0
3F000001F0
3E000001F8
7E000000F8
7E000000FC
7C000000FC
FC0000007C
FC0000007C
FC0000007C
FC0000007E
FC0000007E
FC0000007E
FC0000007E
FC0000007E
FC0000007E
FC0000007E
FC0000007C
FC0000007C
7C000000FC
7E000000FC
7E000000F8
3E000001F8
3F000001F8
1F000001F0
1F800003E0
0F800007E0
07C0000FC0
03E0001F80
01F8003F00
00FE01FE00
007FFFF800
001FFFE000
0003FF8000
ENDCHAR
STARTCHAR 00BA
ENCODING 186
SWIDTH 702 0
DWIDTH 39 0
BBX 40 59 1 -1
BITMAP
00000C0000
0000330000
0000618000
0000608000
0000008000
0000008000
0000018000
0000038000
000007007C
00000C0063
0000080041
0000080001
0000000001
0000000003
0000000003
000000000E
000000007C
0000000040
7FF0003FF0
FFF0003FF8
7FE0001FF0
1FC00007C0
1F800007C0
1F800003C0
1F000003C0
1F000003C0
1F000003C0
1F000003C0
1F000003C0
1F000003C0
1F000003C0
1F000003C0
1F000003C0
1F000003C0
1F000003C0
1E000003C0
1E000003C0
1E000001C0
1E000001C0
1E000001E0
1E000001E0
1E000001E0
1E000003E0
1E000003C0
1F000003C0
1F000003C0
1F000003C0
1F000003C0
1F000003C0
0F80000780
0F80000780
0FC0000F80
07C0001F00
07F0003E00
03F8007E00
01FF03FC00
00FFFFF000
003FFFE000
000FFF0000
ENDCHAR
STARTCHAR 00BB
ENCODING 187
SWIDTH 702 0
DWIDTH 39 0
BBX 40 62 1 -1
BITMAP
0000001000
0000FC3000
0003FFE000
0003FFE000
00061FC000
0006000000
0004000000
0000000000
0000000000
0000000000
0000000000
000000007C
0000000063
0000000041
0000000001
0000000001
0000000003
0000000003
000000000E
000000007C
0000000040
7FF0003FF0
FFF0003FF8
7FE0001FF0
1FC00007C0
1F800007C0
1F800003C0
1F000003C0
1F000003C0
1F000003C0
1F000003C0
1F000003C0
1F000003C0
1F000003C0
1F000003C0
1F000003C0
1F000003C0
1F000003C0
1E000003C0
1E000003C0
1E000001C0
1E000001C0
1E000001E0
1E000001E0
1E000001E0
1E000003E0
1E000003C0
1F000003C0
1F000003C0
1F000003C0
1F000003C0
1F000003C0
0F80000780
0F80000780
0FC0000F80
07C0001F00
07F0003E00
03F8007E00
01FF03FC00
00FFFFF000
003FFFE000
000FFF0000
ENDCHAR
STARTCHAR 00BC
ENCODING 188
SWIDTH 756 0
DWIDTH 42 0
BBX 39 55 2 -1
BITMAP
0006000000
000F000000
000F800000
000FC00000
0003E00000
0001F00000
0000780000
00003C0000
00000E0000
0000030000
0000000000
0000000000
0000000000
0001FF0000
000FFFE000
003FFFF800
00FF01FE00
01F8007F00
03F0001F80
07C0000FC0
0FC00007E0
1F800003E0
1F000003F0
3F000001F0
3E000001F8
7E000000F8
7E000000FC
7C000000FC
FC0000007C
FC0000007C
FC0000007C
FC0000007E
FC0000007E
FC0000007E
FC0000007E
FC0000007E
FC0000007E
FC0000007E
FC0000007C
FC0000007C
7C000000FC
7E000000FC
7E000000F8
3E000001F8
3F000001F8
1F000001F0
1F800003E0
0F800007E0
07C0000FC0
03E0001F80
01F8003F00
00FE01FE00
007FFFF800
001FFFE000
0003FF8000
ENDCHAR
STARTCHAR 00BD
ENCODING 189
SWIDTH 756 0
DWIDTH 42 0
BBX 39 57 2 -1
BITMAP
00003E0000
0000430000
0000C10000
0000418000
0000018000
0000018000
0000030000
0000070000
00001C0000
0000100000
0000100000
0000100000
0000000000
0000000000
0000000000
0001FF0000
000FFFE000
003FFFF800
00FF01FE00
01F8007F00
03F0001F80
07C0000FC0
0FC00007E0
1F800003E0
1F000003F0
3F000001F0
3E000001F8
7E000000F8
7E000000FC
7C000000FC
FC0000007C
FC0000007C
FC0000007C
FC0000007E
FC0000007E
FC0000007E
FC0000007E
FC0000007E
FC0000007E
FC0000007E
FC0000007C
FC0000007C
7C000000FC
7E000000FC
7E000000F8
3E000001F8
3F000001F8
1F000001F0
1F800003E0
0F800007E0
07C0000FC0
03E0001F80
01F8003F00
00FE01FE00
007FFFF800
001FFFE000
0003FF8000
ENDCHAR
STARTCHAR 00BE
ENCODING 190
SWIDTH 756 0
DWIDTH 42 0
BBX 39 53 2 -1
BITMAP
0000006000
0001F06000
0007FFC000
0007FFC000
000C7F8000
0008000000
0008000000
0000000000
0000000000
0000000000
0000000000
0001FF0000
000FFFE000
003FFFF800
00FF01FE00
01F8007F00
03F0001F80
07C0000FC0
0FC00007E0
1F800003E0
1F000003F0
3F000001F0
3E000001F8
7E000000F8
7E000000FC
7C000000FC
FC0000007C
FC0000007C
FC0000007C
FC0000007E
FC0000007E
FC0000007E
FC0000007E
FC0000007E
FC0000007E
FC0000007E
FC0000007C
FC0000007C
7C000000FC
7E000000FC
7E000000F8
3E000001F8
3F000001F8
1F000001F0
1F800003E0
0F800007E0
07C0000FC0
03E0001F80
01F8003F00
00FE01FE00
007FFFF800
001FFFE000
0003FF8000
ENDCHAR
STARTCHAR 00BF
ENCODING 191
SWIDTH 702 0
DWIDTH 39 0
BBX 40 59 1 -9
BITMAP
000000007C
0000000063
0000000041
0000000001
0000000001
0000000003
0000000003
000000000E
000000007C
0000000040
7FF0003FF0
FFF0003FF8
7FE0001FF0
1FC00007C0
1F800007C0
1F800003C0
1F000003C0
1F000003C0
1F000003C0
1F000003C0
1F000003C0
1F000003C0
1F000003C0
1F000003C0
1F000003C0
1F000003C0
1F000003C0
1E000003C0
1E000003C0
1E000001C0
1E000001C0
1E000001E0
1E000001E0
1E000001E0
1E000003E0
1E000003C0
1F000003C0
1F000003C0
1F000003C0
1F000003C0
1F000003C0
0F80000780
0F80000780
0FC0000F80
07C0001F00
07F0003E00
03F8007E00
01FF03FC00
00FFFFF000
003FFFE000
000FFF0000
0000000000
0000000000
0000700000
0000F80000
0001F80000
0001F80000
0000F80000
0000F00000
ENDCHAR
STARTCHAR 00C0
ENCODING 192
SWIDTH 648 0
DWIDTH 36 0
BBX 38 60 -1 0
BITMAP
3800000000
3C00000000
3E00000000
1F00000000
0F80000000
03C0000000
01E0380000
00707C0000
0018FC0000
000CFE0000
0001EF0000
0003C70000
0003838000
000701C000
000E00C000
000C006000
0000000000
0000000000
0000000000
0000300000
0000780000
0000780000
0000FC0000
0000FE0000
0001FE0000
0001FF0000
0003DF0000
0003DF8000
00078F8000
00078FC000
000F07C000
000F07E000
001E03E000
001E03E000
001C01F000
003C01F000
003801F800
007800F800
007800FC00
0070007C00
00F0007C00
00F0007E00
01E0003E00
01FFFFFE00
01FFFFFF00
03FFFFFF00
03C0001F00
0380000F80
0780000F80
0780000F80
0F000007C0
0F000007C0
0F000007C0
1F000003E0
1F000003E0
1F000003E0
3F000003F0
3F80000FF8
FFC0001FFC
7FC0000FFC
ENDCHAR
STARTCHAR 00C1
ENCODING 193
SWIDTH 648 0
DWIDTH 36 0
BBX 38 54 -1 0
BITMAP
000000C000
000001E000
000003E000
000007C000
00000F8000
00001F0000
00003C0000
0000700000
0000E00000
0001800000
0000000000
0000000000
0000000000
0000300000
0000780000
0000780000
0000FC0000
0000FE0000
0001FE0000
0001FF0000
0003DF0000
0003DF8000
00078F8000
00078FC000
000F07C000
000F07E000
001E03E000
001E03E000
001C01F000
003C01F000
003801F800
007800F800
007800FC00
0070007C00
00F0007C00
00F0007E00
01E0003E00
01FFFFFE00
01FFFFFF00
03FFFFFF00
03C0001F00
0380000F80
0780000F80
0780000F80
0F000007C0
0F000007C0
0F000007C0
1F000003E0
1F000003E0
1F000003E0
3F000003F0
3F80000FF8
FFC0001FFC
7FC0000FFC
ENDCHAR
STARTCHAR 00C2
ENCODING 194
SWIDTH 648 0
DWIDTH 36 0
BBX 38 54 -1 0
BITMAP
0000380000
00007C0000
0000FC0000
0000FE0000
0001EF0000
0003C70000
0003838000
000701C000
000E00C000
000C006000
0000000000
0000000000
0000000000
0000300000
0000780000
0000780000
0000FC0000
0000FE0000
0001FE0000
0001FF0000
0003DF0000
0003DF8000
00078F8000
00078FC000
000F07C000
000F07E000
001E03E000
001E03E000
001C01F000
003C01F000
003801F800
007800F800
007800FC00
0070007C00
00F0007C00
00F0007E00
01E0003E00
01FFFFFE00
01FFFFFF00
03FFFFFF00
03C0001F00
0380000F80
0780000F80
0780000F80
0F000007C0
0F000007C0
0F000007C0
1F000003E0
1F000003E0
1F000003E0
3F000003F0
3F80000FF8
FFC0001FFC
7FC0000FFC
ENDCHAR
STARTCHAR 00C3
ENCODING 195
SWIDTH 648 0
DWIDTH 36 0
BBX 38 60 -1 0
BITMAP
0000000038
000000007C
00000000FC
00000001F8
00000003E0
00000007C0
0000380F00
00007C1E00
0000FC3800
0000FE6000
0001EF0000
0003C70000
0003838000
000701C000
000E00C000
000C006000
0000000000
0000000000
0000000000
0000300000
0000780000
0000780000
0000FC0000
0000FE0000
0001FE0000
0001FF0000
0003DF0000
0003DF8000
00078F8000
00078FC000
000F07C000
000F07E000
001E03E000
001E03E000
001C01F000
003C01F000
003801F800
007800F800
007800FC00
0070007C00
00F0007C00
00F0007E00
01E0003E00
01FFFFFE00
01FFFFFF00
03FFFFFF00
03C0001F00
0380000F80
0780000F80
0780000F80
0F000007C0
0F000007C0
0F000007C0
1F000003E0
1F000003E0
1F000003E0
3F000003F0
3F80000FF8
FFC0001FFC
7FC0000FFC
ENDCHAR
STARTCHAR 00C4
ENCODING 196
SWIDTH 648 0
DWIDTH 36 0
BBX 38 63 -1 0
BITMAP
0000003C00
0000004600
000000C300
000000C100
0000000100
0000000100
0000000300
0000000700
0000001E00
0000381800
00007C1000
0000FC1000
0000FE0000
0001EF0000
0003C70000
0003838000
000701C000
000E00C000
000C006000
0000000000
0000000000
0000000000
0000300000
0000780000
0000780000
0000FC0000
0000FE0000
0001FE0000
0001FF0000
0003DF0000
0003DF8000
00078F8000
00078FC000
000F07C000
000F07E000
001E03E000
001E03E000
001C01F000
003C01F000
003801F800
007800F800
007800FC00
0070007C00
00F0007C00
00F0007E00
01E0003E00
01FFFFFE00
01FFFFFF00
03FFFFFF00
03C0001F00
0380000F80
0780000F80
0780000F80
0F000007C0
0F000007C0
0F000007C0
1F000003E0
1F000003E0
1F000003E0
3F000003F0
3F80000FF8
FFC0001FFC
7FC0000FFC
ENDCHAR
STARTCHAR 00C5
ENCODING 197
SWIDTH 648 0
DWIDTH 36 0
BBX 38 61 -1 0
BITMAP
0000002000
0000C06000
0003FCC000
0007FFC000
000FFF8000
000C1F0000
0008000000
0000380000
00007C0000
0000FC0000
0000FE0000
0001EF0000
0003C70000
0003838000
000701C000
000E00C000
000C006000
0000000000
0000000000
0000000000
0000300000
0000780000
0000780000
0000FC0000
0000FE0000
0001FE0000
0001FF0000
0003DF0000
0003DF8000
00078F8000
00078FC000
000F07C000
000F07E000
001E03E000
001E03E000
001C01F000
003C01F000
003801F800
007800F800
007800FC00
0070007C00
00F0007C00
00F0007E00
01E0003E00
01FFFFFE00
01FFFFFF00
03FFFFFF00
03C0001F00
0380000F80
0780000F80
0780000F80
0F000007C0
0F000007C0
0F000007C0
1F000003E0
1F000003E0
1F000003E0
3F000003F0
3F80000FF8
FFC0001FFC
7FC0000FFC
ENDCHAR
STARTCHAR 00C6
ENCODING 198
SWIDTH 648 0
DWIDTH 36 0
BBX 38 63 -1 -9
BITMAP
0000380000
00007C0000
0000FC0000
0000FE0000
0001EF0000
0003C70000
0003838000
000701C000
000E00C000
000C006000
0000000000
0000000000
0000000000
0000300000
0000780000
0000780000
0000FC0000
0000FE0000
0001FE0000
0001FF0000
0003DF0000
0003DF8000
00078F8000
00078FC000
000F07C000
000F07E000
001E03E000
001E03E000
001C01F000
003C01F000
003801F800
007800F800
007800FC00
0070007C00
00F0007C00
00F0007E00
01E0003E00
01FFFFFE00
01FFFFFF00
03FFFFFF00
03C0001F00
0380000F80
0780000F80
0780000F80
0F000007C0
0F000007C0
0F000007C0
1F000003E0
1F000003E0
1F000003E0
3F000003F0
3F80000FF8
FFC0001FFC
7FC0000FFC
0000000000
0000000000
0000000000
0001F00000
0001F00000
0001F00000
0001F00000
0001F00000
0000400000
ENDCHAR
STARTCHAR 00C7
ENCODING 199
SWIDTH 720 0
DWIDTH 40 0
BBX 39 40 0 0
BITMAP
3FFFFE0000
3FFFFFE000
1FFFFFF800
07E003FE00
07E0007F00
07C0001F80
07C0000FC0
07C00007E0
07C00003E0
07C00003F0
07C00001F8
07C00001F8
07C00000F8
07C00000FC
07C00000FC
07C00000FC
07C000007C
FFFFF8007C
FFFFF8007E
07C000007E
07C000007E
07C000007E
07C000007C
07C000007C
07C00000FC
07C00000FC
07C00000FC
07C00000F8
07C00001F8
07C00001F8
07C00003F0
07C00007E0
07C00007E0
07C0000FC0
07E0003F80
07E000FF00
07F003FC00
1FFFFFF000
3FFFFFC000
3FFFFC0000
ENDCHAR
STARTCHAR 00C8
ENCODING 200
SWIDTH 612 0
DWIDTH 34 0
BBX 31 56 2 0
BITMAP
0003E000
00041000
000E1800
00001800
00001800
00001800
00003000
00006000
0001C000
00010000
00010000
00010000
00000000
00000000
00000000
00000000
FFFFFFF8
FFFFFFF8
7FFFFFF8
3F8001FC
1F00003C
1F00001C
1F00000C
1F000000
1F000000
1F000000
1F000000
1F000000
1F000000
1F000000
1F000000
1F000180
1F0007C0
1FFFFFC0
1FFFFFC0
1FFFFFC0
1F0001C0
1F000000
1F000000
1F000000
1F000000
1F000000
1F000000
1F000000
1F000000
1F000000
1F000000
1F000000
1F000002
1F000006
1F00000E
1F00003E
3FC001FE
7FFFFFFE
FFFFFFFE
FFFFFFFC
ENDCHAR
STARTCHAR 00C9
ENCODING 201
SWIDTH 612 0
DWIDTH 34 0
BBX 31 54 2 0
BITMAP
00000600
00001F00
00003F00
00003E00
00007C00
0000F000
0001E000
00038000
00060000
000C0000
00000000
00000000
00000000
00000000
FFFFFFF8
FFFFFFF8
7FFFFFF8
3F8001FC
1F00003C
1F00001C
1F00000C
1F000000
1F000000
1F000000
1F000000
1F000000
1F000000
1F000000
1F000000
1F000180
1F0007C0
1FFFFFC0
1FFFFFC0
1FFFFFC0
1F0001C0
1F000000
1F000000
1F000000
1F000000
1F000000
1F000000
1F000000
1F000000
1F000000
1F000000
1F000000
1F000002
1F000006
1F00000E
1F00003E
3FC001FE
7FFFFFFE
FFFFFFFE
FFFFFFFC
ENDCHAR
STARTCHAR 00CA
ENCODING 202
SWIDTH 612 0
DWIDTH 34 0
BBX 31 54 2 0
BITMAP
0003C000
0003C000
0007E000
000FF000
000FF000
001E7800
003C1C00
00300C00
00600600
00C00300
00000000
00000000
00000000
00000000
FFFFFFF8
FFFFFFF8
7FFFFFF8
3F8001FC
1F00003C
1F00001C
1F00000C
1F000000
1F000000
1F000000
1F000000
1F000000
1F000000
1F000000
1F000000
1F000180
1F0007C0
1FFFFFC0
1FFFFFC0
1FFFFFC0
1F0001C0
1F000000
1F000000
1F000000
1F000000
1F000000
1F000000
1F000000
1F000000
1F000000
1F000000
1F000000
1F000002
1F000006
1F00000E
1F00003E
3FC001FE
7FFFFFFE
FFFFFFFE
FFFFFFFC
ENDCHAR
STARTCHAR 00CB
ENCODING 203
SWIDTH 612 0
DWIDTH 34 0
BBX 31 49 2 -9
BITMAP
FFFFFFF8
FFFFFFF8
7FFFFFF8
3F8001FC
1F00003C
1F00001C
1F00000C
1F000000
1F000000
1F000000
1F000000
1F000000
1F000000
1F000000
1F000000
1F000180
1F0007C0
1FFFFFC0
1FFFFFC0
1FFFFFC0
1F0001C0
1F000000
1F000000
1F000000
1F000000
1F000000
1F000000
1F000000
1F000000
1F000000
1F000000
1F000000
1F000002
1F000006
1F00000E
1F00003E
3FC001FE
7FFFFFFE
FFFFFFFE
FFFFFFFC
00000000
00000000
00000000
000F8000
000F8000
000F8000
000F8000
000F8000
00020000
ENDCHAR
STARTCHAR 00CC
ENCODING 204
SWIDTH 270 0
DWIDTH 15 0
BBX 11 57 2 0
BITMAP
0F00
18C0
3040
3060
0060
0060
00C0
01C0
0380
0600
0400
0400
0000
0000
0000
0000
0000
FFE0
FFE0
7FC0
1F80
1F00
1F00
1F00
1F00
1F00
1F00
1F00
1F00
1F00
1F00
1F00
1F00
1F00
1F00
1F00
1F00
1F00
1F00
1F00
1F00
1F00
1F00
1F00
1F00
1F00
1F00
1F00
1F00
1F00
1F00
1F00
1F00
3F80
7FC0
FFE0
FFE0
ENDCHAR
STARTCHAR 00CD
ENCODING 205
SWIDTH 612 0
DWIDTH 34 0
BBX 31 61 2 0
BITMAP
00000100
00060300
001FE600
003FFE00
007FFC00
0060F800
00400000
0003C000
0003C000
0007E000
000FF000
000FF000
001E7800
003C1C00
00300C00
00600600
00C00300
00000000
00000000
00000000
00000000
FFFFFFF8
FFFFFFF8
7FFFFFF8
3F8001FC
1F00003C
1F00001C
1F00000C
1F000000
1F000000
1F000000
1F000000
1F000000
1F000000
1F000000
1F000000
1F000180
1F0007C0
1FFFFFC0
1FFFFFC0
1FFFFFC0
1F0001C0
1F000000
1F000000
1F000000
1F000000
1F000000
1F000000
1F000000
1F000000
1F000000
1F000000
1F000000
1F000002
1F000006
1F00000E
1F00003E
3FC001FE
7FFFFFFE
FFFFFFFE
FFFFFFFC
ENDCHAR
STARTCHAR 00CE
ENCODING 206
SWIDTH 270 0
DWIDTH 15 0
BBX 11 49 2 -10
BITMAP
FFE0
FFE0
7FC0
1F80
1F00
1F00
1F00
1F00
1F00
1F00
1F00
1F00
1F00
1F00
1F00
1F00
1F00
1F00
1F00
1F00
1F00
1F00
1F00
1F00
1F00
1F00
1F00
1F00
1F00
1F00
1F00
1F00
1F00
1F00
1F00
1F00
3F80
7FC0
FFE0
FFE0
0000
0000
0000
0000
0F00
1F80
1F80
1F80
0F00
ENDCHAR
STARTCHAR 00CF
ENCODING 207
SWIDTH 648 0
DWIDTH 36 0
BBX 37 52 -1 0
BITMAP
0000001800
0000781800
0001FFF000
0001FFF000
00039FE000
0002018000
0002000000
0000000000
0000000000
0000000000
0000000000
0000000000
FFE0001FF8
FFE0000FF8
7FC00007F0
1F800003E0
0F800003E0
0FC00003C0
07C0000780
07E0000780
03E0000F00
01F0000E00
01F8001E00
00F8001C00
007C003800
007E007800
003F007000
001F00E000
001F81E000
000FC3C000
0007E38000
0003E78000
0003FF0000
0001FE0000
0000FC0000
0000FC0000
00007C0000
00007C0000
00007C0000
00007C0000
00007C0000
00007C0000
00007C0000
00007C0000
00007C0000
00007C0000
00007C0000
00007C0000
0000FC0000
0001FF0000
0003FF8000
0003FF8000
ENDCHAR
STARTCHAR 00D0
ENCODING 208
SWIDTH 702 0
DWIDTH 39 0
BBX 40 51 1 -1
BITMAP
000000007C
0000000063
0000000041
0000000001
0000000001
0000000003
0000000003
000000000E
000000007C
0000000040
7FF0003FF0
FFF0003FF8
7FE0001FF0
1FC00007C0
1F800007C0
1F800003C0
1F000003C0
1F000003C0
1F000003C0
1F000003C0
1F000003C0
1F000003C0
1F000003C0
1F000003C0
1F000003C0
1F000003C0
1F000003C0
1E000003C0
1E000003C0
1E000001C0
1E000001C0
1E000001E0
1E000001E0
1E000001E0
1E000003E0
1E000003C0
1F000003C0
1F000003C0
1F000003C0
1F000003C0
1F000003C0
0F80000780
0F80000780
0FC0000F80
07C0001F00
07F0003E00
03F8007E00
01FF03FC00
00FFFFF000
003FFFE000
000FFF0000
ENDCHAR
STARTCHAR 00D1
ENCODING 209
SWIDTH 702 0
DWIDTH 39 0
BBX 37 58 1 -1
BITMAP
0000080000
0000330000
0000618000
0000618000
0000018000
0000018000
0000018000
0000030000
0000070000
00001C0000
0000100000
0000100000
0000100000
0000000000
0000000000
0000000000
0000000000
7FF0003FF0
FFF0003FF8
7FE0001FF0
1FC00007C0
1F800007C0
1F800003C0
1F000003C0
1F000003C0
1F000003C0
1F000003C0
1F000003C0
1F000003C0
1F000003C0
1F000003C0
1F000003C0
1F000003C0
1F000003C0
1E000003C0
1E000003C0
1E000001C0
1E000001C0
1E000001E0
1E000001E0
1E000001E0
1E000003E0
1E000003C0
1F000003C0
1F000003C0
1F000003C0
1F000003C0
1F000003C0
0F80000780
0F80000780
0FC0000F80
07C0001F00
07F0003E00
03F8007E00
01FF03FC00
00FFFFF000
003FFFE000
000FFF0000
ENDCHAR
STARTCHAR 00D2
ENCODING 210
SWIDTH 756 0
DWIDTH 42 0
BBX 39 61 2 -1
BITMAP
3800000000
3C00000000
3E00000000
3F00000000
0F80000000
07C0000000
01E0380000
00707C0000
0038FC0000
000CFE0000
0001EF0000
0003C70000
0003838000
000701C000
000E00C000
000C006000
0000000000
0000000000
0000000000
0001FF0000
000FFFE000
003FFFF800
00FF01FE00
01F8007F00
03F0001F80
07C0000FC0
0FC00007E0
1F800003E0
1F000003F0
3F000001F0
3E000001F8
7E000000F8
7E000000FC
7C000000FC
FC0000007C
FC0000007C
FC0000007C
FC0000007E
FC0000007E
FC0000007E
FC0000007E
FC0000007E
FC0000007E
FC0000007E
FC0000007C
FC0000007C
7C000000FC
7E000000FC
7E000000F8
3E000001F8
3F000001F8
1F000001F0
1F800003E0
0F800007E0
07C0000FC0
03E0001F80
01F8003F00
00FE01FE00
007FFFF800
001FFFE000
0003FF8000
ENDCHAR
STARTCHAR 00D3
ENCODING 211
SWIDTH 756 0
DWIDTH 42 0
BBX 39 61 2 -1
BITMAP
0000000030
0000000078
00000000F8
00000001F0
00000003E0
00000007C0
0000380F00
00007C1C00
0000FC3800
0000FE6000
0001EF0000
0003C70000
0003838000
000701C000
000E00C000
000C006000
0000000000
0000000000
0000000000
0001FF0000
000FFFE000
003FFFF800
00FF01FE00
01F8007F00
03F0001F80
07C0000FC0
0FC00007E0
1F800003E0
1F000003F0
3F000001F0
3E000001F8
7E000000F8
7E000000FC
7C000000FC
FC0000007C
FC0000007C
FC0000007C
FC0000007E
FC0000007E
FC0000007E
FC0000007E
FC0000007E
FC0000007E
FC0000007E
FC0000007C
FC0000007C
7C000000FC
7E000000FC
7E000000F8
3E000001F8
3F000001F8
1F000001F0
1F800003E0
0F800007E0
07C0000FC0
03E0001F80
01F8003F00
00FE01FE00
007FFFF800
001FFFE000
0003FF8000
ENDCHAR
STARTCHAR 00D4
ENCODING 212
SWIDTH 756 0
DWIDTH 42 0
BBX 39 55 2 -1
BITMAP
0000380000
00007C0000
0000FC0000
0000FE0000
0001EF0000
0003C70000
0003838000
000701C000
000E00C000
000C006000
0000000000
0000000000
0000000000
0001FF0000
000FFFE000
003FFFF800
00FF01FE00
01F8007F00
03F0001F80
07C0000FC0
0FC00007E0
1F800003E0
1F000003F0
3F000001F0
3E000001F8
7E000000F8
7E000000FC
7C000000FC
FC0000007C
FC0000007C
FC0000007C
FC0000007E
FC0000007E
FC0000007E
FC0000007E
FC0000007E
FC0000007E
FC0000007E
FC0000007C
FC0000007C
7C000000FC
7E000000FC
7E000000F8
3E000001F8
3F000001F8
1F000001F0
1F800003E0
0F800007E0
07C0000FC0
03E0001F80
01F8003F00
00FE01FE00
007FFFF800
001FFFE000
0003FF8000
ENDCHAR
STARTCHAR 00D5
ENCODING 213
SWIDTH 756 0
DWIDTH 42 0
BBX 39 57 2 -1
BITMAP
00003E0000
0000430000
0000C10000
0000418000
0000018000
0000018000
0000030000
0000070000
00001C0000
0000100000
0000100000
0000100000
0000000000
0000000000
0000000000
0001FF0000
000FFFE000
003FFFF800
00FF01FE00
01F8007F00
03F0001F80
07C0000FC0
0FC00007E0
1F800003E0
1F000003F0
3F000001F0
3E000001F8
7E000000F8
7E000000FC
7C000000FC
FC0000007C
FC0000007C
FC0000007C
FC0000007E
FC0000007E
FC0000007E
FC0000007E
FC0000007E
FC0000007E
FC0000007E
FC0000007C
FC0000007C
7C000000FC
7E000000FC
7E000000F8
3E000001F8
3F000001F8
1F000001F0
1F800003E0
0F800007E0
07C0000FC0
03E0001F80
01F8003F00
00FE01FE00
007FFFF800
001FFFE000
0003FF8000
ENDCHAR
STARTCHAR 00D6
ENCODING 214
SWIDTH 756 0
DWIDTH 42 0
BBX 39 51 2 -1
BITMAP
00000003E0
0000000630
0000000618
0000000018
0000000018
0000000018
0000000030
00000000E0
00000003C0
0001FF0600
000FFFE400
003FFFFC00
00FF01FE00
01F8007F00
03F0001F80
07C0000FC0
0FC00007E0
1F800003E0
1F000003F0
3F000001F0
3E000001F8
7E000000F8
7E000000FC
7C000000FC
FC0000007C
FC0000007C
FC0000007C
FC0000007E
FC0000007E
FC0000007E
FC0000007E
FC0000007E
FC0000007E
FC0000007E
FC0000007C
FC0000007C
7C000000FC
7E000000FC
7E000000F8
3E000001F8
3F000001F8
1F000001F0
1F800003E0
0F800007E0
07C0000FC0
03E0001F80
01F8003F00
00FE01FE00
007FFFF800
001FFFE000
0003FF8000
ENDCHAR
STARTCHAR 00D7
ENCODING 215
SWIDTH 612 0
DWIDTH 34 0
BBX 31 54 2 0
BITMAP
00600000
00F80000
00FC0000
007E0000
003F0000
000F8000
0007C000
0001E000
00006000
00003000
00000000
00000000
00000000
00000000
FFFFFFF8
FFFFFFF8
7FFFFFF8
3F8001FC
1F00003C
1F00001C
1F00000C
1F000000
1F000000
1F000000
1F000000
1F000000
1F000000
1F000000
1F000000
1F000180
1F0007C0
1FFFFFC0
1FFFFFC0
1FFFFFC0
1F0001C0
1F000000
1F000000
1F000000
1F000000
1F000000
1F000000
1F000000
1F000000
1F000000
1F000000
1F000000
1F000002
1F000006
1F00000E
1F00003E
3FC001FE
7FFFFFFE
FFFFFFFE
FFFFFFFC
ENDCHAR
STARTCHAR 00D8
ENCODING 216
SWIDTH 702 0
DWIDTH 39 0
BBX 40 58 1 -1
BITMAP
000C000000
001E000000
001F000000
000F800000
0007C00000
0003E00000
0000F00000
000038007C
00001C0063
0000060041
0000000001
0000000001
0000000003
0000000003
000000000E
000000007C
0000000040
7FF0003FF0
FFF0003FF8
7FE0001FF0
1FC00007C0
1F800007C0
1F800003C0
1F000003C0
1F000003C0
1F000003C0
1F000003C0
1F000003C0
1F000003C0
1F000003C0
1F000003C0
1F000003C0
1F000003C0
1F000003C0
1E000003C0
1E000003C0
1E000001C0
1E000001C0
1E000001E0
1E000001E0
1E000001E0
1E000003E0
1E000003C0
1F000003C0
1F000003C0
1F000003C0
1F000003C0
1F000003C0
0F80000780
0F80000780
0FC0000F80
07C0001F00
07F0003E00
03F8007E00
01FF03FC00
00FFFFF000
003FFFE000
000FFF0000
ENDCHAR
STARTCHAR 00D9
ENCODING 217
SWIDTH 702 0
DWIDTH 39 0
BBX 40 59 1 -1
BITMAP
0000001000
0000007800
000000F800
000001F800
000003F000
000003C000
0000078000
00000E0000
00001C007C
0000300063
0000000041
0000000001
0000000001
0000000003
0000000003
000000000E
000000007C
0000000040
7FF0003FF0
FFF0003FF8
7FE0001FF0
1FC00007C0
1F800007C0
1F800003C0
1F000003C0
1F000003C0
1F000003C0
1F000003C0
1F000003C0
1F000003C0
1F000003C0
1F000003C0
1F000003C0
1F000003C0
1F000003C0
1E000003C0
1E000003C0
1E000001C0
1E000001C0
1E000001E0
1E000001E0
1E000001E0
1E000003E0
1E000003C0
1F000003C0
1F000003C0
1F000003C0
1F000003C0
1F000003C0
0F80000780
0F80000780
0FC0000F80
07C0001F00
07F0003E00
03F8007E00
01FF03FC00
00FFFFF000
003FFFE000
000FFF0000
ENDCHAR
STARTCHAR 00DA
ENCODING 218
SWIDTH 702 0
DWIDTH 39 0
BBX 37 55 1 -1
BITMAP
000000C000
000001E000
000003E000
000007C000
00000F8000
00001F0000
00003C0000
0000700000
0000E00000
0001800000
0000000000
0000000000
0000000000
0000000000
7FF0003FF0
FFF0003FF8
7FE0001FF0
1FC00007C0
1F800007C0
1F800003C0
1F000003C0
1F000003C0
1F000003C0
1F000003C0
1F000003C0
1F000003C0
1F000003C0
1F000003C0
1F000003C0
1F000003C0
1F000003C0
1E000003C0
1E000003C0
1E000001C0
1E000001C0
1E000001E0
1E000001E0
1E000001E0
1E000003E0
1E000003C0
1F000003C0
1F000003C0
1F000003C0
1F000003C0
1F000003C0
0F80000780
0F80000780
0FC0000F80
07C0001F00
07F0003E00
03F8007E00
01FF03FC00
00FFFFF000
003FFFE000
000FFF0000
ENDCHAR
STARTCHAR 00DB
ENCODING 219
SWIDTH 702 0
DWIDTH 39 0
BBX 37 53 1 -1
BITMAP
0000000800
0000101800
0000FF3800
0001FFF000
0003FFE000
000307C000
0002000000
0000000000
0000000000
0000000000
0000000000
0000000000
7FF0003FF0
FFF0003FF8
7FE0001FF0
1FC00007C0
1F800007C0
1F800003C0
1F000003C0
1F000003C0
1F000003C0
1F000003C0
1F000003C0
1F000003C0
1F000003C0
1F000003C0
1F000003C0
1F000003C0
1F000003C0
1E000003C0
1E000003C0
1E000001C0
1E000001C0
1E000001E0
1E000001E0
1E000001E0
1E000003E0
1E000003C0
1F000003C0
1F000003C0
1F000003C0
1F000003C0
1F000003C0
0F80000780
0F80000780
0FC0000F80
07C0001F00
07F0003E00
03F8007E00
01FF03FC00
00FFFFF000
003FFFE000
000FFF0000
ENDCHAR
STARTCHAR 00DC
ENCODING 220
SWIDTH 702 0
DWIDTH 39 0
BBX 40 51 1 -1
BITMAP
000000007C
0000000063
0000000041
0000000001
0000000001
0000000003
0000000003
000000000E
000000007C
0000000040
7FF0003FF0
FFF0003FF8
7FE0001FF0
1FC00007C0
1F800007C0
1F800003C0
1F000003C0
1F000003C0
1F000003C0
1F000003C0
1F000003C0
1F000003C0
1F000003C0
1F000003C0
1F000003C0
1F000003C0
1F000003C0
1E000003C0
1E000003C0
1E000001C0
1E000001C0
1E000001E0
1E000001E0
1E000001E0
1E000003E0
1E000003C0
1F000003C0
1F000003C0
1F000003C0
1F000003C0
1F000003C0
0F80000780
0F80000780
0FC0000F80
07C0001F00
07F0003E00
03F8007E00
01FF03FC00
00FFFFF000
003FFFE000
000FFF0000
ENDCHAR
STARTCHAR 00DD
ENCODING 221
SWIDTH 648 0
DWIDTH 36 0
BBX 37 54 -1 0
BITMAP
000000C000
000001E000
000003E000
000007C000
00000F8000
00001E0000
00003C0000
0000700000
0000E00000
0001800000
0000000000
0000000000
0000000000
0000000000
FFE0001FF8
FFE0000FF8
7FC00007F0
1F800003E0
0F800003E0
0FC00003C0
07C0000780
07E0000780
03E0000F00
01F0000E00
01F8001E00
00F8001C00
007C003800
007E007800
003F007000
001F00E000
001F81E000
000FC3C000
0007E38000
0003E78000
0003FF0000
0001FE0000
0000FC0000
0000FC0000
00007C0000
00007C0000
00007C0000
00007C0000
00007C0000
00007C0000
00007C0000
00007C0000
00007C0000
00007C0000
00007C0000
00007C0000
0000FC0000
0001FF0000
0003FF8000
0003FF8000
ENDCHAR
STARTCHAR 00DE
ENCODING 222
SWIDTH 612 0
DWIDTH 34 0
BBX 31 56 2 0
BITMAP
0003E000
00041000
000E1800
00001800
00001800
00001800
00003000
00006000
0001C000
00010000
00010000
00010000
00000000
00000000
00000000
00000000
FFFFFFF8
FFFFFFF8
7FFFFFF8
3F8001FC
1F00003C
1F00001C
1F00000C
1F000000
1F000000
1F000000
1F000000
1F000000
1F000000
1F000000
1F000000
1F000180
1F0007C0
1FFFFFC0
1FFFFFC0
1FFFFFC0
1F0001C0
1F000000
1F000000
1F000000
1F000000
1F000000
1F000000
1F000000
1F000000
1F000000
1F000000
1F000000
1F000002
1F000006
1F00000E
1F00003E
3FC001FE
7FFFFFFE
FFFFFFFE
FFFFFFFC
ENDCHAR
STARTCHAR 00DF
ENCODING 223
SWIDTH 648 0
DWIDTH 36 0
BBX 34 41 1 0
BITMAP
0007FE0000
003FFFC000
007FFFE000
01F803F800
03E000F800
03C0007C00
0780003E00
0F80003E00
0F80003E00
0F00003E00
0F00003E00
0F00003E00
0F00003E00
0F00003C00
0F00007C00
0F0000F800
0F0003F000
0F003FC000
0F0FFE0000
0F0FFFC000
0F001FF000
0F0000FC00
0F00003E00
0F00001F00
0F00000F80
0F00000F80
0F00000780
0F0E0007C0
0F0F0007C0
0F1E0007C0
0F3C0007C0
0F3C0007C0
0F380007C0
0F38000F80
0F3C000F80
0F3C001F00
1F1E003F00
1F1F00FE00
7F8FFFFC00
FFC7FFF000
FF80FFC000
ENDCHAR
STARTCHAR 00E0
ENCODING 224
SWIDTH 648 0
DWIDTH 36 0
BBX 38 54 -1 0
BITMAP
0006000000
000F000000
000F800000
000FC00000
0003E00000
0001F00000
0000780000
00003C0000
00000E0000
0000030000
0000000000
0000000000
0000000000
0000300000
0000780000
0000780000
0000FC0000
0000FE0000
0001FE0000
0001FF0000
0003DF0000
0003DF8000
00078F8000
00078FC000
000F07C000
000F07E000
001E03E000
001E03E000
001C01F000
003C01F000
003801F800
007800F800
007800FC00
0070007C00
00F0007C00
00F0007E00
01E0003E00
01FFFFFE00
01FFFFFF00
03FFFFFF00
03C0001F00
0380000F80
0780000F80
0780000F80
0F000007C0
0F000007C0
0F000007C0
1F000003E0
1F000003E0
1F000003E0
3F000003F0
3F80000FF8
FFC0001FFC
7FC0000FFC
ENDCHAR
STARTCHAR 00E1
ENCODING 225
SWIDTH 648 0
DWIDTH 36 0
BBX 38 54 -1 0
BITMAP
000000C000
000001E000
000003E000
000007C000
00000F8000
00001F0000
00003C0000
0000700000
0000E00000
0001800000
0000000000
0000000000
0000000000
0000300000
0000780000
0000780000
0000FC0000
0000FE0000
0001FE0000
0001FF0000
0003DF0000
0003DF8000
00078F8000
00078FC000
000F07C000
000F07E000
001E03E000
001E03E000
001C01F000
003C01F000
003801F800
007800F800
007800FC00
0070007C00
00F0007C00
00F0007E00
01E0003E00
01FFFFFE00
01FFFFFF00
03FFFFFF00
03C0001F00
0380000F80
0780000F80
0780000F80
0F000007C0
0F000007C0
0F000007C0
1F000003E0
1F000003E0
1F000003E0
3F000003F0
3F80000FF8
FFC0001FFC
7FC0000FFC
ENDCHAR
STARTCHAR 00E2
ENCODING 226
SWIDTH 648 0
DWIDTH 36 0
BBX 38 54 -1 0
BITMAP
0000380000
00007C0000
0000FC0000
0000FE0000
0001EF0000
0003C70000
0003838000
000701C000
000E00C000
000C006000
0000000000
0000000000
0000000000
0000300000
0000780000
0000780000
0000FC0000
0000FE0000
0001FE0000
0001FF0000
0003DF0000
0003DF8000
00078F8000
00078FC000
000F07C000
000F07E000
001E03E000
001E03E000
001C01F000
003C01F000
003801F800
007800F800
007800FC00
0070007C00
00F0007C00
00F0007E00
01E0003E00
01FFFFFE00
01FFFFFF00
03FFFFFF00
03C0001F00
0380000F80
0780000F80
0780000F80
0F000007C0
0F000007C0
0F000007C0
1F000003E0
1F000003E0
1F000003E0
3F000003F0
3F80000FF8
FFC0001FFC
7FC0000FFC
ENDCHAR
STARTCHAR 00E3
ENCODING 227
SWIDTH 648 0
DWIDTH 36 0
BBX 38 52 -1 0
BITMAP
0000006000
0003F06000
0007FFC000
0007FFC000
000C7F8000
0008000000
0008000000
0000000000
0000000000
0000000000
0000000000
0000300000
0000780000
0000780000
0000FC0000
0000FE0000
0001FE0000
0001FF0000
0003DF0000
0003DF8000
00078F8000
00078FC000
000F07C000
000F07E000
001E03E000
001E03E000
001C01F000
003C01F000
003801F800
007800F800
007800FC00
0070007C00
00F0007C00
00F0007E00
01E0003E00
01FFFFFE00
01FFFFFF00
03FFFFFF00
03C0001F00
0380000F80
0780000F80
0780000F80
0F000007C0
0F000007C0
0F000007C0
1F000003E0
1F000003E0
1F000003E0
3F000003F0
3F80000FF8
FFC0001FFC
7FC0000FFC
ENDCHAR
STARTCHAR 00E4
ENCODING 228
SWIDTH 648 0
DWIDTH 36 0
BBX 38 56 -1 0
BITMAP
00007C0000
0000820000
0001C30000
0000030000
0000030000
0000030000
0000060000
00000C0000
0000380000
0000200000
0000200000
0000200000
0000000000
0000000000
0000000000
0000300000
0000780000
0000780000
0000FC0000
0000FE0000
0001FE0000
0001FF0000
0003DF0000
0003DF8000
00078F8000
00078FC000
000F07C000
000F07E000
001E03E000
001E03E000
001C01F000
003C01F000
003801F800
007800F800
007800FC00
0070007C00
00F0007C00
00F0007E00
01E0003E00
01FFFFFE00
01FFFFFF00
03FFFFFF00
03C0001F00
0380000F80
0780000F80
0780000F80
0F000007C0
0F000007C0
0F000007C0
1F000003E0
1F000003E0
1F000003E0
3F000003F0
3F80000FF8
FFC0001FFC
7FC0000FFC
ENDCHAR
STARTCHAR 00E5
ENCODING 229
SWIDTH 648 0
DWIDTH 36 0
BBX 38 50 -1 -9
BITMAP
0000300000
0000780000
0000780000
0000FC0000
0000FE0000
0001FE0000
0001FF0000
0003DF0000
0003DF8000
00078F8000
00078FC000
000F07C000
000F07E000
001E03E000
001E03E000
001C01F000
003C01F000
003801F800
007800F800
007800FC00
0070007C00
00F0007C00
00F0007E00
01E0003E00
01FFFFFE00
01FFFFFF00
03FFFFFF00
03C0001F00
0380000F80
0780000F80
0780000F80
0F000007C0
0F000007C0
0F000007C0
1F000003E0
1F000003E0
1F000003E0
3F000003F0
3F80000FF8
FFC0001FFC
7FC0000FFC
0000000000
0000000000
0000000000
0001F00000
0001F00000
0001F00000
0001F00000
0001F00000
0000400000
ENDCHAR
STARTCHAR 00E6
ENCODING 230
SWIDTH 648 0
DWIDTH 36 0
BBX 38 51 -1 0
BITMAP
001800C000
0008008000
000C018000
000F078000
0007FF0000
0003FE0000
0000F80000
0000000000
0000000000
0000000000
0000300000
0000780000
0000780000
0000FC0000
0000FE0000
0001FE0000
0001FF0000
0003DF0000
0003DF8000
00078F8000
00078FC000
000F07C000
000F07E000
001E03E000
001E03E000
001C01F000
003C01F000
003801F800
007800F800
007800FC00
0070007C00
00F0007C00
00F0007E00
01E0003E00
01FFFFFE00
01FFFFFF00
03FFFFFF00
03C0001F00
0380000F80
0780000F80
0780000F80
0F000007C0
0F000007C0
0F000007C0
1F000003E0
1F000003E0
1F000003E0
3F000003F0
3F80000FF8
FFC0001FFC
7FC0000FFC
ENDCHAR
STARTCHAR 00E7
ENCODING 231
SWIDTH 684 0
DWIDTH 38 0
BBX 36 53 2 -12
BITMAP
0001FFC000
000FFFF800
003FFFFF00
00FF00FF80
01F8003F80
03F0001FC0
07E00007C0
0FC00007C0
0F800003C0
1F000001C0
3F000001C0
3E000000C0
7E00000000
7E00000000
7C00000000
FC00000000
FC00000000
FC00000000
FC00000000
FC00000000
FC00000000
FC00000000
FC00000000
FC00000000
FC00000000
FC00000000
FC00000000
7C00000000
7E00000000
7E00000000
7E00000000
3F00000020
3F80000070
1F800000E0
1FC00001E0
0FE00007C0
07F0000FC0
03FC003F80
01FFE3FE00
007FFFFC00
001FFFF000
0007FF8000
0000300000
0000300000
00003F0000
00003F8000
000003C000
000003C000
000001C000
000403C000
000787C000
0007FF8000
0000FF0000
ENDCHAR
STARTCHAR 00E8
ENCODING 232
SWIDTH 612 0
DWIDTH 34 0
BBX 31 54 2 0
BITMAP
00600000
00F80000
00FC0000
007E0000
003F0000
000F8000
0007C000
0001E000
00006000
00003000
00000000
00000000
00000000
00000000
FFFFFFF8
FFFFFFF8
7FFFFFF8
3F8001FC
1F00003C
1F00001C
1F00000C
1F000000
1F000000
1F000000
1F000000
1F000000
1F000000
1F000000
1F000000
1F000180
1F0007C0
1FFFFFC0
1FFFFFC0
1FFFFFC0
1F0001C0
1F000000
1F000000
1F000000
1F000000
1F000000
1F000000
1F000000
1F000000
1F000000
1F000000
1F000000
1F000002
1F000006
1F00000E
1F00003E
3FC001FE
7FFFFFFE
FFFFFFFE
FFFFFFFC
ENDCHAR
STARTCHAR 00E9
ENCODING 233
SWIDTH 612 0
DWIDTH 34 0
BBX 31 54 2 0
BITMAP
00000600
00001F00
00003F00
00003E00
00007C00
0000F000
0001E000
00038000
00060000
000C0000
00000000
00000000
00000000
00000000
FFFFFFF8
FFFFFFF8
7FFFFFF8
3F8001FC
1F00003C
1F00001C
1F00000C
1F000000
1F000000
1F000000
1F000000
1F000000
1F000000
1F000000
1F000000
1F000180
1F0007C0
1FFFFFC0
1FFFFFC0
1FFFFFC0
1F0001C0
1F000000
1F000000
1F000000
1F000000
1F000000
1F000000
1F000000
1F000000
1F000000
1F000000
1F000000
1F000002
1F000006
1F00000E
1F00003E
3FC001FE
7FFFFFFE
FFFFFFFE
FFFFFFFC
ENDCHAR
STARTCHAR 00EA
ENCODING 234
SWIDTH 612 0
DWIDTH 34 0
BBX 31 54 2 0
BITMAP
0003C000
0003C000
0007E000
000FF000
000FF000
001E7800
003C1C00
00300C00
00600600
00C00300
00000000
00000000
00000000
00000000
FFFFFFF8
FFFFFFF8
7FFFFFF8
3F8001FC
1F00003C
1F00001C
1F00000C
1F000000
1F000000
1F000000
1F000000
1F000000
1F000000
1F000000
1F000000
1F000180
1F0007C0
1FFFFFC0
1FFFFFC0
1FFFFFC0
1F0001C0
1F000000
1F000000
1F000000
1F000000
1F000000
1F000000
1F000000
1F000000
1F000000
1F000000
1F000000
1F000002
1F000006
1F00000E
1F00003E
3FC001FE
7FFFFFFE
FFFFFFFE
FFFFFFFC
ENDCHAR
STARTCHAR 00EB
ENCODING 235
SWIDTH 612 0
DWIDTH 34 0
BBX 31 51 2 0
BITMAP
00000400
003E0C00
007FFC00
00FFF800
00CFF000
01804000
01000000
00000000
00000000
00000000
00000000
FFFFFFF8
FFFFFFF8
7FFFFFF8
3F8001FC
1F00003C
1F00001C
1F00000C
1F000000
1F000000
1F000000
1F000000
1F000000
1F000000
1F000000
1F000000
1F000180
1F0007C0
1FFFFFC0
1FFFFFC0
1FFFFFC0
1F0001C0
1F000000
1F000000
1F000000
1F000000
1F000000
1F000000
1F000000
1F000000
1F000000
1F000000
1F000000
1F000002
1F000006
1F00000E
1F00003E
3FC001FE
7FFFFFFE
FFFFFFFE
FFFFFFFC
ENDCHAR
STARTCHAR 00EC
ENCODING 236
SWIDTH 270 0
DWIDTH 15 0
BBX 13 54 0 0
BITMAP
6000
F000
F800
7C00
3E00
1F00
0780
01C0
00E0
0030
0000
0000
0000
0000
3FF8
3FF8
1FF0
07E0
07C0
07C0
07C0
07C0
07C0
07C0
07C0
07C0
07C0
07C0
07C0
07C0
07C0
07C0
07C0
07C0
07C0
07C0
07C0
07C0
07C0
07C0
07C0
07C0
07C0
07C0
07C0
07C0
07C0
07C0
07C0
07C0
0FE0
1FF0
3FF8
3FF8
ENDCHAR
STARTCHAR 00ED
ENCODING 237
SWIDTH 270 0
DWIDTH 15 0
BBX 13 54 2 0
BITMAP
0030
0078
00F8
01F8
03E0
07C0
0F00
1E00
3800
6000
0000
0000
0000
0000
FFE0
FFE0
7FC0
1F80
1F00
1F00
1F00
1F00
1F00
1F00
1F00
1F00
1F00
1F00
1F00
1F00
1F00
1F00
1F00
1F00
1F00
1F00
1F00
1F00
1F00
1F00
1F00
1F00
1F00
1F00
1F00
1F00
1F00
1F00
1F00
1F00
3F80
7FC0
FFE0
FFE0
ENDCHAR
STARTCHAR 00EE
ENCODING 238
SWIDTH 270 0
DWIDTH 15 0
BBX 15 54 0 0
BITMAP
0380
07C0
07E0
0FE0
1EF0
1C78
3838
701C
600E
C002
0000
0000
0000
0000
3FF8
3FF8
1FF0
07E0
07C0
07C0
07C0
07C0
07C0
07C0
07C0
07C0
07C0
07C0
07C0
07C0
07C0
07C0
07C0
07C0
07C0
07C0
07C0
07C0
07C0
07C0
07C0
07C0
07C0
07C0
07C0
07C0
07C0
07C0
07C0
07C0
0FE0
1FF0
3FF8
3FF8
ENDCHAR
STARTCHAR 00EF
ENCODING 239
SWIDTH 270 0
DWIDTH 15 0
BBX 16 51 -1 0
BITMAP
0003
0F03
3FFE
7FFE
63FC
4020
C000
0000
0000
0000
0000
1FFC
1FFC
0FF8
03F0
03E0
03E0
03E0
03E0
03E0
03E0
03E0
03E0
03E0
03E0
03E0
03E0
03E0
03E0
03E0
03E0
03E0
03E0
03E0
03E0
03E0
03E0
03E0
03E0
03E0
03E0
03E0
03E0
03E0
03E0
03E0
03E0
07F0
0FF8
1FFC
1FFC
ENDCHAR
STARTCHAR 00F0
ENCODING 240
SWIDTH 648 0
DWIDTH 36 0
BBX 38 61 -1 0
BITMAP
0000002000
0000C06000
0003FCC000
0007FFC000
000FFF8000
000C1F0000
0008000000
0000000000
0000000000
0000000000
001800C000
0008008000
000C018000
000F078000
0007FF0000
0003FE0000
0000F80000
0000000000
0000000000
0000000000
0000300000
0000780000
0000780000
0000FC0000
0000FE0000
0001FE0000
0001FF0000
0003DF0000
0003DF8000
00078F8000
00078FC000
000F07C000
000F07E000
001E03E000
001E03E000
001C01F000
003C01F000
003801F800
007800F800
007800FC00
0070007C00
00F0007C00
00F0007E00
01E0003E00
01FFFFFE00
01FFFFFF00
03FFFFFF00
03C0001F00
0380000F80
0780000F80
0780000F80
0F000007C0
0F000007C0
0F000007C0
1F000003E0
1F000003E0
1F000003E0
3F000003F0
3F80000FF8
FFC0001FFC
7FC0000FFC
ENDCHAR
STARTCHAR 00F1
ENCODING 241
SWIDTH 720 0
DWIDTH 40 0
BBX 39 40 0 0
BITMAP
3FFFFE0000
3FFFFFE000
1FFFFFF800
07E003FE00
07E0007F00
07C0001F80
07C0000FC0
07C00007E0
07C00003E0
07C00003F0
07C00001F8
07C00001F8
07C00000F8
07C00000FC
07C00000FC
07C00000FC
07C000007C
FFFFF8007C
FFFFF8007E
07C000007E
07C000007E
07C000007E
07C000007C
07C000007C
07C00000FC
07C00000FC
07C00000FC
07C00000F8
07C00001F8
07C00001F8
07C00003F0
07C00007E0
07C00007E0
07C0000FC0
07E0003F80
07E000FF00
07F003FC00
1FFFFFF000
3FFFFFC000
3FFFFC0000
ENDCHAR
STARTCHAR 00F2
ENCODING 242
SWIDTH 756 0
DWIDTH 42 0
BBX 39 55 2 -1
BITMAP
0006000000
000F000000
000F800000
000FC00000
0003E00000
0001F00000
0000780000
00003C0000
00000E0000
0000030000
0000000000
0000000000
0000000000
0001FF0000
000FFFE000
003FFFF800
00FF01FE00
01F8007F00
03F0001F80
07C0000FC0
0FC00007E0
1F800003E0
1F000003F0
3F000001F0
3E000001F8
7E000000F8
7E000000FC
7C000000FC
FC0000007C
FC0000007C
FC0000007C
FC0000007E
FC0000007E
FC0000007E
FC0000007E
FC0000007E
FC0000007E
FC0000007E
FC0000007C
FC0000007C
7C000000FC
7E000000FC
7E000000F8
3E000001F8
3F000001F8
1F000001F0
1F800003E0
0F800007E0
07C0000FC0
03E0001F80
01F8003F00
00FE01FE00
007FFFF800
001FFFE000
0003FF8000
ENDCHAR
STARTCHAR 00F3
ENCODING 243
SWIDTH 756 0
DWIDTH 42 0
BBX 39 55 2 -1
BITMAP
000000C000
000001E000
000003E000
000007C000
00000F8000
00001F0000
00003C0000
0000700000
0000E00000
0001800000
0000000000
0000000000
0000000000
0001FF0000
000FFFE000
003FFFF800
00FF01FE00
01F8007F00
03F0001F80
07C0000FC0
0FC00007E0
1F800003E0
1F000003F0
3F000001F0
3E000001F8
7E000000F8
7E000000FC
7C000000FC
FC0000007C
FC0000007C
FC0000007C
FC0000007E
FC0000007E
FC0000007E
FC0000007E
FC0000007E
FC0000007E
FC0000007E
FC0000007C
FC0000007C
7C000000FC
7E000000FC
7E000000F8
3E000001F8
3F000001F8
1F000001F0
1F800003E0
0F800007E0
07C0000FC0
03E0001F80
01F8003F00
00FE01FE00
007FFFF800
001FFFE000
0003FF8000
ENDCHAR
STARTCHAR 00F4
ENCODING 244
SWIDTH 756 0
DWIDTH 42 0
BBX 39 55 2 -1
BITMAP
0000380000
00007C0000
0000FC0000
0000FE0000
0001EF0000
0003C70000
0003838000
000701C000
000E00C000
000C006000
0000000000
0000000000
0000000000
0001FF0000
000FFFE000
003FFFF800
00FF01FE00
01F8007F00
03F0001F80
07C0000FC0
0FC00007E0
1F800003E0
1F000003F0
3F000001F0
3E000001F8
7E000000F8
7E000000FC
7C000000FC
FC0000007C
FC0000007C
FC0000007C
FC0000007E
FC0000007E
FC0000007E
FC0000007E
FC0000007E
FC0000007E
FC0000007E
FC0000007C
FC0000007C
7C000000FC
7E000000FC
7E000000F8
3E000001F8
3F000001F8
1F000001F0
1F800003E0
0F800007E0
07C0000FC0
03E0001F80
01F8003F00
00FE01FE00
007FFFF800
001FFFE000
0003FF8000
ENDCHAR
STARTCHAR 00F5
ENCODING 245
SWIDTH 756 0
DWIDTH 42 0
BBX 39 53 2 -1
BITMAP
0000006000
0001F06000
0007FFC000
0007FFC000
000C7F8000
0008000000
0008000000
0000000000
0000000000
0000000000
0000000000
0001FF0000
000FFFE000
003FFFF800
00FF01FE00
01F8007F00
03F0001F80
07C0000FC0
0FC00007E0
1F800003E0
1F000003F0
3F000001F0
3E000001F8
7E000000F8
7E000000FC
7C000000FC
FC0000007C
FC0000007C
FC0000007C
FC0000007E
FC0000007E
FC0000007E
FC0000007E
FC0000007E
FC0000007E
FC0000007E
FC0000007C
FC0000007C
7C000000FC
7E000000FC
7E000000F8
3E000001F8
3F000001F8
1F000001F0
1F800003E0
0F800007E0
07C0000FC0
03E0001F80
01F8003F00
00FE01FE00
007FFFF800
001FFFE000
0003FF8000
ENDCHAR
STARTCHAR 00F6
ENCODING 246
SWIDTH 756 0
DWIDTH 42 0
BBX 39 52 2 -1
BITMAP
000701C000
000F83C000
000F87E000
000F83E000
000783C000
0000000000
0000000000
0000000000
0000000000
0000000000
0001FF0000
000FFFE000
003FFFF800
00FF01FE00
01F8007F00
03F0001F80
07C0000FC0
0FC00007E0
1F800003E0
1F000003F0
3F000001F0
3E000001F8
7E000000F8
7E000000FC
7C000000FC
FC0000007C
FC0000007C
FC0000007C
FC0000007E
FC0000007E
FC0000007E
FC0000007E
FC0000007E
FC0000007E
FC0000007E
FC0000007C
FC0000007C
7C000000FC
7E000000FC
7E000000F8
3E000001F8
3F000001F8
1F000001F0
1F800003E0
0F800007E0
07C0000FC0
03E0001F80
01F8003F00
00FE01FE00
007FFFF800
001FFFE000
0003FF8000
ENDCHAR
STARTCHAR 00F7
ENCODING 247
SWIDTH 756 0
DWIDTH 42 0
BBX 39 51 2 -1
BITMAP
00000003E0
0000000630
0000000618
0000000018
0000000018
0000000018
0000000030
00000000E0
00000003C0
0001FF0600
000FFFE400
003FFFFC00
00FF01FE00
01F8007F00
03F0001F80
07C0000FC0
0FC00007E0
1F800003E0
1F000003F0
3F000001F0
3E000001F8
7E000000F8
7E000000FC
7C000000FC
FC0000007C
FC0000007C
FC0000007C
FC0000007E
FC0000007E
FC0000007E
FC0000007E
FC0000007E
FC0000007E
FC0000007E
FC0000007C
FC0000007C
7C000000FC
7E000000FC
7E000000F8
3E000001F8
3F000001F8
1F000001F0
1F800003E0
0F800007E0
07C0000FC0
03E0001F80
01F8003F00
00FE01FE00
007FFFF800
001FFFE000
0003FF8000
ENDCHAR
STARTCHAR 00F8
ENCODING 248
SWIDTH 702 0
DWIDTH 39 0
BBX 37 50 1 -10
BITMAP
7FF0003FF0
FFF0003FF8
7FE0001FF0
1FC00007C0
1F800007C0
1F800003C0
1F000003C0
1F000003C0
1F000003C0
1F000003C0
1F000003C0
1F000003C0
1F000003C0
1F000003C0
1F000003C0
1F000003C0
1F000003C0
1E000003C0
1E000003C0
1E000001C0
1E000001C0
1E000001E0
1E000001E0
1E000001E0
1E000003E0
1E000003C0
1F000003C0
1F000003C0
1F000003C0
1F000003C0
1F000003C0
0F80000780
0F80000780
0FC0000F80
07C0001F00
07F0003E00
03F8007E00
01FF03FC00
00FFFFF000
003FFFE000
000FFF0000
0000000000
0000000000
0000000000
0000F00000
0000F80000
0001F80000
0001F80000
0000F80000
0000700000
ENDCHAR
STARTCHAR 00F9
ENCODING 249
SWIDTH 702 0
DWIDTH 39 0
BBX 37 55 1 -1
BITMAP
0006000000
000F000000
000F800000
000FC00000
0003E00000
0001F00000
0000780000
00003C0000
00000E0000
0000030000
0000000000
0000000000
0000000000
0000000000
7FF0003FF0
FFF0003FF8
7FE0001FF0
1FC00007C0
1F800007C0
1F800003C0
1F000003C0
1F000003C0
1F000003C0
1F000003C0
1F000003C0
1F000003C0
1F000003C0
1F000003C0
1F000003C0
1F000003C0
1F000003C0
1E000003C0
1E000003C0
1E000001C0
1E000001C0
1E000001E0
1E000001E0
1E000001E0
1E000003E0
1E000003C0
1F000003C0
1F000003C0
1F000003C0
1F000003C0
1F000003C0
0F80000780
0F80000780
0FC0000F80
07C0001F00
07F0003E00
03F8007E00
01FF03FC00
00FFFFF000
003FFFE000
000FFF0000
ENDCHAR
STARTCHAR 00FA
ENCODING 250
SWIDTH 702 0
DWIDTH 39 0
BBX 37 55 1 -1
BITMAP
000000C000
000001E000
000003E000
000007C000
00000F8000
00001F0000
00003C0000
0000700000
0000E00000
0001800000
0000000000
0000000000
0000000000
0000000000
7FF0003FF0
FFF0003FF8
7FE0001FF0
1FC00007C0
1F800007C0
1F800003C0
1F000003C0
1F000003C0
1F000003C0
1F000003C0
1F000003C0
1F000003C0
1F000003C0
1F000003C0
1F000003C0
1F000003C0
1F000003C0
1E000003C0
1E000003C0
1E000001C0
1E000001C0
1E000001E0
1E000001E0
1E000001E0
1E000003E0
1E000003C0
1F000003C0
1F000003C0
1F000003C0
1F000003C0
1F000003C0
0F80000780
0F80000780
0FC0000F80
07C0001F00
07F0003E00
03F8007E00
01FF03FC00
00FFFFF000
003FFFE000
000FFF0000
ENDCHAR
STARTCHAR 00FB
ENCODING 251
SWIDTH 702 0
DWIDTH 39 0
BBX 37 58 1 -1
BITMAP
0000080000
0000330000
0000618000
0000618000
0000018000
0000018000
0000018000
0000030000
0000070000
00001C0000
0000100000
0000100000
0000100000
0000000000
0000000000
0000000000
0000000000
7FF0003FF0
FFF0003FF8
7FE0001FF0
1FC00007C0
1F800007C0
1F800003C0
1F000003C0
1F000003C0
1F000003C0
1F000003C0
1F000003C0
1F000003C0
1F000003C0
1F000003C0
1F000003C0
1F000003C0
1F000003C0
1E000003C0
1E000003C0
1E000001C0
1E000001C0
1E000001E0
1E000001E0
1E000001E0
1E000003E0
1E000003C0
1F000003C0
1F000003C0
1F000003C0
1F000003C0
1F000003C0
0F80000780
0F80000780
0FC0000F80
07C0001F00
07F0003E00
03F8007E00
01FF03FC00
00FFFFF000
003FFFE000
000FFF0000
ENDCHAR
STARTCHAR 00FC
ENCODING 252
SWIDTH 702 0
DWIDTH 39 0
BBX 37 52 1 -1
BITMAP
000701C000
000F83C000
000F87E000
000F87E000
000783C000
0000000000
0000000000
0000000000
0000000000
0000000000
0000000000
7FF0003FF0
FFF0003FF8
7FE0001FF0
1FC00007C0
1F800007C0
1F800003C0
1F000003C0
1F000003C0
1F000003C0
1F000003C0
1F000003C0
1F000003C0
1F000003C0
1F000003C0
1F000003C0
1F000003C0
1F000003C0
1E000003C0
1E000003C0
1E000001C0
1E000001C0
1E000001E0
1E000001E0
1E000001E0
1E000003E0
1E000003C0
1F000003C0
1F000003C0
1F000003C0
1F000003C0
1F000003C0
0F80000780
0F80000780
0FC0000F80
07C0001F00
07F0003E00
03F8007E00
01FF03FC00
00FFFFF000
003FFFE000
000FFF0000
ENDCHAR
STARTCHAR 00FD
ENCODING 253
SWIDTH 648 0
DWIDTH 36 0
BBX 37 56 -1 0
BITMAP
00007C0000
0000820000
0001C30000
0000030000
0000030000
0000030000
0000060000
00000C0000
0000380000
0000200000
0000200000
0000200000
0000000000
0000000000
0000000000
0000000000
FFE0001FF8
FFE0000FF8
7FC00007F0
1F800003E0
0F800003E0
0FC00003C0
07C0000780
07E0000780
03E0000F00
01F0000E00
01F8001E00
00F8001C00
007C003800
007E007800
003F007000
001F00E000
001F81E000
000FC3C000
0007E38000
0003E78000
0003FF0000
0001FE0000
0000FC0000
0000FC0000
00007C0000
00007C0000
00007C0000
00007C0000
00007C0000
00007C0000
00007C0000
00007C0000
00007C0000
00007C0000
00007C0000
00007C0000
0000FC0000
0001FF0000
0003FF8000
0003FF8000
ENDCHAR
STARTCHAR 00FE
ENCODING 254
SWIDTH 612 0
DWIDTH 34 0
BBX 31 51 2 0
BITMAP
00000400
003E0C00
007FFC00
00FFF800
00CFF000
01804000
01000000
00000000
00000000
00000000
00000000
FFFFFFF8
FFFFFFF8
7FFFFFF8
3F8001FC
1F00003C
1F00001C
1F00000C
1F000000
1F000000
1F000000
1F000000
1F000000
1F000000
1F000000
1F000000
1F000180
1F0007C0
1FFFFFC0
1FFFFFC0
1FFFFFC0
1F0001C0
1F000000
1F000000
1F000000
1F000000
1F000000
1F000000
1F000000
1F000000
1F000000
1F000000
1F000000
1F000002
1F000006
1F00000E
1F00003E
3FC001FE
7FFFFFFE
FFFFFFFE
FFFFFFFC
ENDCHAR
STARTCHAR 00FF
ENCODING 255
SWIDTH 648 0
DWIDTH 36 0
BBX 37 53 -1 0
BITMAP
003C000000
003E000000
003F000000
001F800000
0007C00000
0003E00000
0000F00000
0000380000
00001C0000
0000000000
0000000000
0000000000
0000000000
FFE0001FF8
FFE0000FF8
7FC00007F0
1F800003E0
0F800003E0
0FC00003C0
07C0000780
07E0000780
03E0000F00
01F0000E00
01F8001E00
00F8001C00
007C003800
007E007800
003F007000
001F00E000
001F81E000
000FC3C000
0007E38000
0003E78000
0003FF0000
0001FE0000
0000FC0000
0000FC0000
00007C0000
00007C0000
00007C0000
00007C0000
00007C0000
00007C0000
00007C0000
00007C0000
00007C0000
00007C0000
00007C0000
00007C0000
0000FC0000
0001FF0000
0003FF8000
0003FF8000
ENDCHAR
STARTCHAR 0106
ENCODING 262
SWIDTH 684 0
DWIDTH 38 0
BBX 0 0 0 0
BITMAP
ENDCHAR
STARTCHAR 0107
ENCODING 263
SWIDTH 432 0
DWIDTH 24 0
BBX 0 0 0 0
BITMAP
ENDCHAR
STARTCHAR 010C
ENCODING 268
SWIDTH 684 0
DWIDTH 38 0
BBX 0 0 0 0
BITMAP
ENDCHAR
STARTCHAR 010D
ENCODING 269
SWIDTH 432 0
DWIDTH 24 0
BBX 0 0 0 0
BITMAP
ENDCHAR
STARTCHAR 0111
ENCODING 273
SWIDTH 558 0
DWIDTH 31 0
BBX 0 0 0 0
BITMAP
ENDCHAR
STARTCHAR 011E
ENCODING 286
SWIDTH 756 0
DWIDTH 42 0
BBX 0 0 0 0
BITMAP
ENDCHAR
STARTCHAR 011F
ENCODING 287
SWIDTH 486 0
DWIDTH 27 0
BBX 0 0 0 0
BITMAP
ENDCHAR
STARTCHAR 0130
ENCODING 304
SWIDTH 270 0
DWIDTH 15 0
BBX 0 0 0 0
BITMAP
ENDCHAR
STARTCHAR 0131
ENCODING 305
SWIDTH 234 0
DWIDTH 13 0
BBX 0 0 0 0
BITMAP
ENDCHAR
STARTCHAR 0141
ENCODING 321
SWIDTH 576 0
DWIDTH 32 0
BBX 0 0 0 0
BITMAP
ENDCHAR
STARTCHAR 0142
ENCODING 322
SWIDTH 216 0
DWIDTH 12 0
BBX 0 0 0 0
BITMAP
ENDCHAR
STARTCHAR 0152
ENCODING 338
SWIDTH 612 0
DWIDTH 34 0
BBX 31 63 2 -9
BITMAP
0003C000
0003C000
0007E000
000FF000
000FF000
001E7800
003C1C00
00300C00
00600600
00C00300
00000000
00000000
00000000
00000000
FFFFFFF8
FFFFFFF8
7FFFFFF8
3F8001FC
1F00003C
1F00001C
1F00000C
1F000000
1F000000
1F000000
1F000000
1F000000
1F000000
1F000000
1F000000
1F000180
1F0007C0
1FFFFFC0
1FFFFFC0
1FFFFFC0
1F0001C0
1F000000
1F000000
1F000000
1F000000
1F000000
1F000000
1F000000
1F000000
1F000000
1F000000
1F000000
1F000002
1F000006
1F00000E
1F00003E
3FC001FE
7FFFFFFE
FFFFFFFE
FFFFFFFC
00000000
00000000
00000000
00008000
0003E000
0007E000
0007E000
0007E000
0003C000
ENDCHAR
STARTCHAR 0153
ENCODING 339
SWIDTH 648 0
DWIDTH 36 0
BBX 37 49 -1 -9
BITMAP
FFE0001FF8
FFE0000FF8
7FC00007F0
1F800003E0
0F800003E0
0FC00003C0
07C0000780
07E0000780
03E0000F00
01F0000E00
01F8001E00
00F8001C00
007C003800
007E007800
003F007000
001F00E000
001F81E000
000FC3C000
0007E38000
0003E78000
0003FF0000
0001FE0000
0000FC0000
0000FC0000
00007C0000
00007C0000
00007C0000
00007C0000
00007C0000
00007C0000
00007C0000
00007C0000
00007C0000
00007C0000
00007C0000
00007C0000
0000FC0000
0001FF0000
0003FF8000
0003FF8000
0000000000
0000000000
0000000000
0000380000
00007C0000
00007E0000
00007E0000
00007C0000
0000380000
ENDCHAR
STARTCHAR 015E
ENCODING 350
SWIDTH 576 0
DWIDTH 32 0
BBX 0 0 0 0
BITMAP
ENDCHAR
STARTCHAR 015F
ENCODING 351
SWIDTH 378 0
DWIDTH 21 0
BBX 0 0 0 0
BITMAP
ENDCHAR
STARTCHAR 0160
ENCODING 352
SWIDTH 612 0
DWIDTH 34 0
BBX 32 60 1 0
BITMAP
E0000000
F0000000
F8000000
7C000000
3E000000
0F000000
0781E000
01C1E000
00E3F000
0037F800
0007F800
000F3C00
001E0E00
00180600
00300300
00600180
00000000
00000000
00000000
00000000
7FFFFFFC
7FFFFFFC
3FFFFFFC
1FC000FE
0F80001E
0F80000E
0F800006
0F800000
0F800000
0F800000
0F800000
0F800000
0F800000
0F800000
0F800000
0F8000C0
0F8003E0
0FFFFFE0
0FFFFFE0
0FFFFFE0
0F8000E0
0F800000
0F800000
0F800000
0F800000
0F800000
0F800000
0F800000
0F800000
0F800000
0F800000
0F800000
0F800001
0F800003
0F800007
0F80001F
1FE000FF
3FFFFFFF
7FFFFFFF
7FFFFFFE
ENDCHAR
STARTCHAR 0161
ENCODING 353
SWIDTH 648 0
DWIDTH 36 0
BBX 37 54 -1 0
BITMAP
000000C000
000001E000
000003E000
000007C000
00000F8000
00001E0000
00003C0000
0000700000
0000E00000
0001800000
0000000000
0000000000
0000000000
0000000000
FFE0001FF8
FFE0000FF8
7FC00007F0
1F800003E0
0F800003E0
0FC00003C0
07C0000780
07E0000780
03E0000F00
01F0000E00
01F8001E00
00F8001C00
007C003800
007E007800
003F007000
001F00E000
001F81E000
000FC3C000
0007E38000
0003E78000
0003FF0000
0001FE0000
0000FC0000
0000FC0000
00007C0000
00007C0000
00007C0000
00007C0000
00007C0000
00007C0000
00007C0000
00007C0000
00007C0000
00007C0000
00007C0000
00007C0000
0000FC0000
0001FF0000
0003FF8000
0003FF8000
ENDCHAR
STARTCHAR 0178
ENCODING 376
SWIDTH 756 0
DWIDTH 42 0
BBX 39 61 2 -1
BITMAP
00003C0000
0000630000
0000C10000
0000C18000
0000018000
0000018000
0000030000
0000070000
00000E0000
0000180000
00001003E0
0000100630
0000000618
0000000018
0000000018
0000000018
0000000030
00000000E0
00000003C0
0001FF0600
000FFFE400
003FFFFC00
00FF01FE00
01F8007F00
03F0001F80
07C0000FC0
0FC00007E0
1F800003E0
1F000003F0
3F000001F0
3E000001F8
7E000000F8
7E000000FC
7C000000FC
FC0000007C
FC0000007C
FC0000007C
FC0000007E
FC0000007E
FC0000007E
FC0000007E
FC0000007E
FC0000007E
FC0000007E
FC0000007C
FC0000007C
7C000000FC
7E000000FC
7E000000F8
3E000001F8
3F000001F8
1F000001F0
1F800003E0
0F800007E0
07C0000FC0
03E0001F80
01F8003F00
00FE01FE00
007FFFF800
001FFFE000
0003FF8000
ENDCHAR
STARTCHAR 017D
ENCODING 381
SWIDTH 540 0
DWIDTH 30 0
BBX 0 0 0 0
BITMAP
ENDCHAR
STARTCHAR 017E
ENCODING 382
SWIDTH 378 0
DWIDTH 21 0
BBX 0 0 0 0
BITMAP
ENDCHAR
STARTCHAR 0192
ENCODING 402
SWIDTH 648 0
DWIDTH 36 0
BBX 38 60 -1 0
BITMAP
0000000038
000000007C
00000000FC
00000001F8
00000003E0
00000007C0
0000380F00
00007C1E00
0000FC3800
0000FE6000
0001EF0000
0003C70000
0003838000
000701C000
000E00C000
000C006000
0000000000
0000000000
0000000000
0000300000
0000780000
0000780000
0000FC0000
0000FE0000
0001FE0000
0001FF0000
0003DF0000
0003DF8000
00078F8000
00078FC000
000F07C000
000F07E000
001E03E000
001E03E000
001C01F000
003C01F000
003801F800
007800F800
007800FC00
0070007C00
00F0007C00
00F0007E00
01E0003E00
01FFFFFE00
01FFFFFF00
03FFFFFF00
03C0001F00
0380000F80
0780000F80
0780000F80
0F000007C0
0F000007C0
0F000007C0
1F000003E0
1F000003E0
1F000003E0
3F000003F0
3F80000FF8
FFC0001FFC
7FC0000FFC
ENDCHAR
STARTCHAR 02C6
ENCODING 710
SWIDTH 648 0
DWIDTH 36 0
BBX 38 51 -1 0
BITMAP
001800C000
0008008000
000C018000
000F078000
0007FF0000
0003FE0000
0000F80000
0000000000
0000000000
0000000000
0000300000
0000780000
0000780000
0000FC0000
0000FE0000
0001FE0000
0001FF0000
0003DF0000
0003DF8000
00078F8000
00078FC000
000F07C000
000F07E000
001E03E000
001E03E000
001C01F000
003C01F000
003801F800
007800F800
007800FC00
0070007C00
00F0007C00
00F0007E00
01E0003E00
01FFFFFE00
01FFFFFF00
03FFFFFF00
03C0001F00
0380000F80
0780000F80
0780000F80
0F000007C0
0F000007C0
0F000007C0
1F000003E0
1F000003E0
1F000003E0
3F000003F0
3F80000FF8
FFC0001FFC
7FC0000FFC
ENDCHAR
STARTCHAR 02C7
ENCODING 711
SWIDTH 486 0
DWIDTH 27 0
BBX 0 0 0 0
BITMAP
ENDCHAR
STARTCHAR 02DA
ENCODING 730
SWIDTH 486 0
DWIDTH 27 0
BBX 0 0 0 0
BITMAP
ENDCHAR
STARTCHAR 02DB
ENCODING 731
SWIDTH 486 0
DWIDTH 27 0
BBX 0 0 0 0
BITMAP
ENDCHAR
STARTCHAR 02DC
ENCODING 732
SWIDTH 756 0
DWIDTH 42 0
BBX 39 63 2 -1
BITMAP
0000001F00
0000002180
0000006080
00000020C0
00000000C0
00000000C0
0000000180
0000000380
0000380E00
00007C0800
0000FC0800
0000FE0800
0001EF0000
0003C70000
0003838000
000701C000
000E00C000
000C006000
0000000000
0000000000
0000000000
0001FF0000
000FFFE000
003FFFF800
00FF01FE00
01F8007F00
03F0001F80
07C0000FC0
0FC00007E0
1F800003E0
1F000003F0
3F000001F0
3E000001F8
7E000000F8
7E000000FC
7C000000FC
FC0000007C
FC0000007C
FC0000007C
FC0000007E
FC0000007E
FC0000007E
FC0000007E
FC0000007E
FC0000007E
FC0000007E
FC0000007C
FC0000007C
7C000000FC
7E000000FC
7E000000F8
3E000001F8
3F000001F8
1F000001F0
1F800003E0
0F800007E0
07C0000FC0
03E0001F80
01F8003F00
00FE01FE00
007FFFF800
001FFFE000
0003FF8000
ENDCHAR
STARTCHAR 03A9
ENCODING 937
SWIDTH 756 0
DWIDTH 42 0
BBX 0 0 0 0
BITMAP
ENDCHAR
STARTCHAR 03C0
ENCODING 960
SWIDTH 648 0
DWIDTH 36 0
BBX 0 0 0 0
BITMAP
ENDCHAR
STARTCHAR 2013
ENCODING 8211
SWIDTH 756 0
DWIDTH 42 0
BBX 39 61 2 -1
BITMAP
0000000030
0000000078
00000000F8
00000001F0
00000003E0
00000007C0
0000380F00
00007C1C00
0000FC3800
0000FE6000
0001EF0000
0003C70000
0003838000
000701C000
000E00C000
000C006000
0000000000
0000000000
0000000000
0001FF0000
000FFFE000
003FFFF800
00FF01FE00
01F8007F00
03F0001F80
07C0000FC0
0FC00007E0
1F800003E0
1F000003F0
3F000001F0
3E000001F8
7E000000F8
7E000000FC
7C000000FC
FC0000007C
FC0000007C
FC0000007C
FC0000007E
FC0000007E
FC0000007E
FC0000007E
FC0000007E
FC0000007E
FC0000007E
FC0000007C
FC0000007C
7C000000FC
7E000000FC
7E000000F8
3E000001F8
3F000001F8
1F000001F0
1F800003E0
0F800007E0
07C0000FC0
03E0001F80
01F8003F00
00FE01FE00
007FFFF800
001FFFE000
0003FF8000
ENDCHAR
STARTCHAR 2014
ENCODING 8212
SWIDTH 756 0
DWIDTH 42 0
BBX 39 61 2 -1
BITMAP
3800000000
3C00000000
3E00000000
3F00000000
0F80000000
07C0000000
01E0380000
00707C0000
0038FC0000
000CFE0000
0001EF0000
0003C70000
0003838000
000701C000
000E00C000
000C006000
0000000000
0000000000
0000000000
0001FF0000
000FFFE000
003FFFF800
00FF01FE00
01F8007F00
03F0001F80
07C0000FC0
0FC00007E0
1F800003E0
1F000003F0
3F000001F0
3E000001F8
7E000000F8
7E000000FC
7C000000FC
FC0000007C
FC0000007C
FC0000007C
FC0000007E
FC0000007E
FC0000007E
FC0000007E
FC0000007E
FC0000007E
FC0000007E
FC0000007C
FC0000007C
7C000000FC
7E000000FC
7E000000F8
3E000001F8
3F000001F8
1F000001F0
1F800003E0
0F800007E0
07C0000FC0
03E0001F80
01F8003F00
00FE01FE00
007FFFF800
001FFFE000
0003FF8000
ENDCHAR
STARTCHAR 2018
ENCODING 8216
SWIDTH 270 0
DWIDTH 15 0
BBX 7 15 5 26
BITMAP
04
0C
18
30
20
60
60
E0
E0
FC
FE
FE
7E
7C
18
ENDCHAR
STARTCHAR 2019
ENCODING 8217
SWIDTH 270 0
DWIDTH 15 0
BBX 7 15 3 26
BITMAP
78
7C
FE
FE
FE
7E
06
06
0C
0C
08
18
30
60
40
ENDCHAR
STARTCHAR 201A
ENCODING 8218
SWIDTH 648 0
DWIDTH 36 0
BBX 38 52 -1 0
BITMAP
0000006000
0003F06000
0007FFC000
0007FFC000
000C7F8000
0008000000
0008000000
0000000000
0000000000
0000000000
0000000000
0000300000
0000780000
0000780000
0000FC0000
0000FE0000
0001FE0000
0001FF0000
0003DF0000
0003DF8000
00078F8000
00078FC000
000F07C000
000F07E000
001E03E000
001E03E000
001C01F000
003C01F000
003801F800
007800F800
007800FC00
0070007C00
00F0007C00
00F0007E00
01E0003E00
01FFFFFE00
01FFFFFF00
03FFFFFF00
03C0001F00
0380000F80
0780000F80
0780000F80
0F000007C0
0F000007C0
0F000007C0
1F000003E0
1F000003E0
1F000003E0
3F000003F0
3F80000FF8
FFC0001FFC
7FC0000FFC
ENDCHAR
STARTCHAR 201C
ENCODING 8220
SWIDTH 612 0
DWIDTH 34 0
BBX 32 60 1 0
BITMAP
E0000000
F0000000
F8000000
7C000000
3E000000
0F000000
0781E000
01C1E000
00E3F000
0037F800
0007F800
000F3C00
001E0E00
00180600
00300300
00600180
00000000
00000000
00000000
00000000
7FFFFFFC
7FFFFFFC
3FFFFFFC
1FC000FE
0F80001E
0F80000E
0F800006
0F800000
0F800000
0F800000
0F800000
0F800000
0F800000
0F800000
0F800000
0F8000C0
0F8003E0
0FFFFFE0
0FFFFFE0
0FFFFFE0
0F8000E0
0F800000
0F800000
0F800000
0F800000
0F800000
0F800000
0F800000
0F800000
0F800000
0F800000
0F800000
0F800001
0F800003
0F800007
0F80001F
1FE000FF
3FFFFFFF
7FFFFFFF
7FFFFFFE
ENDCHAR
STARTCHAR 201D
ENCODING 8221
SWIDTH 612 0
DWIDTH 34 0
BBX 31 63 2 0
BITMAP
000000E0
00000318
00000208
0000030C
0000000C
0000000C
0000000C
00000018
00000070
0003C0E0
0003C080
0007E080
000FF080
000FF000
001E7800
003C1C00
00300C00
00600600
00C00300
00000000
00000000
00000000
00000000
FFFFFFF8
FFFFFFF8
7FFFFFF8
3F8001FC
1F00003C
1F00001C
1F00000C
1F000000
1F000000
1F000000
1F000000
1F000000
1F000000
1F000000
1F000000
1F000180
1F0007C0
1FFFFFC0
1FFFFFC0
1FFFFFC0
1F0001C0
1F000000
1F000000
1F000000
1F000000
1F000000
1F000000
1F000000
1F000000
1F000000
1F000000
1F000000
1F000002
1F000006
1F00000E
1F00003E
3FC001FE
7FFFFFFE
FFFFFFFE
FFFFFFFC
ENDCHAR
STARTCHAR 201E
ENCODING 8222
SWIDTH 648 0
DWIDTH 36 0
BBX 38 60 -1 0
BITMAP
3800000000
3C00000000
3E00000000
1F00000000
0F80000000
03C0000000
01E0380000
00707C0000
0018FC0000
000CFE0000
0001EF0000
0003C70000
0003838000
000701C000
000E00C000
000C006000
0000000000
0000000000
0000000000
0000300000
0000780000
0000780000
0000FC0000
0000FE0000
0001FE0000
0001FF0000
0003DF0000
0003DF8000
00078F8000
00078FC000
000F07C000
000F07E000
001E03E000
001E03E000
001C01F000
003C01F000
003801F800
007800F800
007800FC00
0070007C00
00F0007C00
00F0007E00
01E0003E00
01FFFFFE00
01FFFFFF00
03FFFFFF00
03C0001F00
0380000F80
0780000F80
0780000F80
0F000007C0
0F000007C0
0F000007C0
1F000003E0
1F000003E0
1F000003E0
3F000003F0
3F80000FF8
FFC0001FFC
7FC0000FFC
ENDCHAR
STARTCHAR 2020
ENCODING 8224
SWIDTH 756 0
DWIDTH 42 0
BBX 39 51 2 -10
BITMAP
0001FF0000
000FFFE000
003FFFF800
00FF01FE00
01F8007F00
03F0001F80
07C0000FC0
0FC00007E0
1F800003E0
1F000003F0
3F000001F0
3E000001F8
7E000000F8
7E000000FC
7C000000FC
FC0000007C
FC0000007C
FC0000007C
FC0000007E
FC0000007E
FC0000007E
FC0000007E
FC0000007E
FC0000007E
FC0000007E
FC0000007C
FC0000007C
7C000000FC
7E000000FC
7E000000F8
3E000001F8
3F000001F8
1F000001F0
1F800003E0
0F800007E0
07C0000FC0
03E0001F80
01F8003F00
00FE01FE00
007FFFF800
001FFFE000
0003FF8000
0000000000
0000000000
0000000000
00003C0000
00007C0000
00007E0000
00007E0000
00007C0000
0000380000
ENDCHAR
STARTCHAR 2021
ENCODING 8225
SWIDTH 756 0
DWIDTH 42 0
BBX 39 62 2 -1
BITMAP
0000002000
0000E06000
0003FFE000
0007FFC000
000FFF8000
000C0E0000
0008000000
0000380000
00007C0000
0000FC0000
0000FE0000
0001EF0000
0003C70000
0003838000
000701C000
000E00C000
000C006000
0000000000
0000000000
0000000000
0001FF0000
000FFFE000
003FFFF800
00FF01FE00
01F8007F00
03F0001F80
07C0000FC0
0FC00007E0
1F800003E0
1F000003F0
3F000001F0
3E000001F8
7E000000F8
7E000000FC
7C000000FC
FC0000007C
FC0000007C
FC0000007C
FC0000007E
FC0000007E
FC0000007E
FC0000007E
FC0000007E
FC0000007E
FC0000007E
FC0000007C
FC0000007C
7C000000FC
7E000000FC
7E000000F8
3E000001F8
3F000001F8
1F000001F0
1F800003E0
0F800007E0
07C0000FC0
03E0001F80
01F8003F00
00FE01FE00
007FFFF800
001FFFE000
0003FF8000
ENDCHAR
STARTCHAR 2022
ENCODING 8226
SWIDTH 612 0
DWIDTH 34 0
BBX 31 61 2 0
BITMAP
00000100
00060300
001FE600
003FFE00
007FFC00
0060F800
00400000
0003C000
0003C000
0007E000
000FF000
000FF000
001E7800
003C1C00
00300C00
00600600
00C00300
00000000
00000000
00000000
00000000
FFFFFFF8
FFFFFFF8
7FFFFFF8
3F8001FC
1F00003C
1F00001C
1F00000C
1F000000
1F000000
1F000000
1F000000
1F000000
1F000000
1F000000
1F000000
1F000180
1F0007C0
1FFFFFC0
1FFFFFC0
1FFFFFC0
1F0001C0
1F000000
1F000000
1F000000
1F000000
1F000000
1F000000
1F000000
1F000000
1F000000
1F000000
1F000000
1F000002
1F000006
1F00000E
1F00003E
3FC001FE
7FFFFFFE
FFFFFFFE
FFFFFFFC
ENDCHAR
STARTCHAR 2026
ENCODING 8230
SWIDTH 648 0
DWIDTH 36 0
BBX 38 63 -1 0
BITMAP
0000003C00
0000004600
000000C300
000000C100
0000000100
0000000100
0000000300
0000000700
0000001E00
0000381800
00007C1000
0000FC1000
0000FE0000
0001EF0000
0003C70000
0003838000
000701C000
000E00C000
000C006000
0000000000
0000000000
0000000000
0000300000
0000780000
0000780000
0000FC0000
0000FE0000
0001FE0000
0001FF0000
0003DF0000
0003DF8000
00078F8000
00078FC000
000F07C000
000F07E000
001E03E000
001E03E000
001C01F000
003C01F000
003801F800
007800F800
007800FC00
0070007C00
00F0007C00
00F0007E00
01E0003E00
01FFFFFE00
01FFFFFF00
03FFFFFF00
03C0001F00
0380000F80
0780000F80
0780000F80
0F000007C0
0F000007C0
0F000007C0
1F000003E0
1F000003E0
1F000003E0
3F000003F0
3F80000FF8
FFC0001FFC
7FC0000FFC
ENDCHAR
STARTCHAR 2030
ENCODING 8240
SWIDTH 612 0
DWIDTH 34 0
BBX 34 60 2 0
BITMAP
0000000380
00000007C0
0000000F80
0000001F00
0000003E00
0000007800
0003C0F000
0003C1C000
0007E30000
000FF00000
000FF00000
001E780000
003C1C0000
00300C0000
0060060000
00C0030000
0000000000
0000000000
0000000000
0000000000
FFFFFFF800
FFFFFFF800
7FFFFFF800
3F8001FC00
1F00003C00
1F00001C00
1F00000C00
1F00000000
1F00000000
1F00000000
1F00000000
1F00000000
1F00000000
1F00000000
1F00000000
1F00018000
1F0007C000
1FFFFFC000
1FFFFFC000
1FFFFFC000
1F0001C000
1F00000000
1F00000000
1F00000000
1F00000000
1F00000000
1F00000000
1F00000000
1F00000000
1F00000000
1F00000000
1F00000000
1F00000200
1F00000600
1F00000E00
1F00003E00
3FC001FE00
7FFFFFFE00
FFFFFFFE00
FFFFFFFC00
ENDCHAR
STARTCHAR 2039
ENCODING 8249
SWIDTH 612 0
DWIDTH 34 0
BBX 31 63 2 0
BITMAP
000000E0
00000318
00000208
0000030C
0000000C
0000000C
0000000C
00000018
00000070
0003C0E0
0003C080
0007E080
000FF080
000FF000
001E7800
003C1C00
00300C00
00600600
00C00300
00000000
00000000
00000000
00000000
FFFFFFF8
FFFFFFF8
7FFFFFF8
3F8001FC
1F00003C
1F00001C
1F00000C
1F000000
1F000000
1F000000
1F000000
1F000000
1F000000
1F000000
1F000000
1F000180
1F0007C0
1FFFFFC0
1FFFFFC0
1FFFFFC0
1F0001C0
1F000000
1F000000
1F000000
1F000000
1F000000
1F000000
1F000000
1F000000
1F000000
1F000000
1F000000
1F000002
1F000006
1F00000E
1F00003E
3FC001FE
7FFFFFFE
FFFFFFFE
FFFFFFFC
ENDCHAR
STARTCHAR 203A
ENCODING 8250
SWIDTH 648 0
DWIDTH 36 0
BBX 37 56 -1 0
BITMAP
00007C0000
0000820000
0001C30000
0000030000
0000030000
0000030000
0000060000
00000C0000
0000380000
0000200000
0000200000
0000200000
0000000000
0000000000
0000000000
0000000000
FFE0001FF8
FFE0000FF8
7FC00007F0
1F800003E0
0F800003E0
0FC00003C0
07C0000780
07E0000780
03E0000F00
01F0000E00
01F8001E00
00F8001C00
007C003800
007E007800
003F007000
001F00E000
001F81E000
000FC3C000
0007E38000
0003E78000
0003FF0000
0001FE0000
0000FC0000
0000FC0000
00007C0000
00007C0000
00007C0000
00007C0000
00007C0000
00007C0000
00007C0000
00007C0000
00007C0000
00007C0000
00007C0000
00007C0000
0000FC0000
0001FF0000
0003FF8000
0003FF8000
ENDCHAR
STARTCHAR 20A3
ENCODING 8355
SWIDTH 882 0
DWIDTH 49 0
BBX 0 0 0 0
BITMAP
ENDCHAR
STARTCHAR 2122
ENCODING 8482
SWIDTH 756 0
DWIDTH 42 0
BBX 39 62 2 -1
BITMAP
0000002000
0000E06000
0003FFE000
0007FFC000
000FFF8000
000C0E0000
0008000000
0000380000
00007C0000
0000FC0000
0000FE0000
0001EF0000
0003C70000
0003838000
000701C000
000E00C000
000C006000
0000000000
0000000000
0000000000
0001FF0000
000FFFE000
003FFFF800
00FF01FE00
01F8007F00
03F0001F80
07C0000FC0
0FC00007E0
1F800003E0
1F000003F0
3F000001F0
3E000001F8
7E000000F8
7E000000FC
7C000000FC
FC0000007C
FC0000007C
FC0000007C
FC0000007E
FC0000007E
FC0000007E
FC0000007E
FC0000007E
FC0000007E
FC0000007E
FC0000007C
FC0000007C
7C000000FC
7E000000FC
7E000000F8
3E000001F8
3F000001F8
1F000001F0
1F800003E0
0F800007E0
07C0000FC0
03E0001F80
01F8003F00
00FE01FE00
007FFFF800
001FFFE000
0003FF8000
ENDCHAR
STARTCHAR 2202
ENCODING 8706
SWIDTH 504 0
DWIDTH 28 0
BBX 0 0 0 0
BITMAP
ENDCHAR
STARTCHAR 2206
ENCODING 8710
SWIDTH 576 0
DWIDTH 32 0
BBX 0 0 0 0
BITMAP
ENDCHAR
STARTCHAR 220F
ENCODING 8719
SWIDTH 774 0
DWIDTH 43 0
BBX 0 0 0 0
BITMAP
ENDCHAR
STARTCHAR 2211
ENCODING 8721
SWIDTH 684 0
DWIDTH 38 0
BBX 0 0 0 0
BITMAP
ENDCHAR
STARTCHAR 2212
ENCODING 8722
SWIDTH 828 0
DWIDTH 46 0
BBX 0 0 0 0
BITMAP
ENDCHAR
STARTCHAR 2215
ENCODING 8725
SWIDTH 162 0
DWIDTH 9 0
BBX 0 0 0 0
BITMAP
ENDCHAR
STARTCHAR 2219
ENCODING 8729
SWIDTH 270 0
DWIDTH 15 0
BBX 11 57 2 0
BITMAP
0F00
18C0
3040
3060
0060
0060
00C0
01C0
0380
0600
0400
0400
0000
0000
0000
0000
0000
FFE0
FFE0
7FC0
1F80
1F00
1F00
1F00
1F00
1F00
1F00
1F00
1F00
1F00
1F00
1F00
1F00
1F00
1F00
1F00
1F00
1F00
1F00
1F00
1F00
1F00
1F00
1F00
1F00
1F00
1F00
1F00
1F00
1F00
1F00
1F00
1F00
3F80
7FC0
FFE0
FFE0
ENDCHAR
STARTCHAR 221A
ENCODING 8730
SWIDTH 612 0
DWIDTH 34 0
BBX 0 0 0 0
BITMAP
ENDCHAR
STARTCHAR 221E
ENCODING 8734
SWIDTH 828 0
DWIDTH 46 0
BBX 0 0 0 0
BITMAP
ENDCHAR
STARTCHAR 222B
ENCODING 8747
SWIDTH 486 0
DWIDTH 27 0
BBX 0 0 0 0
BITMAP
ENDCHAR
STARTCHAR 2248
ENCODING 8776
SWIDTH 828 0
DWIDTH 46 0
BBX 0 0 0 0
BITMAP
ENDCHAR
STARTCHAR 2260
ENCODING 8800
SWIDTH 828 0
DWIDTH 46 0
BBX 0 0 0 0
BITMAP
ENDCHAR
STARTCHAR 2264
ENCODING 8804
SWIDTH 828 0
DWIDTH 46 0
BBX 0 0 0 0
BITMAP
ENDCHAR
STARTCHAR 2265
ENCODING 8805
SWIDTH 828 0
DWIDTH 46 0
BBX 0 0 0 0
BITMAP
ENDCHAR
STARTCHAR 25CA
ENCODING 9674
SWIDTH 486 0
DWIDTH 27 0
BBX 0 0 0 0
BITMAP
ENDCHAR
STARTCHAR F000
ENCODING 61440
SWIDTH 774 0
DWIDTH 43 0
BBX 0 0 0 0
BITMAP
ENDCHAR
STARTCHAR F001
ENCODING 61441
SWIDTH 522 0
DWIDTH 29 0
BBX 0 0 0 0
BITMAP
ENDCHAR
STARTCHAR F002
ENCODING 61442
SWIDTH 504 0
DWIDTH 28 0
BBX 0 0 0 0
BITMAP
ENDCHAR
ENDFONT
